{
.appVersion = "3148";
copyright = "Digitized data copyright (C) 2011, Google Corporation.";
customParameters = (
{
name = panose;
value = (
2,
11,
9,
6,
3,
8,
4,
2,
2,
4
);
},
{
name = unicodeRanges;
value = (
0,
1,
2,
3,
5,
6,
7,
9,
29,
30,
31,
32,
33,
35,
36,
38,
45,
62,
67,
69
);
},
{
name = codePageRanges;
value = (
1252,
1250,
1251,
1253,
1254,
1257,
1258
);
},
{
name = glyphOrder;
value = (
.notdef,
null,
nonmarkingreturn,
space,
exclam,
quotedbl,
numbersign,
dollar,
percent,
ampersand,
quotesingle,
parenleft,
parenright,
asterisk,
plus,
comma,
hyphen,
period,
slash,
zero,
one,
two,
three,
four,
five,
six,
seven,
eight,
nine,
colon,
semicolon,
less,
equal,
greater,
question,
at,
A,
B,
C,
D,
E,
F,
G,
H,
I.alt,
J,
K,
L,
M,
N,
O,
P,
Q,
R,
S,
T,
U,
V,
W,
X,
Y,
Z,
bracketleft,
backslash,
bracketright,
asciicircum,
underscore,
grave,
a,
b,
c,
d,
e,
f,
g,
h,
i,
j,
k,
l,
m,
n,
o,
p,
q,
r,
s,
t,
u,
v,
w,
x,
y,
z,
braceleft,
bar,
braceright,
asciitilde,
nonbreakingspace,
exclamdown,
cent,
sterling,
currency,
yen,
brokenbar,
section,
dieresis,
copyright,
ordfeminine,
guillemotleft,
logicalnot,
uni00AD,
registered,
overscore,
degree,
plusminus,
twosuperior,
threesuperior,
acute,
mu,
paragraph,
periodcentered,
cedilla,
onesuperior,
ordmasculine,
guillemotright,
onequarter,
onehalf,
threequarters,
questiondown,
Agrave,
Aacute,
Acircumflex,
Atilde,
Adieresis,
Aring,
AE,
Ccedilla,
Egrave,
Eacute,
Ecircumflex,
Edieresis,
Igrave.alt,
Iacute.alt,
Icircumflex.alt,
Idieresis.alt,
Eth,
Ntilde,
Ograve,
Oacute,
Ocircumflex,
Otilde,
Odieresis,
multiply,
Oslash,
Ugrave,
Uacute,
Ucircumflex,
Udieresis,
Yacute,
Thorn,
germandbls,
agrave,
aacute,
acircumflex,
atilde,
adieresis,
aring,
ae,
ccedilla,
egrave,
eacute,
ecircumflex,
edieresis,
igrave,
iacute,
icircumflex,
idieresis,
eth,
ntilde,
ograve,
oacute,
ocircumflex,
otilde,
odieresis,
divide,
oslash,
ugrave,
uacute,
ucircumflex,
udieresis,
yacute,
thorn,
ydieresis,
Amacron,
amacron,
Abreve,
abreve,
Aogonek,
aogonek,
Cacute,
cacute,

glyphs = (
{
glyphname = .notdef;
lastChange = "2017-04-22 21:00:22 +0000";
layers = (
{
layerId = "9722DBBA-DA2B-4164-95B3-8AF620E947BE";
paths = (
{
closed = 1;
nodes = (
"1016 0 LINE",
"1016 1462 LINE",
"174 1462 LINE",
"174 0 LINE"
);
},
{
closed = 1;
nodes = (
"911 1358 LINE",
"911 104 LINE",
"279 104 LINE",
"279 1358 LINE"
);
}
);
width = 1192;
}
);
note = ".notdef";
},
{
glyphname = exclam;
lastChange = "2017-04-22 21:00:22 +0000";
layers = (
{
layerId = "9722DBBA-DA2B-4164-95B3-8AF620E947BE";
paths = (
{
closed = 1;
nodes = (
"82 1462 LINE",
"133 516 LINE",
"463 516 LINE",
"514 1462 LINE"
);
},
{
closed = 1;
nodes = (
"86 46 OFFCURVE",
"165 -25 OFFCURVE",
"297 -25 CURVE SMOOTH",
"428 -25 OFFCURVE",
"504 46 OFFCURVE",
"504 166 CURVE SMOOTH",
"504 287 OFFCURVE",
"433 358 OFFCURVE",
"297 358 CURVE SMOOTH",
"160 358 OFFCURVE",
"86 287 OFFCURVE",
"86 166 CURVE SMOOTH"
);
}
);
width = 594;
}
);
note = exclam;
unicode = 0021;
},
{
glyphname = quotedbl;
lastChange = "2017-04-22 21:00:22 +0000";
layers = (
{
layerId = "9722DBBA-DA2B-4164-95B3-8AF620E947BE";
paths = (
{
closed = 1;
nodes = (
"162 934 LINE",
"436 934 LINE",
"477 1462 LINE",
"121 1462 LINE"
);
},
{
closed = 1;
nodes = (
"637 934 LINE",
"911 934 LINE",
"952 1462 LINE",
"596 1462 LINE"
);
}
);
width = 1073;
}
);
note = quotedbl;
unicode = 0022;
},
{
glyphname = numbersign;
lastChange = "2017-04-22 21:00:22 +0000";
layers = (
{
layerId = "9722DBBA-DA2B-4164-95B3-8AF620E947BE";
paths = (
{
closed = 1;
nodes = (
"1319 1073 LINE",
"1090 1073 LINE",
"1163 1462 LINE",
"895 1462 LINE",
"823 1073 LINE",
"657 1073 LINE",
"731 1462 LINE",
"463 1462 LINE",
"391 1073 LINE",
"104 1073 LINE",
"104 813 LINE",
"342 813 LINE",
"311 645 LINE",
"37 645 LINE",
"37 391 LINE",
"262 391 LINE",
"190 0 LINE",
"457 0 LINE",
"528 391 LINE",
"696 391 LINE",
"623 0 LINE",
"891 0 LINE",
"965 391 LINE",
"1255 391 LINE",
"1255 645 LINE",
"1012 645 LINE",
"1042 813 LINE",
"1319 813 LINE"
);
},
{
closed = 1;
nodes = (
"774 813 LINE",
"743 645 LINE",
"578 645 LINE",
"608 813 LINE"
);
}
);
width = 1356;
}
);
note = numbersign;
unicode = 0023;
},
{
glyphname = dollar;
lastChange = "2017-04-22 21:00:22 +0000";
layers = (
{
layerId = "9722DBBA-DA2B-4164-95B3-8AF620E947BE";
paths = (
{
closed = 1;
nodes = (
"711 -119 LINE",
"711 74 LINE",
"983 107 OFFCURVE",
"1128 253 OFFCURVE",
"1128 477 CURVE SMOOTH",
"1128 676 OFFCURVE",
"1016 790 OFFCURVE",
"737 889 CURVE SMOOTH",
"668 912 OFFCURVE",
"615 933 OFFCURVE",
"576 951 CURVE SMOOTH",
"499 986 OFFCURVE",
"471 1009 OFFCURVE",
"471 1053 CURVE SMOOTH",
"471 1104 OFFCURVE",
"509 1130 OFFCURVE",
"616 1130 CURVE SMOOTH",
"728 1130 OFFCURVE",
"854 1099 OFFCURVE",
"993 1036 CURVE",
"1112 1321 LINE",
"977 1379 OFFCURVE",
"844 1412 OFFCURVE",
"711 1419 CURVE",
"711 1554 LINE",
"504 1554 LINE",
"504 1417 LINE",
"221 1388 OFFCURVE",
"80 1264 OFFCURVE",
"80 1044 CURVE SMOOTH",
"80 972 OFFCURVE",
"92 912 OFFCURVE",
"116 864 CURVE SMOOTH",
"163 767 OFFCURVE",
"265 690 OFFCURVE",
"434 627 CURVE SMOOTH",
"509 600 OFFCURVE",
"569 576 OFFCURVE",
"614 557 CURVE SMOOTH",
"702 518 OFFCURVE",
"737 493 OFFCURVE",
"737 449 CURVE SMOOTH",
"737 385 OFFCURVE",
"686 360 OFFCURVE",
"573 360 CURVE SMOOTH",
"436 360 OFFCURVE",
"237 419 OFFCURVE",
"82 498 CURVE",
"82 166 LINE",
"217 107 OFFCURVE",
"358 75 OFFCURVE",
"504 68 CURVE",
"504 -119 LINE"
);
}
);
width = 1200;
}
);
note = dollar;
unicode = 0024;
},
{
glyphname = percent;
lastChange = "2017-04-22 21:00:22 +0000";
layers = (
{
layerId = "9722DBBA-DA2B-4164-95B3-8AF620E947BE";
paths = (
{
closed = 1;
nodes = (
"338 1097 OFFCURVE",
"344 1152 OFFCURVE",
"357 1187 CURVE SMOOTH",
"369 1222 OFFCURVE",
"388 1239 OFFCURVE",
"414 1239 CURVE SMOOTH",
"439 1239 OFFCURVE",
"458 1222 OFFCURVE",
"471 1188 CURVE SMOOTH",
"483 1154 OFFCURVE",
"489 1099 OFFCURVE",
"489 1022 CURVE SMOOTH",
"489 944 OFFCURVE",
"483 888 OFFCURVE",
"471 855 CURVE SMOOTH",
"458 822 OFFCURVE",
"439 805 OFFCURVE",
"414 805 CURVE SMOOTH",
"389 805 OFFCURVE",
"370 822 OFFCURVE",
"357 856 CURVE SMOOTH",
"344 890 OFFCURVE",
"338 945 OFFCURVE",
"338 1022 CURVE SMOOTH"
);
},
{
closed = 1;
nodes = (
"791 1307 OFFCURVE",
"643 1483 OFFCURVE",
"410 1483 CURVE SMOOTH",
"174 1483 OFFCURVE",
"37 1319 OFFCURVE",
"37 1026 CURVE SMOOTH",
"37 743 OFFCURVE",
"181 565 OFFCURVE",
"410 565 CURVE SMOOTH",
"654 565 OFFCURVE",
"791 733 OFFCURVE",
"791 1026 CURVE SMOOTH"
);
},
{
closed = 1;
nodes = (
"412 0 LINE",
"709 0 LINE",
"1520 1462 LINE",
"1223 1462 LINE"
);
},
{
closed = 1;
nodes = (
"1450 515 OFFCURVE",
"1456 570 OFFCURVE",
"1469 605 CURVE SMOOTH",
"1481 640 OFFCURVE",
"1500 657 OFFCURVE",
"1526 657 CURVE SMOOTH",
"1555 657 OFFCURVE",
"1575 638 OFFCURVE",
"1586 599 CURVE SMOOTH",
"1597 560 OFFCURVE",
"1602 507 OFFCURVE",
"1602 440 CURVE SMOOTH",
"1602 373 OFFCURVE",
"1597 321 OFFCURVE",
"1586 282 CURVE SMOOTH",
"1575 243 OFFCURVE",
"1555 223 OFFCURVE",
"1526 223 CURVE SMOOTH",
"1501 223 OFFCURVE",
"1482 240 OFFCURVE",
"1469 274 CURVE SMOOTH",
"1456 308 OFFCURVE",
"1450 363 OFFCURVE",
"1450 440 CURVE SMOOTH"
);
},
{
closed = 1;
nodes = (
"1903 725 OFFCURVE",
"1755 901 OFFCURVE",
"1522 901 CURVE SMOOTH",
"1286 901 OFFCURVE",
"1149 737 OFFCURVE",
"1149 444 CURVE SMOOTH",
"1149 163 OFFCURVE",
"1293 -16 OFFCURVE",
"1522 -16 CURVE SMOOTH",
"1765 -16 OFFCURVE",
"1903 152 OFFCURVE",
"1903 444 CURVE SMOOTH"
);
}
);
width = 1942;
}
);
note = percent;
unicode = 0025;
},
{
glyphname = ampersand;
lastChange = "2017-04-22 21:00:22 +0000";
layers = (
{
layerId = "9722DBBA-DA2B-4164-95B3-8AF620E947BE";
paths = (
{
closed = 1;
nodes = (
"1327 307 LINE",
"1435 439 OFFCURVE",
"1527 637 OFFCURVE",
"1567 821 CURVE",
"1161 821 LINE",
"1142 724 OFFCURVE",
"1107 638 OFFCURVE",
"1057 561 CURVE",
"858 750 LINE",
"1041 861 OFFCURVE",
"1122 985 OFFCURVE",
"1122 1133 CURVE SMOOTH",
"1122 1348 OFFCURVE",
"957 1481 OFFCURVE",
"676 1481 CURVE SMOOTH",
"388 1481 OFFCURVE",
"213 1346 OFFCURVE",
"213 1133 CURVE SMOOTH",
"213 1001 OFFCURVE",
"261 900 OFFCURVE",
"344 807 CURVE",
"163 714 OFFCURVE",
"72 581 OFFCURVE",
"72 406 CURVE SMOOTH",
"72 323 OFFCURVE",
"94 250 OFFCURVE",
"137 185 CURVE SMOOTH",
"223 56 OFFCURVE",
"391 -20 OFFCURVE",
"602 -20 CURVE SMOOTH",
"663 -20 OFFCURVE",
"718 -16 OFFCURVE",
"766 -9 CURVE SMOOTH",
"861 6 OFFCURVE",
"922 26 OFFCURVE",
"1042 102 CURVE",
"1141 0 LINE",
"1647 0 LINE"
);
},
{
closed = 1;
nodes = (
"475 499 OFFCURVE",
"502 551 OFFCURVE",
"557 592 CURVE",
"805 340 LINE",
"774 315 OFFCURVE",
"715 291 OFFCURVE",
"639 291 CURVE SMOOTH",
"540 291 OFFCURVE",
"475 350 OFFCURVE",
"475 434 CURVE SMOOTH"
);
},
{
closed = 1;
nodes = (
"770 1070 OFFCURVE",
"729 1008 OFFCURVE",
"653 965 CURVE",
"594 1018 OFFCURVE",
"565 1070 OFFCURVE",
"565 1120 CURVE SMOOTH",
"565 1193 OFFCURVE",
"614 1225 OFFCURVE",
"670 1225 CURVE SMOOTH",
"727 1225 OFFCURVE",
"770 1198 OFFCURVE",
"770 1133 CURVE SMOOTH"
);
}
);
width = 1636;
}
);
note = ampersand;
unicode = 0026;
},
{
glyphname = quotesingle;
lastChange = "2017-04-22 21:00:22 +0000";
layers = (
{
layerId = "9722DBBA-DA2B-4164-95B3-8AF620E947BE";
paths = (
{
closed = 1;
nodes = (
"162 934 LINE",
"436 934 LINE",
"477 1462 LINE",
"121 1462 LINE"
);
}
);
width = 598;
}
);
note = quotesingle;
unicode = 0027;
},
{
glyphname = parenleft;
lastChange = "2017-04-22 21:00:22 +0000";
layers = (
{
layerId = "9722DBBA-DA2B-4164-95B3-8AF620E947BE";
paths = (
{
closed = 1;
nodes = (
"74 198 OFFCURVE",
"171 -113 OFFCURVE",
"354 -324 CURVE",
"678 -324 LINE",
"507 -87 OFFCURVE",
"418 236 OFFCURVE",
"418 584 CURVE SMOOTH",
"418 944 OFFCURVE",
"512 1270 OFFCURVE",
"680 1503 CURVE",
"354 1503 LINE",
"170 1283 OFFCURVE",
"74 969 OFFCURVE",
"74 582 CURVE SMOOTH"
);
}
);
width = 735;
}
);
note = parenleft;
unicode = 0028;
},
{
glyphname = parenright;
lastChange = "2017-04-22 21:00:22 +0000";
layers = (
{
layerId = "9722DBBA-DA2B-4164-95B3-8AF620E947BE";
paths = (
{
closed = 1;
nodes = (
"662 959 OFFCURVE",
"566 1282 OFFCURVE",
"381 1503 CURVE",
"55 1503 LINE",
"228 1262 OFFCURVE",
"317 937 OFFCURVE",
"317 584 CURVE SMOOTH",
"317 233 OFFCURVE",
"225 -95 OFFCURVE",
"57 -324 CURVE",
"381 -324 LINE",
"565 -111 OFFCURVE",
"662 205 OFFCURVE",
"662 582 CURVE SMOOTH"
);
}
);
width = 735;
}
);
note = parenright;
unicode = 0029;
},
{
glyphname = asterisk;
lastChange = "2017-04-22 21:00:22 +0000";
layers = (
{
layerId = "9722DBBA-DA2B-4164-95B3-8AF620E947BE";
paths = (
{
closed = 1;
nodes = (
"438 1204 LINE",
"90 1305 LINE",
"45 1014 LINE",
"358 989 LINE",
"152 711 LINE",
"424 575 LINE",
"547 856 LINE",
"690 573 LINE",
"950 711 LINE",
"743 989 LINE",
"1057 1010 LINE",
"1020 1305 LINE",
"664 1204 LINE",
"702 1556 LINE",
"399 1556 LINE"
);
}
);
width = 1100;
}
);
note = asterisk;
unicode = 002A;
},
{
glyphname = plus;
lastChange = "2017-04-22 21:00:22 +0000";
layers = (
{
layerId = "9722DBBA-DA2B-4164-95B3-8AF620E947BE";
paths = (
{
closed = 1;
nodes = (
"713 227 LINE",
"713 588 LINE",
"1085 588 LINE",
"1085 856 LINE",
"713 856 LINE",
"713 1223 LINE",
"444 1223 LINE",
"444 856 LINE",
"72 856 LINE",
"72 588 LINE",
"444 588 LINE",
"444 227 LINE"
);
}
);
width = 1159;
}
);
note = plus;
unicode = 002B;
},
{
glyphname = comma;
lastChange = "2017-04-22 21:00:22 +0000";
layers = (
{
layerId = "9722DBBA-DA2B-4164-95B3-8AF620E947BE";
paths = (
{
closed = 1;
nodes = (
"141 162 OFFCURVE",
"96 -101 OFFCURVE",
"57 -285 CURVE",
"336 -285 LINE",
"389 -165 OFFCURVE",
"447 22 OFFCURVE",
"512 276 CURVE",
"498 299 LINE",
"156 299 LINE"
);
}
);
width = 633;
}
);
note = comma;
unicode = 002C;
},
{
glyphname = hyphen;
lastChange = "2017-04-22 21:00:22 +0000";
layers = (
{
layerId = "9722DBBA-DA2B-4164-95B3-8AF620E947BE";
paths = (
{
closed = 1;
nodes = (
"608 705 LINE",
"43 705 LINE",
"43 393 LINE",
"608 393 LINE"
);
}
);
width = 651;
}
);
note = hyphen;
unicode = 002D;
},
{
glyphname = period;
lastChange = "2017-04-22 21:00:22 +0000";
layers = (
{
layerId = "9722DBBA-DA2B-4164-95B3-8AF620E947BE";
paths = (
{
closed = 1;
nodes = (
"86 45 OFFCURVE",
"167 -25 OFFCURVE",
"299 -25 CURVE SMOOTH",
"427 -25 OFFCURVE",
"504 46 OFFCURVE",
"504 166 CURVE SMOOTH",
"504 289 OFFCURVE",
"431 358 OFFCURVE",
"299 358 CURVE SMOOTH",
"160 358 OFFCURVE",
"86 289 OFFCURVE",
"86 166 CURVE SMOOTH"
);
}
);
width = 592;
}
);
note = period;
unicode = 002E;
},
{
glyphname = slash;
lastChange = "2017-04-22 21:00:22 +0000";
layers = (
{
layerId = "9722DBBA-DA2B-4164-95B3-8AF620E947BE";
paths = (
{
closed = 1;
nodes = (
"10 -20 LINE",
"356 -20 LINE",
"901 1483 LINE",
"555 1483 LINE"
);
}
);
width = 905;
}
);
note = slash;
unicode = 002F;
},
{
glyphname = zero;
lastChange = "2017-04-22 21:00:22 +0000";
layers = (
{
layerId = "9722DBBA-DA2B-4164-95B3-8AF620E947BE";
paths = (
{
closed = 1;
nodes = (
"1128 1229 OFFCURVE",
"948 1483 OFFCURVE",
"600 1483 CURVE SMOOTH",
"243 1483 OFFCURVE",
"72 1249 OFFCURVE",
"72 729 CURVE SMOOTH",
"72 233 OFFCURVE",
"251 -20 OFFCURVE",
"600 -20 CURVE SMOOTH",
"957 -20 OFFCURVE",
"1128 212 OFFCURVE",
"1128 729 CURVE SMOOTH"
);
},
{
closed = 1;
nodes = (
"465 896 OFFCURVE",
"475 1010 OFFCURVE",
"496 1073 CURVE SMOOTH",
"517 1136 OFFCURVE",
"551 1167 OFFCURVE",
"600 1167 CURVE SMOOTH",
"649 1167 OFFCURVE",
"683 1135 OFFCURVE",
"704 1070 CURVE SMOOTH",
"725 1005 OFFCURVE",
"735 891 OFFCURVE",
"735 729 CURVE SMOOTH",
"735 568 OFFCURVE",
"725 455 OFFCURVE",
"705 391 CURVE SMOOTH",
"684 327 OFFCURVE",
"649 295 OFFCURVE",
"600 295 CURVE SMOOTH",
"551 295 OFFCURVE",
"517 326 OFFCURVE",
"496 388 CURVE SMOOTH",
"475 450 OFFCURVE",
"465 564 OFFCURVE",
"465 729 CURVE SMOOTH"
);
}
);
width = 1200;
}
);
note = zero;
unicode = 0030;
},
{
glyphname = one;
lastChange = "2017-04-22 21:00:22 +0000";
layers = (
{
layerId = "9722DBBA-DA2B-4164-95B3-8AF620E947BE";
paths = (
{
closed = 1;
nodes = (
"586 1462 LINE",
"84 1053 LINE",
"289 801 LINE",
"455 938 LINE",
"492 971 OFFCURVE",
"522 1002 OFFCURVE",
"547 1032 CURVE",
"543 954 OFFCURVE",
"541 868 OFFCURVE",
"541 774 CURVE SMOOTH",
"541 0 LINE",
"942 0 LINE",
"942 1462 LINE"
);
}
);
width = 1200;
}
);
note = one;
unicode = 0031;
},
{
glyphname = two;
lastChange = "2017-04-22 21:00:22 +0000";
layers = (
{
layerId = "9722DBBA-DA2B-4164-95B3-8AF620E947BE";
paths = (
{
closed = 1;
nodes = (
"569 326 LINE",
"569 336 LINE",
"731 481 OFFCURVE",
"837 580 OFFCURVE",
"887 632 CURVE SMOOTH",
"936 684 OFFCURVE",
"976 734 OFFCURVE",
"1006 781 CURVE SMOOTH",
"1066 875 OFFCURVE",
"1094 968 OFFCURVE",
"1094 1083 CURVE SMOOTH",
"1094 1160 OFFCURVE",
"1074 1229 OFFCURVE",
"1033 1291 CURVE SMOOTH",
"951 1414 OFFCURVE",
"795 1483 OFFCURVE",
"606 1483 CURVE SMOOTH",
"531 1483 OFFCURVE",
"463 1475 OFFCURVE",
"403 1460 CURVE SMOOTH",
"282 1429 OFFCURVE",
"196 1384 OFFCURVE",
"45 1249 CURVE",
"262 995 LINE",
"381 1098 OFFCURVE",
"469 1151 OFFCURVE",
"561 1151 CURVE SMOOTH",
"650 1151 OFFCURVE",
"702 1104 OFFCURVE",
"702 1028 CURVE SMOOTH",
"702 967 OFFCURVE",
"681 918 OFFCURVE",
"618 840 CURVE SMOOTH",
"587 801 OFFCURVE",
"520 728 OFFCURVE",
"418 621 CURVE SMOOTH",
"61 260 LINE",
"61 0 LINE",
"1122 0 LINE",
"1122 326 LINE"
);
}
);
width = 1200;
}
);
note = two;
unicode = 0032;
},
{
glyphname = three;
lastChange = "2017-04-22 21:00:22 +0000";
layers = (
{
layerId = "9722DBBA-DA2B-4164-95B3-8AF620E947BE";
paths = (
{
closed = 1;
nodes = (
"1073 1356 OFFCURVE",
"891 1483 OFFCURVE",
"588 1483 CURVE SMOOTH",
"379 1483 OFFCURVE",
"227 1442 OFFCURVE",
"72 1335 CURVE",
"236 1071 LINE",
"336 1134 OFFCURVE",
"433 1165 OFFCURVE",
"526 1165 CURVE SMOOTH",
"626 1165 OFFCURVE",
"690 1128 OFFCURVE",
"690 1051 CURVE SMOOTH",
"690 948 OFFCURVE",
"590 897 OFFCURVE",
"389 897 CURVE SMOOTH",
"297 897 LINE",
"297 600 LINE",
"387 600 LINE SMOOTH",
"461 600 OFFCURVE",
"521 595 OFFCURVE",
"567 584 CURVE SMOOTH",
"659 562 OFFCURVE",
"698 522 OFFCURVE",
"698 442 CURVE SMOOTH",
"698 338 OFFCURVE",
"622 291 OFFCURVE",
"449 291 CURVE SMOOTH",
"337 291 OFFCURVE",
"198 322 OFFCURVE",
"70 387 CURVE",
"70 59 LINE",
"226 -1 OFFCURVE",
"349 -20 OFFCURVE",
"506 -20 CURVE SMOOTH",
"889 -20 OFFCURVE",
"1116 146 OFFCURVE",
"1116 418 CURVE SMOOTH",
"1116 618 OFFCURVE",
"994 733 OFFCURVE",
"750 764 CURVE",
"750 770 LINE",
"959 829 OFFCURVE",
"1073 964 OFFCURVE",
"1073 1145 CURVE SMOOTH"
);
}
);
width = 1200;
}
);
note = three;
unicode = 0033;
},
{
glyphname = four;
lastChange = "2017-04-22 21:00:22 +0000";
layers = (
{
layerId = "9722DBBA-DA2B-4164-95B3-8AF620E947BE";
paths = (
{
closed = 1;
nodes = (
"1008 578 LINE",
"1008 1462 LINE",
"643 1462 LINE",
"35 573 LINE",
"35 283 LINE",
"618 283 LINE",
"618 0 LINE",
"1008 0 LINE",
"1008 283 LINE",
"1169 283 LINE",
"1169 578 LINE"
);
},
{
closed = 1;
nodes = (
"539 819 LINE SMOOTH",
"568 864 OFFCURVE",
"593 912 OFFCURVE",
"616 963 CURVE",
"627 963 LINE",
"624 958 OFFCURVE",
"618 812 OFFCURVE",
"618 748 CURVE SMOOTH",
"618 578 LINE",
"377 578 LINE"
);
}
);
width = 1200;
}
);
note = four;
unicode = 0034;
},
{
glyphname = five;
lastChange = "2017-04-22 21:00:22 +0000";
layers = (
{
layerId = "9722DBBA-DA2B-4164-95B3-8AF620E947BE";
paths = (
{
closed = 1;
nodes = (
"645 958 OFFCURVE",
"625 958 OFFCURVE",
"603 957 CURVE SMOOTH",
"581 956 OFFCURVE",
"544 950 OFFCURVE",
"492 940 CURVE",
"510 1133 LINE",
"1008 1133 LINE",
"1008 1462 LINE",
"174 1462 LINE",
"119 690 LINE",
"264 618 LINE",
"336 641 OFFCURVE",
"403 653 OFFCURVE",
"465 653 CURVE SMOOTH",
"628 653 OFFCURVE",
"707 587 OFFCURVE",
"707 475 CURVE SMOOTH",
"707 354 OFFCURVE",
"626 291 OFFCURVE",
"479 291 CURVE SMOOTH",
"374 291 OFFCURVE",
"210 330 OFFCURVE",
"94 383 CURVE",
"94 59 LINE",
"202 6 OFFCURVE",
"341 -20 OFFCURVE",
"512 -20 CURVE SMOOTH",
"911 -20 OFFCURVE",
"1106 160 OFFCURVE",
"1106 487 CURVE SMOOTH",
"1106 580 OFFCURVE",
"1087 663 OFFCURVE",
"1050 734 CURVE SMOOTH",
"974 877 OFFCURVE",
"832 958 OFFCURVE",
"664 958 CURVE SMOOTH"
);
}
);
width = 1200;
}
);
note = five;
unicode = 0035;
},
{
glyphname = six;
lastChange = "2017-04-22 21:00:22 +0000";
layers = (
{
layerId = "9722DBBA-DA2B-4164-95B3-8AF620E947BE";
paths = (
{
closed = 1;
nodes = (
"70 215 OFFCURVE",
"276 -20 OFFCURVE",
"621 -20 CURVE SMOOTH",
"946 -20 OFFCURVE",
"1137 179 OFFCURVE",
"1137 500 CURVE SMOOTH",
"1137 799 OFFCURVE",
"987 975 OFFCURVE",
"727 975 CURVE SMOOTH",
"594 975 OFFCURVE",
"498 918 OFFCURVE",
"438 805 CURVE",
"426 805 LINE",
"438 1068 OFFCURVE",
"563 1176 OFFCURVE",
"827 1176 CURVE SMOOTH",
"905 1176 OFFCURVE",
"977 1170 OFFCURVE",
"1044 1157 CURVE",
"1044 1466 LINE",
"965 1477 OFFCURVE",
"895 1483 OFFCURVE",
"836 1483 CURVE SMOOTH",
"669 1483 OFFCURVE",
"529 1453 OFFCURVE",
"416 1393 CURVE SMOOTH",
"188 1273 OFFCURVE",
"70 1026 OFFCURVE",
"70 618 CURVE SMOOTH"
);
},
{
closed = 1;
nodes = (
"523 293 OFFCURVE",
"463 384 OFFCURVE",
"463 512 CURVE SMOOTH",
"463 600 OFFCURVE",
"525 670 OFFCURVE",
"616 670 CURVE SMOOTH",
"708 670 OFFCURVE",
"754 611 OFFCURVE",
"754 492 CURVE SMOOTH",
"754 353 OFFCURVE",
"696 293 OFFCURVE",
"612 293 CURVE SMOOTH"
);
}
);
width = 1200;
}
);
note = six;
unicode = 0036;
},
{
glyphname = seven;
lastChange = "2017-04-22 21:00:22 +0000";
layers = (
{
layerId = "9722DBBA-DA2B-4164-95B3-8AF620E947BE";
paths = (
{
closed = 1;
nodes = (
"1133 1227 LINE",
"1133 1460 LINE",
"78 1460 LINE",
"78 1133 LINE",
"711 1133 LINE",
"209 0 LINE",
"618 0 LINE"
);
}
);
width = 1200;
}
);
note = seven;
unicode = 0037;
},
{
glyphname = eight;
lastChange = "2017-04-22 21:00:22 +0000";
layers = (
{
layerId = "9722DBBA-DA2B-4164-95B3-8AF620E947BE";
paths = (
{
closed = 1;
nodes = (
"296 1483 OFFCURVE",
"111 1352 OFFCURVE",
"111 1128 CURVE SMOOTH",
"111 985 OFFCURVE",
"179 868 OFFCURVE",
"334 764 CURVE",
"142 667 OFFCURVE",
"68 554 OFFCURVE",
"68 385 CURVE SMOOTH",
"68 124 OFFCURVE",
"256 -20 OFFCURVE",
"600 -20 CURVE SMOOTH",
"937 -20 OFFCURVE",
"1135 129 OFFCURVE",
"1135 389 CURVE SMOOTH",
"1135 530 OFFCURVE",
"1056 647 OFFCURVE",
"840 770 CURVE",
"1015 857 OFFCURVE",
"1092 971 OFFCURVE",
"1092 1126 CURVE SMOOTH",
"1092 1354 OFFCURVE",
"912 1483 OFFCURVE",
"604 1483 CURVE SMOOTH"
);
},
{
closed = 1;
nodes = (
"430 472 OFFCURVE",
"477 533 OFFCURVE",
"596 596 CURVE",
"728 517 OFFCURVE",
"772 458 OFFCURVE",
"772 393 CURVE SMOOTH",
"772 307 OFFCURVE",
"713 264 OFFCURVE",
"596 264 CURVE SMOOTH",
"492 264 OFFCURVE",
"430 318 OFFCURVE",
"430 401 CURVE SMOOTH"
);
},
{
closed = 1;
nodes = (
"667 1198 OFFCURVE",
"721 1156 OFFCURVE",
"721 1092 CURVE SMOOTH",
"721 1035 OFFCURVE",
"693 995 OFFCURVE",
"598 940 CURVE",
"520 984 OFFCURVE",
"481 1035 OFFCURVE",
"481 1092 CURVE SMOOTH",
"481 1155 OFFCURVE",
"534 1198 OFFCURVE",
"602 1198 CURVE SMOOTH"
);
}
);
width = 1200;
}
);
note = eight;
unicode = 0038;
},
{
glyphname = nine;
lastChange = "2017-04-22 21:00:22 +0000";
layers = (
{
layerId = "9722DBBA-DA2B-4164-95B3-8AF620E947BE";
paths = (
{
closed = 1;
nodes = (
"1133 1230 OFFCURVE",
"928 1477 OFFCURVE",
"571 1477 CURVE SMOOTH",
"250 1477 OFFCURVE",
"53 1282 OFFCURVE",
"53 958 CURVE SMOOTH",
"53 661 OFFCURVE",
"204 481 OFFCURVE",
"457 481 CURVE SMOOTH",
"512 481 OFFCURVE",
"557 487 OFFCURVE",
"594 498 CURVE SMOOTH",
"667 521 OFFCURVE",
"712 555 OFFCURVE",
"764 651 CURVE",
"776 651 LINE",
"763 399 OFFCURVE",
"607 287 OFFCURVE",
"324 287 CURVE SMOOTH",
"267 287 OFFCURVE",
"209 292 OFFCURVE",
"152 303 CURVE",
"152 -10 LINE",
"199 -17 OFFCURVE",
"267 -20 OFFCURVE",
"356 -20 CURVE SMOOTH",
"899 -20 OFFCURVE",
"1133 221 OFFCURVE",
"1133 793 CURVE SMOOTH"
);
},
{
closed = 1;
nodes = (
"673 1161 OFFCURVE",
"739 1063 OFFCURVE",
"739 944 CURVE SMOOTH",
"739 856 OFFCURVE",
"665 784 OFFCURVE",
"578 784 CURVE SMOOTH",
"482 784 OFFCURVE",
"436 854 OFFCURVE",
"436 963 CURVE SMOOTH",
"436 1102 OFFCURVE",
"495 1161 OFFCURVE",
"582 1161 CURVE SMOOTH"
);
}
);
width = 1200;
}
);
note = nine;
unicode = 0039;
},
{
glyphname = colon;
lastChange = "2017-04-22 21:00:22 +0000";
layers = (
{
layerId = "9722DBBA-DA2B-4164-95B3-8AF620E947BE";
paths = (
{
closed = 1;
nodes = (
"86 45 OFFCURVE",
"167 -25 OFFCURVE",
"299 -25 CURVE SMOOTH",
"427 -25 OFFCURVE",
"504 46 OFFCURVE",
"504 166 CURVE SMOOTH",
"504 289 OFFCURVE",
"431 358 OFFCURVE",
"299 358 CURVE SMOOTH",
"160 358 OFFCURVE",
"86 289 OFFCURVE",
"86 166 CURVE SMOOTH"
);
},
{
closed = 1;
nodes = (
"86 836 OFFCURVE",
"163 764 OFFCURVE",
"299 764 CURVE SMOOTH",
"428 764 OFFCURVE",
"504 836 OFFCURVE",
"504 956 CURVE SMOOTH",
"504 1077 OFFCURVE",
"431 1147 OFFCURVE",
"299 1147 CURVE SMOOTH",
"162 1147 OFFCURVE",
"86 1077 OFFCURVE",
"86 956 CURVE SMOOTH"
);
}
);
width = 592;
}
);
note = colon;
unicode = 003A;
},
{
glyphname = semicolon;
lastChange = "2017-04-22 21:00:22 +0000";
layers = (
{
layerId = "9722DBBA-DA2B-4164-95B3-8AF620E947BE";
paths = (
{
closed = 1;
nodes = (
"141 162 OFFCURVE",
"96 -101 OFFCURVE",
"57 -285 CURVE",
"336 -285 LINE",
"389 -165 OFFCURVE",
"447 22 OFFCURVE",
"512 276 CURVE",
"498 299 LINE",
"156 299 LINE"
);
},
{
closed = 1;
nodes = (
"92 835 OFFCURVE",
"167 764 OFFCURVE",
"303 764 CURVE SMOOTH",
"435 764 OFFCURVE",
"510 836 OFFCURVE",
"510 956 CURVE SMOOTH",
"510 1076 OFFCURVE",
"436 1147 OFFCURVE",
"303 1147 CURVE SMOOTH",
"164 1147 OFFCURVE",
"92 1077 OFFCURVE",
"92 956 CURVE SMOOTH"
);
}
);
width = 608;
}
);
note = semicolon;
unicode = 003B;
},
{
glyphname = less;
lastChange = "2017-04-22 21:00:22 +0000";
layers = (
{
layerId = "9722DBBA-DA2B-4164-95B3-8AF620E947BE";
paths = (
{
closed = 1;
nodes = (
"463 725 LINE",
"1083 1008 LINE",
"1083 1305 LINE",
"72 799 LINE",
"72 627 LINE",
"1083 178 LINE",
"1083 473 LINE"
);
}
);
width = 1159;
}
);
note = less;
unicode = 003C;
},
{
glyphname = equal;
lastChange = "2017-04-22 21:00:22 +0000";
layers = (
{
layerId = "9722DBBA-DA2B-4164-95B3-8AF620E947BE";
paths = (
{
closed = 1;
nodes = (
"1087 1083 LINE",
"72 1083 LINE",
"72 815 LINE",
"1087 815 LINE"
);
},
{
closed = 1;
nodes = (
"1087 629 LINE",
"72 629 LINE",
"72 358 LINE",
"1087 358 LINE"
);
}
);
width = 1159;
}
);
note = equal;
unicode = 003D;
},
{
glyphname = greater;
lastChange = "2017-04-22 21:00:22 +0000";
layers = (
{
layerId = "9722DBBA-DA2B-4164-95B3-8AF620E947BE";
paths = (
{
closed = 1;
nodes = (
"1083 627 LINE",
"1083 799 LINE",
"72 1305 LINE",
"72 1008 LINE",
"692 725 LINE",
"72 473 LINE",
"72 178 LINE"
);
}
);
width = 1159;
}
);
note = greater;
unicode = 003E;
},
{
glyphname = question;
lastChange = "2017-04-22 21:00:22 +0000";
layers = (
{
layerId = "9722DBBA-DA2B-4164-95B3-8AF620E947BE";
paths = (
{
closed = 1;
nodes = (
"602 567 LINE SMOOTH",
"602 596 OFFCURVE",
"611 621 OFFCURVE",
"629 642 CURVE SMOOTH",
"646 663 OFFCURVE",
"690 696 OFFCURVE",
"760 741 CURVE SMOOTH",
"925 846 OFFCURVE",
"997 957 OFFCURVE",
"997 1118 CURVE SMOOTH",
"997 1343 OFFCURVE",
"817 1483 OFFCURVE",
"520 1483 CURVE SMOOTH",
"339 1483 OFFCURVE",
"166 1436 OFFCURVE",
"0 1341 CURVE",
"139 1069 LINE",
"274 1140 OFFCURVE",
"391 1176 OFFCURVE",
"492 1176 CURVE SMOOTH",
"573 1176 OFFCURVE",
"629 1141 OFFCURVE",
"629 1085 CURVE SMOOTH",
"629 1014 OFFCURVE",
"585 967 OFFCURVE",
"477 899 CURVE SMOOTH",
"341 814 OFFCURVE",
"295 733 OFFCURVE",
"295 602 CURVE SMOOTH",
"295 516 LINE",
"602 516 LINE"
);
},
{
closed = 1;
nodes = (
"252 43 OFFCURVE",
"331 -25 OFFCURVE",
"463 -25 CURVE SMOOTH",
"591 -25 OFFCURVE",
"670 45 OFFCURVE",
"670 166 CURVE SMOOTH",
"670 287 OFFCURVE",
"596 358 OFFCURVE",
"463 358 CURVE SMOOTH",
"324 358 OFFCURVE",
"252 289 OFFCURVE",
"252 166 CURVE SMOOTH"
);
}
);
width = 1034;
}
);
note = question;
unicode = 003F;
},
{
glyphname = at;
lastChange = "2017-04-22 21:00:22 +0000";
layers = (
{
layerId = "9722DBBA-DA2B-4164-95B3-8AF620E947BE";
paths = (
{
closed = 1;
nodes = (
"1755 901 OFFCURVE",
"1723 1029 OFFCURVE",
"1659 1139 CURVE SMOOTH",
"1530 1358 OFFCURVE",
"1281 1481 OFFCURVE",
"969 1481 CURVE SMOOTH",
"799 1481 OFFCURVE",
"647 1445 OFFCURVE",
"513 1373 CURVE SMOOTH",
"244 1228 OFFCURVE",
"82 947 OFFCURVE",
"82 610 CURVE SMOOTH",
"82 131 OFFCURVE",
"396 -154 OFFCURVE",
"913 -154 CURVE SMOOTH",
"1097 -154 OFFCURVE",
"1264 -122 OFFCURVE",
"1413 -59 CURVE",
"1413 170 LINE",
"1241 109 OFFCURVE",
"1054 74 OFFCURVE",
"899 74 CURVE SMOOTH",
"552 74 OFFCURVE",
"354 266 OFFCURVE",
"354 606 CURVE SMOOTH",
"354 738 OFFCURVE",
"379 853 OFFCURVE",
"428 952 CURVE SMOOTH",
"527 1148 OFFCURVE",
"720 1257 OFFCURVE",
"973 1257 CURVE SMOOTH",
"1304 1257 OFFCURVE",
"1491 1077 OFFCURVE",
"1491 758 CURVE SMOOTH",
"1491 669 OFFCURVE",
"1480 596 OFFCURVE",
"1459 538 CURVE SMOOTH",
"1437 480 OFFCURVE",
"1409 451 OFFCURVE",
"1374 451 CURVE SMOOTH",
"1341 451 OFFCURVE",
"1325 480 OFFCURVE",
"1325 537 CURVE SMOOTH",
"1327 631 LINE",
"1348 1053 LINE",
"1240 1090 OFFCURVE",
"1099 1114 OFFCURVE",
"991 1114 CURVE SMOOTH",
"888 1114 OFFCURVE",
"798 1095 OFFCURVE",
"720 1056 CURVE SMOOTH",
"564 978 OFFCURVE",
"479 827 OFFCURVE",
"479 639 CURVE SMOOTH",
"479 383 OFFCURVE",
"614 233 OFFCURVE",
"858 233 CURVE SMOOTH",
"960 233 OFFCURVE",
"1047 273 OFFCURVE",
"1118 352 CURVE",
"1133 352 LINE",
"1181 277 OFFCURVE",
"1271 233 OFFCURVE",
"1376 233 CURVE SMOOTH",
"1449 233 OFFCURVE",
"1515 256 OFFCURVE",
"1572 302 CURVE SMOOTH",
"1687 394 OFFCURVE",
"1755 568 OFFCURVE",
"1755 756 CURVE SMOOTH"
);
},
{
closed = 1;
nodes = (
"760 801 OFFCURVE",
"851 895 OFFCURVE",
"995 895 CURVE SMOOTH",
"1014 895 OFFCURVE",
"1036 893 OFFCURVE",
"1063 889 CURVE",
"1053 733 LINE SMOOTH",
"1046 628 OFFCURVE",
"1030 554 OFFCURVE",
"1006 513 CURVE SMOOTH",
"982 472 OFFCURVE",
"944 451 OFFCURVE",
"893 451 CURVE SMOOTH",
"813 451 OFFCURVE",
"760 508 OFFCURVE",
"760 641 CURVE SMOOTH"
);
}
);
width = 1837;
}
);
note = at;
unicode = 0040;
},
{
glyphname = A;
lastChange = "2017-06-04 18:43:55 +0000";
layers = (
{
anchors = (
{
name = bottom;
position = "{744, 0}";
},
{
name = ogonek;
position = "{1338, 10}";
},
{
name = top;
position = "{744, 1462}";
}
);
layerId = "9722DBBA-DA2B-4164-95B3-8AF620E947BE";
paths = (
{
closed = 1;
nodes = (
"1004 1468 LINE",
"477 1468 LINE",
"0 0 LINE",
"434 0 LINE",
"508 274 LINE",
"983 274 LINE",
"1055 0 LINE",
"1487 0 LINE"
);
},
{
closed = 1;
nodes = (
"651 827 OFFCURVE",
"690 981 OFFCURVE",
"708 1059 CURVE SMOOTH",
"725 1137 OFFCURVE",
"737 1193 OFFCURVE",
"743 1227 CURVE",
"756 1154 OFFCURVE",
"809 945 OFFCURVE",
"838 838 CURVE SMOOTH",
"901 598 LINE",
"590 598 LINE"
);
}
);
width = 1487;
}
);
note = A;
unicode = 0041;
},
{
glyphname = B;
lastChange = "2017-06-04 18:43:55 +0000";
layers = (
{
anchors = (
{
name = bottom;
position = "{690, 0}";
},
{
name = top;
position = "{690, 1462}";
}
);
layerId = "9722DBBA-DA2B-4164-95B3-8AF620E947BE";
paths = (
{
closed = 1;
nodes = (
"727 0 LINE SMOOTH",
"1071 0 OFFCURVE",
"1284 163 OFFCURVE",
"1284 428 CURVE SMOOTH",
"1284 607 OFFCURVE",
"1207 718 OFFCURVE",
"1026 766 CURVE",
"1026 776 LINE",
"1163 809 OFFCURVE",
"1255 934 OFFCURVE",
"1255 1098 CURVE SMOOTH",
"1255 1347 OFFCURVE",
"1065 1462 OFFCURVE",
"668 1462 CURVE SMOOTH",
"158 1462 LINE",
"158 0 LINE"
);
},
{
closed = 1;
nodes = (
"664 1163 LINE SMOOTH",
"788 1163 OFFCURVE",
"850 1122 OFFCURVE",
"850 1040 CURVE SMOOTH",
"850 948 OFFCURVE",
"785 901 OFFCURVE",
"672 901 CURVE SMOOTH",
"553 901 LINE",
"553 1163 LINE"
);
},
{
closed = 1;
nodes = (
"809 612 OFFCURVE",
"877 558 OFFCURVE",
"877 461 CURVE SMOOTH",
"877 357 OFFCURVE",
"815 305 OFFCURVE",
"692 305 CURVE SMOOTH",
"553 305 LINE",
"553 612 LINE",
"684 612 LINE SMOOTH"
);
}
);
width = 1380;
}
);
note = B;
unicode = 0042;
},
{
glyphname = C;
lastChange = "2017-06-04 18:43:55 +0000";
layers = (
{
anchors = (
{
name = bottom;
position = "{665, 0}";
},
{
name = top;
position = "{665, 1462}";
}
);
layerId = "9722DBBA-DA2B-4164-95B3-8AF620E947BE";
paths = (
{
closed = 1;
nodes = (
"933 1159 OFFCURVE",
"1037 1120 OFFCURVE",
"1145 1069 CURVE",
"1266 1380 LINE",
"1122 1449 OFFCURVE",
"971 1483 OFFCURVE",
"813 1483 CURVE SMOOTH",
"668 1483 OFFCURVE",
"543 1452 OFFCURVE",
"436 1391 CURVE SMOOTH",
"222 1267 OFFCURVE",
"104 1030 OFFCURVE",
"104 727 CURVE SMOOTH",
"104 243 OFFCURVE",
"347 -20 OFFCURVE",
"788 -20 CURVE SMOOTH",
"942 -20 OFFCURVE",
"1080 7 OFFCURVE",
"1202 61 CURVE",
"1202 395 LINE",
"1079 344 OFFCURVE",
"960 303 OFFCURVE",
"831 303 CURVE SMOOTH",
"617 303 OFFCURVE",
"510 444 OFFCURVE",
"510 725 CURVE SMOOTH",
"510 996 OFFCURVE",
"621 1159 OFFCURVE",
"809 1159 CURVE SMOOTH"
);
}
);
width = 1329;
}
);
note = C;
unicode = 0043;
},
{
glyphname = D;
lastChange = "2017-06-04 18:43:55 +0000";
layers = (
{
anchors = (
{
name = bottom;
position = "{752, 0}";
},
{
name = center;
position = "{752, 731}";
},
{
name = top;
position = "{752, 1462}";
}
);
layerId = "9722DBBA-DA2B-4164-95B3-8AF620E947BE";
paths = (
{
closed = 1;
nodes = (
"1399 1215 OFFCURVE",
"1133 1462 OFFCURVE",
"664 1462 CURVE SMOOTH",
"158 1462 LINE",
"158 0 LINE",
"631 0 LINE SMOOTH",
"1118 0 OFFCURVE",
"1399 274 OFFCURVE",
"1399 762 CURVE SMOOTH"
);
},
{
closed = 1;
nodes = (
"989 461 OFFCURVE",
"881 324 OFFCURVE",
"641 324 CURVE SMOOTH",
"553 324 LINE",
"553 1143 LINE",
"668 1143 LINE SMOOTH",
"884 1143 OFFCURVE",
"989 1016 OFFCURVE",
"989 748 CURVE SMOOTH"
);
}
);
width = 1503;
}
);
note = D;
unicode = 0044;
},
{
glyphname = E;
lastChange = "2017-06-04 18:43:55 +0000";
layers = (
{
anchors = (
{
name = bottom;
position = "{562, 0}";
},
{
name = ogonek;
position = "{1012, 10}";
},
{
name = top;
position = "{562, 1462}";
},
{
name = topleft;
position = "{20, 1462}";
}
);
layerId = "9722DBBA-DA2B-4164-95B3-8AF620E947BE";
paths = (
{
closed = 1;
nodes = (
"553 322 LINE",
"553 598 LINE",
"991 598 LINE",
"991 915 LINE",
"553 915 LINE",
"553 1145 LINE",
"1026 1145 LINE",
"1026 1462 LINE",
"158 1462 LINE",
"158 0 LINE",
"1026 0 LINE",
"1026 322 LINE"
);
}
);
width = 1124;
}
);
note = E;
unicode = 0045;
},
{
glyphname = F;
lastChange = "2017-06-04 18:43:55 +0000";
layers = (
{
anchors = (
{
name = bottom;
position = "{552, 0}";
},
{
name = top;
position = "{552, 1462}";
}
);
layerId = "9722DBBA-DA2B-4164-95B3-8AF620E947BE";
paths = (
{
closed = 1;
nodes = (
"985 549 LINE",
"985 866 LINE",
"547 866 LINE",
"547 1145 LINE",
"1022 1145 LINE",
"1022 1462 LINE",
"158 1462 LINE",
"158 0 LINE",
"547 0 LINE",
"547 549 LINE"
);
}
);
width = 1104;
}
);
note = F;
unicode = 0046;
},
{
glyphname = G;
lastChange = "2017-06-04 18:43:55 +0000";
layers = (
{
anchors = (
{
name = bottom;
position = "{758, 0}";
},
{
name = top;
position = "{758, 1462}";
}
);
layerId = "9722DBBA-DA2B-4164-95B3-8AF620E947BE";
paths = (
{
closed = 1;
nodes = (
"1006 551 LINE",
"1006 322 LINE",
"957 311 OFFCURVE",
"903 305 OFFCURVE",
"844 305 CURVE SMOOTH",
"629 305 OFFCURVE",
"512 452 OFFCURVE",
"512 725 CURVE SMOOTH",
"512 1004 OFFCURVE",
"643 1159 OFFCURVE",
"874 1159 CURVE SMOOTH",
"1000 1159 OFFCURVE",
"1116 1133 OFFCURVE",
"1221 1081 CURVE",
"1346 1391 LINE",
"1225 1444 OFFCURVE",
"1056 1483 OFFCURVE",
"872 1483 CURVE SMOOTH",
"387 1483 OFFCURVE",
"104 1207 OFFCURVE",
"104 735 CURVE SMOOTH",
"104 251 OFFCURVE",
"360 -20 OFFCURVE",
"811 -20 CURVE SMOOTH",
"1016 -20 OFFCURVE",
"1205 9 OFFCURVE",
"1376 68 CURVE",
"1376 856 LINE",
"745 856 LINE",
"745 551 LINE"
);
}
);
width = 1516;
}
);
note = G;
unicode = 0047;
},
{
glyphname = H;
lastChange = "2017-06-04 18:43:55 +0000";
layers = (
{
anchors = (
{
name = bottom;
position = "{785, 0}";
},
{
name = center;
position = "{785, 731}";
},
{
name = top;
position = "{785, 1462}";
},
{
name = topleft;
position = "{20, 1462}";
}
);
layerId = "9722DBBA-DA2B-4164-95B3-8AF620E947BE";
paths = (
{
closed = 1;
nodes = (
"1014 1462 LINE",
"1014 920 LINE",
"555 920 LINE",
"555 1462 LINE",
"158 1462 LINE",
"158 0 LINE",
"555 0 LINE",
"555 596 LINE",
"1014 596 LINE",
"1014 0 LINE",
"1411 0 LINE",
"1411 1462 LINE"
);
}
);
width = 1569;
}
);
note = H;
unicode = 0048;
},
{
glyphname = I.alt;
lastChange = "2017-06-04 18:43:55 +0000";
layers = (
{
anchors = (
{
name = bottom;
position = "{451, 0}";
},
{
name = ogonek;
position = "{811, 10}";
},
{
name = top;
position = "{451, 1462}";
},
{
name = topleft;
position = "{20, 1462}";
}
);
layerId = "9722DBBA-DA2B-4164-95B3-8AF620E947BE";
paths = (
{
closed = 1;
nodes = (
"649 295 LINE",
"649 1169 LINE",
"831 1237 LINE",
"831 1462 LINE",
"70 1462 LINE",
"70 1237 LINE",
"252 1169 LINE",
"252 295 LINE",
"70 225 LINE",
"70 0 LINE",
"831 0 LINE",
"831 225 LINE"
);
}
);
width = 901;
}
);
note = I.alt;
},
{
glyphname = J;
lastChange = "2017-06-04 18:43:55 +0000";
layers = (
{
anchors = (
{
name = bottom;
position = "{361, 0}";
},
{
name = top;
position = "{361, 1462}";
}
);
layerId = "9722DBBA-DA2B-4164-95B3-8AF620E947BE";
paths = (
{
closed = 1;
nodes = (
"390 -459 OFFCURVE",
"563 -253 OFFCURVE",
"563 143 CURVE SMOOTH",
"563 1462 LINE",
"166 1462 LINE",
"166 109 LINE SMOOTH",
"166 -82 OFFCURVE",
"115 -152 OFFCURVE",
"-16 -152 CURVE SMOOTH",
"-44 -152 OFFCURVE",
"-70 -149 OFFCURVE",
"-94 -144 CURVE SMOOTH",
"-118 -139 OFFCURVE",
"-141 -135 OFFCURVE",
"-162 -131 CURVE",
"-162 -438 LINE",
"-97 -452 OFFCURVE",
"-29 -459 OFFCURVE",
"43 -459 CURVE SMOOTH"
);
}
);
width = 721;
}
);
note = J;
unicode = 004A;
},
{
glyphname = K;
lastChange = "2017-06-04 18:43:55 +0000";
layers = (
{
anchors = (
{
name = bottom;
position = "{704, 0}";
},
{
name = top;
position = "{704, 1462}";
}
);
layerId = "9722DBBA-DA2B-4164-95B3-8AF620E947BE";
paths = (
{
closed = 1;
nodes = (
"1415 1462 LINE",
"983 1462 LINE",
"676 1014 LINE SMOOTH",
"615 929 OFFCURVE",
"575 866 OFFCURVE",
"555 827 CURVE",
"555 1462 LINE",
"158 1462 LINE",
"158 0 LINE",
"555 0 LINE",
"555 489 LINE",
"672 559 LINE",
"961 0 LINE",
"1407 0 LINE",
"954 807 LINE"
);
}
);
width = 1407;
}
);
note = K;
unicode = 004B;
},
{
glyphname = L;
lastChange = "2017-06-04 18:43:55 +0000";
layers = (
{
anchors = (
{
name = bottom;
position = "{596, 0}";
},
{
name = center;
position = "{596, 731}";
},
{
name = top;
position = "{596, 1462}";
},
{
name = topright;
position = "{1172, 1462}";
}
);
layerId = "9722DBBA-DA2B-4164-95B3-8AF620E947BE";
paths = (
{
closed = 1;
nodes = (
"1116 319 LINE",
"553 319 LINE",
"553 1462 LINE",
"158 1462 LINE",
"158 0 LINE",
"1116 0 LINE"
);
}
);
width = 1192;
}
);
note = L;
unicode = 004C;
},
{
glyphname = M;
lastChange = "2017-06-04 18:43:55 +0000";
layers = (
{
anchors = (
{
name = bottom;
position = "{990, 0}";
},
{
name = top;
position = "{990, 1462}";
}
);
layerId = "9722DBBA-DA2B-4164-95B3-8AF620E947BE";
paths = (
{
closed = 1;
nodes = (
"1466 1051 LINE",
"1475 1051 LINE",
"1467 892 OFFCURVE",
"1463 793 OFFCURVE",
"1462 752 CURVE SMOOTH",
"1461 711 OFFCURVE",
"1460 674 OFFCURVE",
"1460 641 CURVE SMOOTH",
"1460 0 LINE",
"1823 0 LINE",
"1823 1462 LINE",
"1296 1462 LINE",
"997 424 LINE",
"989 424 LINE",
"684 1462 LINE",
"158 1462 LINE",
"158 0 LINE",
"508 0 LINE",
"508 635 LINE SMOOTH",
"508 734 OFFCURVE",
"501 874 OFFCURVE",
"487 1053 CURVE",
"496 1053 LINE",
"795 0 LINE",
"1171 0 LINE"
);
}
);
width = 1980;
}
);
note = M;
unicode = 004D;
},
{
glyphname = N;
lastChange = "2017-06-04 18:43:55 +0000";
layers = (
{
anchors = (
{
name = bottom;
position = "{854, 0}";
},
{
name = top;
position = "{854, 1462}";
}
);
layerId = "9722DBBA-DA2B-4164-95B3-8AF620E947BE";
paths = (
{
closed = 1;
nodes = (
"1198 1462 LINE",
"1198 801 LINE SMOOTH",
"1198 712 OFFCURVE",
"1203 593 OFFCURVE",
"1212 446 CURVE",
"1206 446 LINE",
"674 1462 LINE",
"158 1462 LINE",
"158 0 LINE",
"508 0 LINE",
"508 659 LINE SMOOTH",
"508 744 OFFCURVE",
"502 868 OFFCURVE",
"489 1030 CURVE",
"498 1030 LINE",
"1032 0 LINE",
"1550 0 LINE",
"1550 1462 LINE"
);
}
);
width = 1708;
}
);
note = N;
unicode = 004E;
},
{
glyphname = O;
lastChange = "2017-06-04 18:43:55 +0000";
layers = (
{
anchors = (
{
name = bottom;
position = "{816, 0}";
},
{
name = center;
position = "{816, 731}";
},
{
name = ogonek;
position = "{1469, 10}";
},
{
name = top;
position = "{816, 1462}";
},
{
name = topleft;
position = "{20, 1462}";
},
{
name = topright;
position = "{1612, 1462}";
}
);
layerId = "9722DBBA-DA2B-4164-95B3-8AF620E947BE";
paths = (
{
closed = 1;
nodes = (
"1526 1226 OFFCURVE",
"1282 1485 OFFCURVE",
"817 1485 CURVE SMOOTH",
"353 1485 OFFCURVE",
"104 1222 OFFCURVE",
"104 735 CURVE SMOOTH",
"104 243 OFFCURVE",
"356 -20 OFFCURVE",
"815 -20 CURVE SMOOTH",
"1280 -20 OFFCURVE",
"1526 241 OFFCURVE",
"1526 733 CURVE SMOOTH"
);
},
{
closed = 1;
nodes = (
"520 1018 OFFCURVE",
"619 1161 OFFCURVE",
"817 1161 CURVE SMOOTH",
"1012 1161 OFFCURVE",
"1110 1025 OFFCURVE",
"1110 733 CURVE SMOOTH",
"1110 442 OFFCURVE",
"1015 309 OFFCURVE",
"815 309 CURVE SMOOTH",
"618 309 OFFCURVE",
"520 450 OFFCURVE",
"520 733 CURVE SMOOTH"
);
}
);
width = 1632;
}
);
note = O;
unicode = 004F;
},
{
glyphname = P;
lastChange = "2017-06-04 18:43:55 +0000";
layers = (
{
anchors = (
{
name = bottom;
position = "{647, 0}";
},
{
name = top;
position = "{647, 1462}";
}
);
layerId = "9722DBBA-DA2B-4164-95B3-8AF620E947BE";
paths = (
{
closed = 1;
nodes = (
"1219 1294 OFFCURVE",
"1033 1462 OFFCURVE",
"664 1462 CURVE SMOOTH",
"158 1462 LINE",
"158 0 LINE",
"553 0 LINE",
"553 485 LINE",
"664 485 LINE SMOOTH",
"1019 485 OFFCURVE",
"1219 670 OFFCURVE",
"1219 997 CURVE SMOOTH"
);
},
{
closed = 1;
nodes = (
"655 1143 LINE SMOOTH",
"764 1143 OFFCURVE",
"819 1094 OFFCURVE",
"819 995 CURVE SMOOTH",
"819 878 OFFCURVE",
"744 807 OFFCURVE",
"625 807 CURVE SMOOTH",
"553 807 LINE",
"553 1143 LINE"
);
}
);
width = 1294;
}
);
note = P;
unicode = 0050;
},
{
glyphname = Q;
lastChange = "2017-06-04 18:43:55 +0000";
layers = (
{
anchors = (
{
name = bottom;
position = "{816, 0}";
},
{
name = top;
position = "{816, 1462}";
}
);
layerId = "9722DBBA-DA2B-4164-95B3-8AF620E947BE";
paths = (
{
closed = 1;
nodes = (
"1526 1226 OFFCURVE",
"1282 1485 OFFCURVE",
"817 1485 CURVE SMOOTH",
"353 1485 OFFCURVE",
"104 1222 OFFCURVE",
"104 735 CURVE SMOOTH",
"104 243 OFFCURVE",
"356 -20 OFFCURVE",
"815 -20 CURVE",
"816 -21 LINE",
"816 -22 LINE",
"817 -23 LINE",
"1075 -348 LINE",
"1567 -348 LINE",
"1210 63 LINE",
"1421 178 OFFCURVE",
"1526 402 OFFCURVE",
"1526 733 CURVE SMOOTH"
);
},
{
closed = 1;
nodes = (
"520 1018 OFFCURVE",
"619 1161 OFFCURVE",
"817 1161 CURVE SMOOTH",
"1012 1161 OFFCURVE",
"1110 1025 OFFCURVE",
"1110 733 CURVE SMOOTH",
"1110 442 OFFCURVE",
"1015 309 OFFCURVE",
"815 309 CURVE SMOOTH",
"618 309 OFFCURVE",
"520 450 OFFCURVE",
"520 733 CURVE SMOOTH"
);
}
);
width = 1632;
}
);
note = Q;
unicode = 0051;
},
{
glyphname = R;
lastChange = "2017-06-04 18:43:55 +0000";
layers = (
{
anchors = (
{
name = bottom;
position = "{693, 0}";
},
{
name = top;
position = "{693, 1462}";
}
);
layerId = "9722DBBA-DA2B-4164-95B3-8AF620E947BE";
paths = (
{
closed = 1;
nodes = (
"963 0 LINE",
"1411 0 LINE",
"985 637 LINE",
"1150 730 OFFCURVE",
"1233 861 OFFCURVE",
"1233 1030 CURVE SMOOTH",
"1233 1318 OFFCURVE",
"1034 1462 OFFCURVE",
"637 1462 CURVE SMOOTH",
"158 1462 LINE",
"158 0 LINE",
"553 0 LINE",
"553 532 LINE",
"653 532 LINE"
);
},
{
closed = 1;
nodes = (
"631 1163 LINE SMOOTH",
"766 1163 OFFCURVE",
"834 1113 OFFCURVE",
"834 1012 CURVE SMOOTH",
"834 890 OFFCURVE",
"765 829 OFFCURVE",
"627 829 CURVE SMOOTH",
"553 829 LINE",
"553 1163 LINE"
);
}
);
width = 1386;
}
);
note = R;
unicode = 0052;
},
{
glyphname = S;
lastChange = "2017-06-04 18:43:55 +0000";
layers = (
{
anchors = (
{
name = bottom;
position = "{591, 0}";
},
{
name = top;
position = "{591, 1462}";
}
);
layerId = "9722DBBA-DA2B-4164-95B3-8AF620E947BE";
paths = (
{
closed = 1;
nodes = (
"1114 641 OFFCURVE",
"1030 759 OFFCURVE",
"778 872 CURVE SMOOTH",
"647 932 OFFCURVE",
"566 973 OFFCURVE",
"537 996 CURVE SMOOTH",
"507 1019 OFFCURVE",
"492 1044 OFFCURVE",
"492 1073 CURVE SMOOTH",
"492 1126 OFFCURVE",
"536 1167 OFFCURVE",
"639 1167 CURVE SMOOTH",
"738 1167 OFFCURVE",
"856 1136 OFFCURVE",
"993 1073 CURVE",
"1114 1378 LINE",
"957 1448 OFFCURVE",
"802 1483 OFFCURVE",
"651 1483 CURVE SMOOTH",
"308 1483 OFFCURVE",
"100 1324 OFFCURVE",
"100 1055 CURVE SMOOTH",
"100 983 OFFCURVE",
"112 921 OFFCURVE",
"135 868 CURVE SMOOTH",
"181 763 OFFCURVE",
"264 689 OFFCURVE",
"455 602 CURVE SMOOTH",
"560 555 OFFCURVE",
"625 523 OFFCURVE",
"650 508 CURVE SMOOTH",
"698 477 OFFCURVE",
"719 450 OFFCURVE",
"719 410 CURVE SMOOTH",
"719 346 OFFCURVE",
"666 301 OFFCURVE",
"549 301 CURVE SMOOTH",
"413 301 OFFCURVE",
"241 347 OFFCURVE",
"90 424 CURVE",
"90 72 LINE",
"233 4 OFFCURVE",
"346 -20 OFFCURVE",
"541 -20 CURVE SMOOTH",
"658 -20 OFFCURVE",
"759 0 OFFCURVE",
"846 39 CURVE SMOOTH",
"1019 117 OFFCURVE",
"1114 263 OFFCURVE",
"1114 444 CURVE SMOOTH"
);
}
);
width = 1182;
}
);
note = S;
unicode = 0053;
},
{
glyphname = T;
lastChange = "2017-06-04 18:43:55 +0000";
layers = (
{
anchors = (
{
name = bottom;
position = "{605, 0}";
},
{
name = center;
position = "{605, 731}";
},
{
name = top;
position = "{605, 1462}";
}
);
layerId = "9722DBBA-DA2B-4164-95B3-8AF620E947BE";
paths = (
{
closed = 1;
nodes = (
"1159 1139 LINE",
"1159 1462 LINE",
"51 1462 LINE",
"51 1139 LINE",
"408 1139 LINE",
"408 0 LINE",
"803 0 LINE",
"803 1139 LINE"
);
}
);
width = 1210;
}
);
note = T;
unicode = 0054;
},
{
glyphname = U;
lastChange = "2017-06-04 18:43:55 +0000";
layers = (
{
anchors = (
{
name = bottom;
position = "{775, 0}";
},
{
name = ogonek;
position = "{1395, 10}";
},
{
name = top;
position = "{775, 1462}";
},
{
name = topright;
position = "{1530, 1462}";
}
);
layerId = "9722DBBA-DA2B-4164-95B3-8AF620E947BE";
paths = (
{
closed = 1;
nodes = (
"1006 606 LINE SMOOTH",
"1006 395 OFFCURVE",
"937 309 OFFCURVE",
"776 309 CURVE SMOOTH",
"625 309 OFFCURVE",
"547 397 OFFCURVE",
"547 604 CURVE SMOOTH",
"547 1462 LINE",
"150 1462 LINE",
"150 573 LINE SMOOTH",
"150 190 OFFCURVE",
"371 -20 OFFCURVE",
"770 -20 CURVE SMOOTH",
"1178 -20 OFFCURVE",
"1401 199 OFFCURVE",
"1401 582 CURVE SMOOTH",
"1401 1462 LINE",
"1006 1462 LINE"
);
}
);
width = 1550;
}
);
note = U;
unicode = 0055;
},
{
glyphname = V;
lastChange = "2017-06-04 18:43:55 +0000";
layers = (
{
anchors = (
{
name = bottom;
position = "{711, 0}";
},
{
name = top;
position = "{711, 1462}";
}
);
layerId = "9722DBBA-DA2B-4164-95B3-8AF620E947BE";
paths = (
{
closed = 1;
nodes = (
"755 637 OFFCURVE",
"720 470 OFFCURVE",
"711 377 CURVE",
"707 442 OFFCURVE",
"684 556 OFFCURVE",
"643 721 CURVE SMOOTH",
"444 1462 LINE",
"0 1462 LINE",
"477 0 LINE",
"942 0 LINE",
"1421 1462 LINE",
"979 1462 LINE",
"776 717 LINE SMOOTH"
);
}
);
width = 1421;
}
);
note = V;
unicode = 0056;
},
{
glyphname = W;
lastChange = "2017-06-04 18:43:55 +0000";
layers = (
{
anchors = (
{
name = bottom;
position = "{1064, 0}";
},
{
name = top;
position = "{1064, 1462}";
}
);
layerId = "9722DBBA-DA2B-4164-95B3-8AF620E947BE";
paths = (
{
closed = 1;
nodes = (
"1716 1462 LINE",
"1554 727 LINE SMOOTH",
"1515 544 OFFCURVE",
"1492 416 OFFCURVE",
"1483 342 CURVE",
"1468 457 OFFCURVE",
"1417 732 OFFCURVE",
"1374 909 CURVE SMOOTH",
"1249 1462 LINE",
"883 1462 LINE",
"754 909 LINE SMOOTH",
"715 756 OFFCURVE",
"662 478 OFFCURVE",
"645 342 CURVE",
"632 438 OFFCURVE",
"607 567 OFFCURVE",
"571 729 CURVE SMOOTH",
"412 1462 LINE",
"31 1462 LINE",
"393 0 LINE",
"860 0 LINE",
"945 383 OFFCURVE",
"994 602 OFFCURVE",
"1006 656 CURVE SMOOTH",
"1029 764 OFFCURVE",
"1056 908 OFFCURVE",
"1067 995 CURVE",
"1080 888 OFFCURVE",
"1117 690 OFFCURVE",
"1130 637 CURVE SMOOTH",
"1270 0 LINE",
"1737 0 LINE",
"2097 1462 LINE"
);
}
);
width = 2128;
}
);
note = W;
unicode = 0057;
},
{
glyphname = X;
lastChange = "2017-06-04 18:43:55 +0000";
layers = (
{
anchors = (
{
name = bottom;
position = "{741, 0}";
},
{
name = top;
position = "{741, 1462}";
}
);
layerId = "9722DBBA-DA2B-4164-95B3-8AF620E947BE";
paths = (
{
closed = 1;
nodes = (
"1440 1462 LINE",
"989 1462 LINE",
"735 1010 LINE",
"471 1462 LINE",
"33 1462 LINE",
"489 748 LINE",
"4 0 LINE",
"451 0 LINE",
"733 457 LINE",
"1018 0 LINE",
"1475 0 LINE",
"977 717 LINE"
);
}
);
width = 1481;
}
);
note = X;
unicode = 0058;
},
{
glyphname = Y;
lastChange = "2017-06-04 18:43:55 +0000";
layers = (
{
anchors = (
{
name = bottom;
position = "{680, 0}";
},
{
name = top;
position = "{680, 1462}";
},
{
name = topleft;
position = "{20, 1462}";
}
);
layerId = "9722DBBA-DA2B-4164-95B3-8AF620E947BE";
paths = (
{
closed = 1;
nodes = (
"0 1462 LINE",
"481 559 LINE",
"481 0 LINE",
"879 0 LINE",
"879 571 LINE",
"1360 1462 LINE",
"932 1462 LINE",
"680 920 LINE",
"430 1462 LINE"
);
}
);
width = 1360;
}
);
note = Y;
unicode = 0059;
},
{
glyphname = Z;
lastChange = "2017-06-04 18:43:55 +0000";
layers = (
{
anchors = (
{
name = bottom;
position = "{626, 0}";
},
{
name = top;
position = "{626, 1462}";
}
);
layerId = "9722DBBA-DA2B-4164-95B3-8AF620E947BE";
paths = (
{
closed = 1;
nodes = (
"551 319 LINE",
"1184 1219 LINE",
"1184 1462 LINE",
"76 1462 LINE",
"76 1143 LINE",
"694 1143 LINE",
"61 244 LINE",
"61 0 LINE",
"1200 0 LINE",
"1200 319 LINE"
);
}
);
width = 1251;
}
);
note = Z;
unicode = 005A;
},
{
glyphname = bracketleft;
lastChange = "2017-04-22 21:00:22 +0000";
layers = (
{
layerId = "9722DBBA-DA2B-4164-95B3-8AF620E947BE";
paths = (
{
closed = 1;
nodes = (
"434 -90 LINE",
"434 1249 LINE",
"616 1249 LINE",
"616 1503 LINE",
"117 1503 LINE",
"117 -344 LINE",
"616 -344 LINE",
"616 -90 LINE"
);
}
);
width = 664;
}
);
note = bracketleft;
unicode = 005B;
},
{
glyphname = backslash;
lastChange = "2017-04-22 21:00:22 +0000";
layers = (
{
layerId = "9722DBBA-DA2B-4164-95B3-8AF620E947BE";
paths = (
{
closed = 1;
nodes = (
"551 -20 LINE",
"897 -20 LINE",
"352 1483 LINE",
"6 1483 LINE"
);
}
);
width = 905;
}
);
note = backslash;
unicode = 005C;
},
{
glyphname = bracketright;
lastChange = "2017-04-22 21:00:22 +0000";
layers = (
{
layerId = "9722DBBA-DA2B-4164-95B3-8AF620E947BE";
paths = (
{
closed = 1;
nodes = (
"547 -344 LINE",
"547 1503 LINE",
"47 1503 LINE",
"47 1249 LINE",
"229 1249 LINE",
"229 -90 LINE",
"47 -90 LINE",
"47 -344 LINE"
);
}
);
width = 664;
}
);
note = bracketright;
unicode = 005D;
},
{
glyphname = asciicircum;
lastChange = "2017-04-22 21:00:22 +0000";
layers = (
{
layerId = "9722DBBA-DA2B-4164-95B3-8AF620E947BE";
paths = (
{
closed = 1;
nodes = (
"394 788 LINE",
"518 1079 LINE",
"807 502 LINE",
"1102 502 LINE",
"594 1468 LINE",
"424 1468 LINE",
"-16 502 LINE",
"270 502 LINE"
);
}
);
width = 1075;
}
);
note = asciicircum;
unicode = 005E;
},
{
glyphname = underscore;
lastChange = "2017-04-22 21:00:22 +0000";
layers = (
{
layerId = "9722DBBA-DA2B-4164-95B3-8AF620E947BE";
paths = (
{
closed = 1;
nodes = (
"-4 -133 LINE",
"-4 -379 LINE",
"1028 -379 LINE",
"1028 -133 LINE"
);
}
);
width = 1024;
}
);
note = underscore;
unicode = 005F;
},
{
glyphname = grave;
lastChange = "2017-04-22 21:00:22 +0000";
layers = (
{
layerId = "9722DBBA-DA2B-4164-95B3-8AF620E947BE";
paths = (
{
closed = 1;
nodes = (
"956 1270 LINE",
"897 1336 LINE SMOOTH",
"796 1445 OFFCURVE",
"729 1522 OFFCURVE",
"694 1569 CURVE",
"264 1569 LINE",
"264 1548 LINE",
"389 1449 OFFCURVE",
"604 1300 OFFCURVE",
"696 1241 CURVE",
"956 1241 LINE"
);
}
);
width = 1225;
}
);
note = grave;
unicode = 0060;
},
{
glyphname = a;
lastChange = "2017-06-04 22:32:18 +0000";
layers = (
{
anchors = (
{
name = bottom;
position = "{638, 0}";
},
{
name = ogonek;
position = "{1148, 10}";
},
{
name = top;
position = "{638, 1133}";
}
);
layerId = "9722DBBA-DA2B-4164-95B3-8AF620E947BE";
paths = (
{
closed = 1;
nodes = (
"1145 743 LINE SMOOTH",
"1145 1002 OFFCURVE",
"979 1153 OFFCURVE",
"688 1153 CURVE SMOOTH",
"487 1153 OFFCURVE",
"320 1119 OFFCURVE",
"188 1051 CURVE",
"301 793 LINE",
"428 849 OFFCURVE",
"533 877 OFFCURVE",
"616 877 CURVE SMOOTH",
"708 877 OFFCURVE",
"754 830 OFFCURVE",
"754 737 CURVE SMOOTH",
"754 721 LINE",
"565 715 LINE SMOOTH",
"246 700 OFFCURVE",
"74 587 OFFCURVE",
"74 346 CURVE SMOOTH",
"74 114 OFFCURVE",
"205 -20 OFFCURVE",
"418 -20 CURVE SMOOTH",
"591 -20 OFFCURVE",
"686 19 OFFCURVE",
"791 150 CURVE",
"799 150 LINE",
"874 0 LINE",
"1145 0 LINE"
);
},
{
closed = 1;
nodes = (
"510 256 OFFCURVE",
"473 291 OFFCURVE",
"473 360 CURVE SMOOTH",
"473 450 OFFCURVE",
"537 497 OFFCURVE",
"666 502 CURVE SMOOTH",
"756 506 LINE",
"756 418 LINE SMOOTH",
"756 322 OFFCURVE",
"679 256 OFFCURVE",
"584 256 CURVE SMOOTH"
);
}
);
width = 1276;
}
);
note = a;
unicode = 0061;
},
{
glyphname = b;
lastChange = "2017-06-04 18:43:55 +0000";
layers = (
{
anchors = (
{
name = bottom;
position = "{659, 0}";
},
{
name = top;
position = "{659, 1133}";
}
);
layerId = "9722DBBA-DA2B-4164-95B3-8AF620E947BE";
paths = (
{
closed = 1;
nodes = (
"700 1153 OFFCURVE",
"602 1104 OFFCURVE",
"526 987 CURVE",
"512 987 LINE",
"521 1090 OFFCURVE",
"526 1162 OFFCURVE",
"526 1204 CURVE SMOOTH",
"526 1556 LINE",
"135 1556 LINE",
"135 0 LINE",
"440 0 LINE",
"502 111 LINE",
"526 111 LINE",
"560 74 OFFCURVE",
"590 47 OFFCURVE",
"616 31 CURVE SMOOTH",
"667 -1 OFFCURVE",
"731 -20 OFFCURVE",
"815 -20 CURVE SMOOTH",
"1075 -20 OFFCURVE",
"1229 201 OFFCURVE",
"1229 569 CURVE SMOOTH",
"1229 934 OFFCURVE",
"1074 1153 OFFCURVE",
"827 1153 CURVE SMOOTH"
);
},
{
closed = 1;
nodes = (
"782 846 OFFCURVE",
"831 755 OFFCURVE",
"831 573 CURVE SMOOTH",
"831 390 OFFCURVE",
"780 295 OFFCURVE",
"688 295 CURVE SMOOTH",
"573 295 OFFCURVE",
"526 370 OFFCURVE",
"526 555 CURVE SMOOTH",
"526 610 LINE SMOOTH",
"526 773 OFFCURVE",
"575 846 OFFCURVE",
"684 846 CURVE SMOOTH"
);
}
);
width = 1317;
}
);
note = b;
unicode = 0062;
},
{
glyphname = c;
lastChange = "2017-06-04 19:05:19 +0000";
layers = (
{
anchors = (
{
name = bottom;
position = "{646, 0}";
},
{
name = top;
position = "{646, 1133}";
}
);
layerId = "9722DBBA-DA2B-4164-95B3-8AF620E947BE";
paths = (
{
closed = 1;
nodes = (
"792 -20 OFFCURVE",
"913 13 OFFCURVE",
"1014 80 CURVE",
"1014 391 LINE",
"909 324 OFFCURVE",
"799 291 OFFCURVE",
"684 291 CURVE SMOOTH",
"550 291 OFFCURVE",
"483 382 OFFCURVE",
"483 563 CURVE SMOOTH",
"483 743 OFFCURVE",
"555 846 OFFCURVE",
"682 846 CURVE SMOOTH",
"769 846 OFFCURVE",
"843 819 OFFCURVE",
"938 778 CURVE",
"1053 1067 LINE",
"937 1124 OFFCURVE",
"813 1153 OFFCURVE",
"682 1153 CURVE SMOOTH",
"301 1153 OFFCURVE",
"86 937 OFFCURVE",
"86 561 CURVE SMOOTH",
"86 186 OFFCURVE",
"280 -20 OFFCURVE",
"651 -20 CURVE SMOOTH"
);
}
);
width = 1104;
}
);
note = c;
unicode = 0063;
},
{
glyphname = d;
lastChange = "2017-06-04 18:43:55 +0000";
layers = (
{
anchors = (
{
name = bottom;
position = "{659, 0}";
},
{
name = center;
position = "{659, 567}";
},
{
name = top;
position = "{659, 1133}";
},
{
name = topright;
position = "{1297, 1133}";
}
);
layerId = "9722DBBA-DA2B-4164-95B3-8AF620E947BE";
paths = (
{
closed = 1;
nodes = (
"620 -20 OFFCURVE",
"721 34 OFFCURVE",
"788 143 CURVE",
"803 143 LINE",
"887 0 LINE",
"1182 0 LINE",
"1182 1556 LINE",
"788 1556 LINE",
"788 1253 LINE SMOOTH",
"788 1164 OFFCURVE",
"794 1076 OFFCURVE",
"807 987 CURVE",
"799 987 LINE",
"720 1107 OFFCURVE",
"629 1153 OFFCURVE",
"502 1153 CURVE SMOOTH",
"243 1153 OFFCURVE",
"86 933 OFFCURVE",
"86 565 CURVE SMOOTH",
"86 446 OFFCURVE",
"103 341 OFFCURVE",
"136 252 CURVE SMOOTH",
"202 73 OFFCURVE",
"326 -20 OFFCURVE",
"487 -20 CURVE SMOOTH"
);
},
{
closed = 1;
nodes = (
"540 289 OFFCURVE",
"481 383 OFFCURVE",
"481 559 CURVE SMOOTH",
"481 738 OFFCURVE",
"540 838 OFFCURVE",
"643 838 CURVE SMOOTH",
"766 838 OFFCURVE",
"821 761 OFFCURVE",
"821 561 CURVE SMOOTH",
"821 530 LINE SMOOTH",
"817 366 OFFCURVE",
"772 289 OFFCURVE",
"647 289 CURVE SMOOTH"
);
}
);
width = 1317;
}
);
note = d;
unicode = 0064;
},
{
glyphname = e;
lastChange = "2017-06-04 22:25:28 +0000";
layers = (
{
anchors = (
{
name = bottom;
position = "{633, 0}";
},
{
name = ogonek;
position = "{1139, 10}";
},
{
name = top;
position = "{633, 1133}";
}
);
layerId = "9722DBBA-DA2B-4164-95B3-8AF620E947BE";
paths = (
{
closed = 1;
nodes = (
"863 -20 OFFCURVE",
"983 0 OFFCURVE",
"1106 63 CURVE",
"1106 344 LINE",
"971 281 OFFCURVE",
"866 258 OFFCURVE",
"729 258 CURVE SMOOTH",
"578 258 OFFCURVE",
"486 334 OFFCURVE",
"481 461 CURVE",
"1180 461 LINE",
"1180 635 LINE SMOOTH",
"1180 970 OFFCURVE",
"986 1153 OFFCURVE",
"645 1153 CURVE SMOOTH",
"286 1153 OFFCURVE",
"86 942 OFFCURVE",
"86 559 CURVE SMOOTH",
"86 188 OFFCURVE",
"305 -20 OFFCURVE",
"682 -20 CURVE SMOOTH"
);
},
{
closed = 1;
nodes = (
"759 887 OFFCURVE",
"822 816 OFFCURVE",
"825 707 CURVE",
"489 707 LINE",
"500 831 OFFCURVE",
"567 887 OFFCURVE",
"659 887 CURVE SMOOTH"
);
}
);
width = 1266;
}
);
note = e;
unicode = 0065;
},
{
glyphname = f;
lastChange = "2017-06-04 18:43:55 +0000";
layers = (
{
anchors = (
{
name = bottom;
position = "{423, 0}";
},
{
name = top;
position = "{423, 1133}";
}
);
layerId = "9722DBBA-DA2B-4164-95B3-8AF620E947BE";
paths = (
{
closed = 1;
nodes = (
"586 1133 LINE",
"586 1163 LINE SMOOTH",
"586 1246 OFFCURVE",
"612 1280 OFFCURVE",
"672 1280 CURVE SMOOTH",
"718 1280 OFFCURVE",
"765 1273 OFFCURVE",
"813 1260 CURVE",
"897 1513 LINE",
"774 1553 OFFCURVE",
"692 1567 OFFCURVE",
"588 1567 CURVE SMOOTH",
"319 1567 OFFCURVE",
"203 1446 OFFCURVE",
"203 1147 CURVE SMOOTH",
"203 1128 LINE",
"45 1032 LINE",
"45 840 LINE",
"195 840 LINE",
"195 0 LINE",
"586 0 LINE",
"586 840 LINE",
"827 840 LINE",
"827 1133 LINE"
);
}
);
width = 846;
}
);
note = f;
unicode = 0066;
},
{
glyphname = g;
lastChange = "2017-06-04 18:43:55 +0000";
layers = (
{
anchors = (
{
name = bottom;
position = "{621, 0}";
},
{
name = top;
position = "{621, 1133}";
}
);
layerId = "9722DBBA-DA2B-4164-95B3-8AF620E947BE";
paths = (
{
closed = 1;
nodes = (
"761 1141 OFFCURVE",
"631 1153 OFFCURVE",
"590 1153 CURVE SMOOTH",
"278 1153 OFFCURVE",
"104 1011 OFFCURVE",
"104 764 CURVE SMOOTH",
"104 605 OFFCURVE",
"176 492 OFFCURVE",
"293 440 CURVE",
"170 365 OFFCURVE",
"143 321 OFFCURVE",
"143 250 CURVE SMOOTH",
"143 186 OFFCURVE",
"203 111 OFFCURVE",
"272 82 CURVE",
"104 43 OFFCURVE",
"20 -45 OFFCURVE",
"20 -180 CURVE SMOOTH",
"20 -381 OFFCURVE",
"201 -492 OFFCURVE",
"522 -492 CURVE SMOOTH",
"947 -492 OFFCURVE",
"1194 -331 OFFCURVE",
"1194 -55 CURVE SMOOTH",
"1194 159 OFFCURVE",
"1067 266 OFFCURVE",
"813 266 CURVE SMOOTH",
"625 266 LINE SMOOTH",
"574 266 OFFCURVE",
"533 271 OFFCURVE",
"502 282 CURVE SMOOTH",
"471 292 OFFCURVE",
"455 307 OFFCURVE",
"455 326 CURVE SMOOTH",
"455 341 OFFCURVE",
"460 358 OFFCURVE",
"469 375 CURVE",
"494 370 OFFCURVE",
"527 367 OFFCURVE",
"569 367 CURVE SMOOTH",
"909 367 OFFCURVE",
"1081 508 OFFCURVE",
"1081 752 CURVE SMOOTH",
"1081 803 OFFCURVE",
"1070 848 OFFCURVE",
"1049 887 CURVE",
"1204 944 LINE",
"1204 1133 LINE",
"809 1133 LINE"
);
},
{
closed = 1;
nodes = (
"350 -84 OFFCURVE",
"416 -39 OFFCURVE",
"500 -39 CURVE SMOOTH",
"653 -39 LINE SMOOTH",
"718 -39 OFFCURVE",
"767 -45 OFFCURVE",
"802 -57 CURVE SMOOTH",
"837 -70 OFFCURVE",
"854 -91 OFFCURVE",
"854 -121 CURVE SMOOTH",
"854 -158 OFFCURVE",
"826 -189 OFFCURVE",
"769 -212 CURVE SMOOTH",
"712 -236 OFFCURVE",
"636 -248 OFFCURVE",
"541 -248 CURVE SMOOTH",
"425 -248 OFFCURVE",
"350 -205 OFFCURVE",
"350 -141 CURVE SMOOTH"
);
},
{
closed = 1;
nodes = (
"473 878 OFFCURVE",
"513 936 OFFCURVE",
"594 936 CURVE SMOOTH",
"672 936 OFFCURVE",
"711 877 OFFCURVE",
"711 760 CURVE SMOOTH",
"711 645 OFFCURVE",
"669 588 OFFCURVE",
"594 588 CURVE SMOOTH",
"513 588 OFFCURVE",
"473 646 OFFCURVE",
"473 762 CURVE SMOOTH"
);
}
);
width = 1241;
}
);
note = g;
unicode = 0067;
},
{
glyphname = h;
lastChange = "2017-06-04 18:43:55 +0000";
layers = (
{
anchors = (
{
name = bottom;
position = "{686, 0}";
},
{
name = center;
position = "{686, 567}";
},
{
name = top;
position = "{686, 1133}";
}
);
layerId = "9722DBBA-DA2B-4164-95B3-8AF620E947BE";
paths = (
{
closed = 1;
nodes = (
"1241 737 LINE SMOOTH",
"1241 1000 OFFCURVE",
"1093 1153 OFFCURVE",
"840 1153 CURVE SMOOTH",
"704 1153 OFFCURVE",
"603 1110 OFFCURVE",
"528 993 CURVE",
"510 993 LINE",
"521 1121 OFFCURVE",
"526 1235 OFFCURVE",
"526 1335 CURVE SMOOTH",
"526 1556 LINE",
"135 1556 LINE",
"135 0 LINE",
"526 0 LINE",
"526 498 LINE SMOOTH",
"526 747 OFFCURVE",
"585 846 OFFCURVE",
"713 846 CURVE SMOOTH",
"803 846 OFFCURVE",
"848 770 OFFCURVE",
"848 618 CURVE SMOOTH",
"848 0 LINE",
"1241 0 LINE"
);
}
);
width = 1372;
}
);
note = h;
unicode = 0068;
},
{
glyphname = i;
lastChange = "2017-06-04 22:09:10 +0000";
layers = (
{
anchors = (
{
name = bottom;
position = "{333, 0}";
}
);
layerId = "9722DBBA-DA2B-4164-95B3-8AF620E947BE";
paths = (
{
closed = 1;
nodes = (
"137 1133 LINE",
"137 0 LINE",
"528 0 LINE",
"528 1133 LINE"
);
},
{
closed = 1;
nodes = (
"127 1300 OFFCURVE",
"196 1243 OFFCURVE",
"334 1243 CURVE SMOOTH",
"473 1243 OFFCURVE",
"543 1300 OFFCURVE",
"543 1415 CURVE SMOOTH",
"543 1530 OFFCURVE",
"479 1589 OFFCURVE",
"334 1589 CURVE SMOOTH",
"189 1589 OFFCURVE",
"127 1532 OFFCURVE",
"127 1415 CURVE SMOOTH"
);
}
);
width = 666;
}
);
note = i;
unicode = 0069;
},
{
glyphname = j;
lastChange = "2017-05-01 02:09:41 +0000";
layers = (
{
layerId = "9722DBBA-DA2B-4164-95B3-8AF620E947BE";
paths = (
{
closed = 1;
nodes = (
"374 -492 OFFCURVE",
"526 -341 OFFCURVE",
"526 -92 CURVE SMOOTH",
"526 1133 LINE",
"135 1133 LINE",
"135 -10 LINE SMOOTH",
"135 -123 OFFCURVE",
"95 -180 OFFCURVE",
"16 -180 CURVE SMOOTH",
"-21 -180 OFFCURVE",
"-61 -174 OFFCURVE",
"-104 -162 CURVE",
"-104 -467 LINE",
"-55 -480 OFFCURVE",
"42 -492 OFFCURVE",
"106 -492 CURVE SMOOTH"
);
},
{
closed = 1;
nodes = (
"125 1300 OFFCURVE",
"194 1243 OFFCURVE",
"332 1243 CURVE SMOOTH",
"471 1243 OFFCURVE",
"541 1300 OFFCURVE",
"541 1415 CURVE SMOOTH",
"541 1530 OFFCURVE",
"477 1589 OFFCURVE",
"332 1589 CURVE SMOOTH",
"187 1589 OFFCURVE",
"125 1532 OFFCURVE",
"125 1415 CURVE SMOOTH"
);
}
);
width = 664;
}
);
note = j;
unicode = 006A;
},
{
glyphname = k;
lastChange = "2017-06-04 19:05:35 +0000";
layers = (
{
anchors = (
{
name = bottom;
position = "{675, 0}";
},
{
name = top;
position = "{864, 1133}";
}
);
layerId = "9722DBBA-DA2B-4164-95B3-8AF620E947BE";
paths = (
{
closed = 1;
nodes = (
"521 737 OFFCURVE",
"528 839 OFFCURVE",
"528 944 CURVE SMOOTH",
"528 1556 LINE",
"135 1556 LINE",
"135 0 LINE",
"528 0 LINE",
"528 309 LINE",
"655 406 LINE",
"903 0 LINE",
"1350 0 LINE",
"932 651 LINE",
"1325 1133 LINE",
"889 1133 LINE",
"635 813 LINE SMOOTH",
"602 771 OFFCURVE",
"561 712 OFFCURVE",
"514 637 CURVE",
"506 637 LINE"
);
}
);
width = 1350;
}
);
note = k;
unicode = 006B;
},
{
glyphname = l;
lastChange = "2017-06-04 21:44:33 +0000";
layers = (
{
anchors = (
{
name = bottom;
position = "{331, 0}";
},
{
name = center;
position = "{331, 567}";
},
{
name = top;
position = "{787, 1133}";
},
{
name = topright;
position = "{642, 1133}";
}
);
layerId = "9722DBBA-DA2B-4164-95B3-8AF620E947BE";
paths = (
{
closed = 1;
nodes = (
"135 1556 LINE",
"135 0 LINE",
"526 0 LINE",
"526 1556 LINE"
);
}
);
width = 662;
}
);
note = l;
unicode = 006C;
},
{
glyphname = m;
lastChange = "2017-06-04 19:06:06 +0000";
layers = (
{
anchors = (
{
name = bottom;
position = "{1024, 0}";
},
{
name = top;
position = "{1153, 1133}";
}
);
layerId = "9722DBBA-DA2B-4164-95B3-8AF620E947BE";
paths = (
{
closed = 1;
nodes = (
"1917 737 LINE SMOOTH",
"1917 1017 OFFCURVE",
"1792 1153 OFFCURVE",
"1524 1153 CURVE SMOOTH",
"1387 1153 OFFCURVE",
"1266 1097 OFFCURVE",
"1202 1004 CURVE",
"1171 1004 LINE",
"1105 1103 OFFCURVE",
"990 1153 OFFCURVE",
"827 1153 CURVE SMOOTH",
"682 1153 OFFCURVE",
"562 1097 OFFCURVE",
"502 993 CURVE",
"479 993 LINE",
"430 1133 LINE",
"135 1133 LINE",
"135 0 LINE",
"526 0 LINE",
"526 496 LINE SMOOTH",
"526 744 OFFCURVE",
"579 846 OFFCURVE",
"702 846 CURVE SMOOTH",
"791 846 OFFCURVE",
"829 769 OFFCURVE",
"829 616 CURVE SMOOTH",
"829 0 LINE",
"1221 0 LINE",
"1221 528 LINE SMOOTH",
"1221 747 OFFCURVE",
"1275 846 OFFCURVE",
"1395 846 CURVE SMOOTH",
"1486 846 OFFCURVE",
"1526 769 OFFCURVE",
"1526 616 CURVE SMOOTH",
"1526 0 LINE",
"1917 0 LINE"
);
}
);
width = 2048;
}
);
note = m;
unicode = 006D;
},
{
glyphname = n;
lastChange = "2017-06-04 18:43:55 +0000";
layers = (
{
anchors = (
{
name = bottom;
position = "{686, 0}";
},
{
name = top;
position = "{686, 1133}";
}
);
layerId = "9722DBBA-DA2B-4164-95B3-8AF620E947BE";
paths = (
{
closed = 1;
nodes = (
"1241 737 LINE SMOOTH",
"1241 1001 OFFCURVE",
"1095 1153 OFFCURVE",
"844 1153 CURVE SMOOTH",
"691 1153 OFFCURVE",
"569 1100 OFFCURVE",
"502 993 CURVE",
"479 993 LINE",
"430 1133 LINE",
"135 1133 LINE",
"135 0 LINE",
"526 0 LINE",
"526 496 LINE SMOOTH",
"526 752 OFFCURVE",
"581 846 OFFCURVE",
"713 846 CURVE SMOOTH",
"809 846 OFFCURVE",
"850 769 OFFCURVE",
"850 618 CURVE SMOOTH",
"850 0 LINE",
"1241 0 LINE"
);
}
);
width = 1372;
}
);
note = n;
unicode = 006E;
},
{
glyphname = o;
lastChange = "2017-06-04 18:43:55 +0000";
layers = (
{
anchors = (
{
name = bottom;
position = "{653, 0}";
},
{
name = center;
position = "{653, 567}";
},
{
name = ogonek;
position = "{1174, 10}";
},
{
name = top;
position = "{653, 1133}";
},
{
name = topright;
position = "{1285, 1133}";
}
);
layerId = "9722DBBA-DA2B-4164-95B3-8AF620E947BE";
paths = (
{
closed = 1;
nodes = (
"1217 687 OFFCURVE",
"1194 790 OFFCURVE",
"1148 879 CURVE SMOOTH",
"1055 1055 OFFCURVE",
"878 1153 OFFCURVE",
"655 1153 CURVE SMOOTH",
"295 1153 OFFCURVE",
"86 938 OFFCURVE",
"86 569 CURVE SMOOTH",
"86 208 OFFCURVE",
"305 -20 OFFCURVE",
"649 -20 CURVE SMOOTH",
"1008 -20 OFFCURVE",
"1217 198 OFFCURVE",
"1217 569 CURVE SMOOTH"
);
},
{
closed = 1;
nodes = (
"483 764 OFFCURVE",
"531 862 OFFCURVE",
"651 862 CURVE SMOOTH",
"774 862 OFFCURVE",
"819 762 OFFCURVE",
"819 569 CURVE SMOOTH",
"819 374 OFFCURVE",
"774 270 OFFCURVE",
"653 270 CURVE SMOOTH",
"530 270 OFFCURVE",
"483 374 OFFCURVE",
"483 569 CURVE SMOOTH"
);
}
);
width = 1305;
}
);
note = o;
unicode = 006F;
},
{
glyphname = p;
lastChange = "2017-06-04 18:43:55 +0000";
layers = (
{
anchors = (
{
name = bottom;
position = "{659, 0}";
},
{
name = top;
position = "{659, 1133}";
}
);
layerId = "9722DBBA-DA2B-4164-95B3-8AF620E947BE";
paths = (
{
closed = 1;
nodes = (
"1070 -20 OFFCURVE",
"1229 204 OFFCURVE",
"1229 569 CURVE SMOOTH",
"1229 932 OFFCURVE",
"1078 1153 OFFCURVE",
"827 1153 CURVE SMOOTH",
"699 1153 OFFCURVE",
"599 1098 OFFCURVE",
"526 989 CURVE",
"508 989 LINE",
"453 1133 LINE",
"135 1133 LINE",
"135 -492 LINE",
"526 -492 LINE",
"526 -37 LINE SMOOTH",
"526 -18 OFFCURVE",
"520 32 OFFCURVE",
"508 111 CURVE",
"526 111 LINE",
"615 12 OFFCURVE",
"700 -20 OFFCURVE",
"815 -20 CURVE SMOOTH"
);
},
{
closed = 1;
nodes = (
"789 846 OFFCURVE",
"831 768 OFFCURVE",
"831 573 CURVE SMOOTH",
"831 374 OFFCURVE",
"788 295 OFFCURVE",
"688 295 CURVE SMOOTH",
"576 295 OFFCURVE",
"526 376 OFFCURVE",
"526 571 CURVE SMOOTH",
"526 602 LINE SMOOTH",
"530 763 OFFCURVE",
"569 846 OFFCURVE",
"684 846 CURVE SMOOTH"
);
}
);
width = 1317;
}
);
note = p;
unicode = 0070;
},
{
glyphname = q;
lastChange = "2017-06-04 21:08:48 +0000";
layers = (
{
anchors = (
{
name = bottom;
position = "{659, 0}";
},
{
name = top;
position = "{788, 1133}";
}
);
layerId = "9722DBBA-DA2B-4164-95B3-8AF620E947BE";
paths = (
{
closed = 1;
nodes = (
"627 -20 OFFCURVE",
"727 34 OFFCURVE",
"791 143 CURVE",
"803 143 LINE",
"795 55 OFFCURVE",
"791 0 OFFCURVE",
"791 -23 CURVE SMOOTH",
"791 -492 LINE",
"1182 -492 LINE",
"1182 1133 LINE",
"844 1133 LINE",
"815 993 LINE",
"807 993 LINE",
"738 1100 OFFCURVE",
"635 1153 OFFCURVE",
"498 1153 CURVE SMOOTH",
"243 1153 OFFCURVE",
"86 933 OFFCURVE",
"86 565 CURVE SMOOTH",
"86 201 OFFCURVE",
"239 -20 OFFCURVE",
"492 -20 CURVE SMOOTH"
);
},
{
closed = 1;
nodes = (
"536 283 OFFCURVE",
"483 362 OFFCURVE",
"483 559 CURVE SMOOTH",
"483 753 OFFCURVE",
"537 850 OFFCURVE",
"645 850 CURVE SMOOTH",
"770 850 OFFCURVE",
"821 771 OFFCURVE",
"821 571 CURVE SMOOTH",
"821 524 LINE SMOOTH",
"821 349 OFFCURVE",
"770 283 OFFCURVE",
"651 283 CURVE SMOOTH"
);
}
);
width = 1317;
}
);
note = q;
unicode = 0071;
},
{
glyphname = r;
lastChange = "2017-06-04 18:43:55 +0000";
layers = (
{
anchors = (
{
name = bottom;
position = "{481, 0}";
},
{
name = top;
position = "{481, 1133}";
}
);
layerId = "9722DBBA-DA2B-4164-95B3-8AF620E947BE";
paths = (
{
closed = 1;
nodes = (
"700 1153 OFFCURVE",
"571 1072 OFFCURVE",
"506 952 CURVE",
"487 952 LINE",
"426 1133 LINE",
"135 1133 LINE",
"135 0 LINE",
"526 0 LINE",
"526 557 LINE SMOOTH",
"526 704 OFFCURVE",
"599 784 OFFCURVE",
"770 784 CURVE SMOOTH",
"827 784 OFFCURVE",
"871 780 OFFCURVE",
"903 772 CURVE",
"938 1141 LINE",
"916 1145 LINE SMOOTH",
"885 1150 OFFCURVE",
"853 1153 OFFCURVE",
"819 1153 CURVE SMOOTH"
);
}
);
width = 961;
}
);
note = r;
unicode = 0072;
},
{
glyphname = s;
lastChange = "2017-06-04 18:43:55 +0000";
layers = (
{
anchors = (
{
name = bottom;
position = "{546, 0}";
},
{
name = top;
position = "{546, 1133}";
}
);
layerId = "9722DBBA-DA2B-4164-95B3-8AF620E947BE";
paths = (
{
closed = 1;
nodes = (
"1010 409 OFFCURVE",
"1001 460 OFFCURVE",
"983 503 CURVE SMOOTH",
"946 587 OFFCURVE",
"878 644 OFFCURVE",
"719 709 CURVE SMOOTH",
"612 751 OFFCURVE",
"548 779 OFFCURVE",
"526 793 CURVE",
"503 806 OFFCURVE",
"492 823 OFFCURVE",
"492 842 CURVE SMOOTH",
"492 873 OFFCURVE",
"524 889 OFFCURVE",
"588 889 CURVE SMOOTH",
"661 889 OFFCURVE",
"791 852 OFFCURVE",
"895 805 CURVE",
"1001 1057 LINE",
"860 1120 OFFCURVE",
"735 1153 OFFCURVE",
"586 1153 CURVE SMOOTH",
"289 1153 OFFCURVE",
"119 1030 OFFCURVE",
"119 819 CURVE SMOOTH",
"119 652 OFFCURVE",
"191 552 OFFCURVE",
"399 467 CURVE SMOOTH",
"513 422 OFFCURVE",
"582 391 OFFCURVE",
"606 376 CURVE",
"629 360 OFFCURVE",
"641 342 OFFCURVE",
"641 322 CURVE SMOOTH",
"641 283 OFFCURVE",
"599 264 OFFCURVE",
"514 264 CURVE SMOOTH",
"401 264 OFFCURVE",
"242 303 OFFCURVE",
"121 356 CURVE",
"121 43 LINE",
"250 -5 OFFCURVE",
"362 -20 OFFCURVE",
"530 -20 CURVE SMOOTH",
"839 -20 OFFCURVE",
"1010 105 OFFCURVE",
"1010 348 CURVE SMOOTH"
);
}
);
width = 1092;
}
);
note = s;
unicode = 0073;
},
{
glyphname = t;
lastChange = "2017-06-04 22:16:33 +0000";
layers = (
{
anchors = (
{
name = bottom;
position = "{571, 0}";
},
{
name = center;
position = "{471, 567}";
},
{
name = top;
position = "{841, 1133}";
},
{
name = topright;
position = "{922, 1133}";
}
);
layerId = "9722DBBA-DA2B-4164-95B3-8AF620E947BE";
paths = (
{
closed = 1;
nodes = (
"619 289 OFFCURVE",
"584 326 OFFCURVE",
"584 399 CURVE SMOOTH",
"584 840 LINE",
"862 840 LINE",
"862 1133 LINE",
"584 1133 LINE",
"584 1360 LINE",
"328 1360 LINE",
"227 1122 LINE",
"53 999 LINE",
"53 840 LINE",
"190 840 LINE",
"190 373 LINE SMOOTH",
"190 106 OFFCURVE",
"298 -20 OFFCURVE",
"561 -20 CURVE SMOOTH",
"689 -20 OFFCURVE",
"774 -2 OFFCURVE",
"879 43 CURVE",
"879 328 LINE",
"806 302 OFFCURVE",
"743 289 OFFCURVE",
"690 289 CURVE SMOOTH"
);
}
);
width = 942;
}
);
note = t;
unicode = 0074;
},
{
glyphname = u;
lastChange = "2017-06-04 18:43:55 +0000";
layers = (
{
anchors = (
{
name = bottom;
position = "{686, 0}";
},
{
name = ogonek;
position = "{1235, 10}";
},
{
name = top;
position = "{686, 1133}";
},
{
name = topright;
position = "{1352, 1133}";
}
);
layerId = "9722DBBA-DA2B-4164-95B3-8AF620E947BE";
paths = (
{
closed = 1;
nodes = (
"1237 1133 LINE",
"846 1133 LINE",
"846 637 LINE SMOOTH",
"846 385 OFFCURVE",
"794 289 OFFCURVE",
"659 289 CURVE SMOOTH",
"563 289 OFFCURVE",
"524 366 OFFCURVE",
"524 514 CURVE SMOOTH",
"524 1133 LINE",
"133 1133 LINE",
"133 395 LINE SMOOTH",
"133 131 OFFCURVE",
"279 -20 OFFCURVE",
"528 -20 CURVE SMOOTH",
"685 -20 OFFCURVE",
"805 37 OFFCURVE",
"870 141 CURVE",
"893 141 LINE",
"942 0 LINE",
"1237 0 LINE"
);
}
);
width = 1372;
}
);
note = u;
unicode = 0075;
},
{
glyphname = v;
lastChange = "2017-06-04 18:43:55 +0000";
layers = (
{
anchors = (
{
name = bottom;
position = "{626, 0}";
},
{
name = top;
position = "{626, 1133}";
}
);
layerId = "9722DBBA-DA2B-4164-95B3-8AF620E947BE";
paths = (
{
closed = 1;
nodes = (
"1251 1133 LINE",
"844 1133 LINE",
"643 461 LINE SMOOTH",
"631 420 OFFCURVE",
"625 383 OFFCURVE",
"625 348 CURVE",
"618 348 LINE",
"618 359 OFFCURVE",
"617 370 OFFCURVE",
"616 383 CURVE",
"612 407 OFFCURVE",
"608 430 OFFCURVE",
"604 446 CURVE SMOOTH",
"602 454 OFFCURVE",
"601 460 OFFCURVE",
"600 463 CURVE",
"408 1133 LINE",
"0 1133 LINE",
"432 0 LINE",
"819 0 LINE"
);
}
);
width = 1251;
}
);
note = v;
unicode = 0076;
},
{
glyphname = w;
lastChange = "2017-06-04 18:43:55 +0000";
layers = (
{
anchors = (
{
name = bottom;
position = "{932, 0}";
},
{
name = top;
position = "{932, 1133}";
}
);
layerId = "9722DBBA-DA2B-4164-95B3-8AF620E947BE";
paths = (
{
closed = 1;
nodes = (
"1839 1133 LINE",
"1462 1133 LINE",
"1362 698 LINE SMOOTH",
"1339 606 OFFCURVE",
"1319 427 OFFCURVE",
"1311 326 CURVE",
"1305 326 LINE",
"1297 408 OFFCURVE",
"1278 523 OFFCURVE",
"1247 670 CURVE SMOOTH",
"1151 1133 LINE",
"719 1133 LINE",
"614 676 LINE SMOOTH",
"579 504 OFFCURVE",
"561 387 OFFCURVE",
"559 326 CURVE",
"553 326 LINE",
"548 425 OFFCURVE",
"531 549 OFFCURVE",
"502 698 CURVE SMOOTH",
"410 1133 LINE",
"25 1133 LINE",
"334 0 LINE",
"745 0 LINE",
"860 481 LINE SMOOTH",
"871 530 OFFCURVE",
"893 647 OFFCURVE",
"926 834 CURVE",
"932 834 LINE",
"952 703 LINE",
"982 540 LINE",
"1110 0 LINE",
"1528 0 LINE"
);
}
);
width = 1864;
}
);
note = w;
unicode = 0077;
},
{
glyphname = x;
lastChange = "2017-06-04 18:43:55 +0000";
layers = (
{
anchors = (
{
name = bottom;
position = "{645, 0}";
},
{
name = top;
position = "{645, 1133}";
}
);
layerId = "9722DBBA-DA2B-4164-95B3-8AF620E947BE";
paths = (
{
closed = 1;
nodes = (
"455 0 LINE",
"645 344 LINE",
"836 0 LINE",
"1280 0 LINE",
"911 578 LINE",
"1266 1133 LINE",
"821 1133 LINE",
"645 815 LINE",
"473 1133 LINE",
"29 1133 LINE",
"375 578 LINE",
"10 0 LINE"
);
}
);
width = 1290;
}
);
note = x;
unicode = 0078;
},
{
glyphname = y;
lastChange = "2017-06-04 18:43:55 +0000";
layers = (
{
anchors = (
{
name = bottom;
position = "{625, 0}";
},
{
name = top;
position = "{625, 1133}";
}
);
layerId = "9722DBBA-DA2B-4164-95B3-8AF620E947BE";
paths = (
{
closed = 1;
nodes = (
"422 -39 OFFCURVE",
"401 -79 OFFCURVE",
"382 -103 CURVE SMOOTH",
"343 -152 OFFCURVE",
"292 -180 OFFCURVE",
"223 -180 CURVE SMOOTH",
"178 -180 OFFCURVE",
"137 -176 OFFCURVE",
"102 -168 CURVE",
"102 -475 LINE",
"157 -486 OFFCURVE",
"210 -492 OFFCURVE",
"262 -492 CURVE SMOOTH",
"531 -492 OFFCURVE",
"686 -379 OFFCURVE",
"801 -72 CURVE SMOOTH",
"1249 1133 LINE",
"850 1133 LINE",
"653 481 LINE SMOOTH",
"642 446 OFFCURVE",
"634 406 OFFCURVE",
"629 360 CURVE",
"621 360 LINE",
"618 408 OFFCURVE",
"611 449 OFFCURVE",
"602 483 CURVE SMOOTH",
"410 1133 LINE",
"-2 1133 LINE",
"444 16 LINE"
);
}
);
width = 1249;
}
);
note = y;
unicode = 0079;
},
{
glyphname = z;
lastChange = "2017-06-04 18:43:55 +0000";
layers = (
{
anchors = (
{
name = bottom;
position = "{519, 0}";
},
{
name = top;
position = "{519, 1133}";
}
);
layerId = "9722DBBA-DA2B-4164-95B3-8AF620E947BE";
paths = (
{
closed = 1;
nodes = (
"516 299 LINE",
"965 891 LINE",
"965 1133 LINE",
"76 1133 LINE",
"76 834 LINE",
"518 834 LINE",
"49 223 LINE",
"49 0 LINE",
"987 0 LINE",
"987 299 LINE"
);
}
);
width = 1038;
}
);
note = z;
unicode = 007A;
},
{
glyphname = braceleft;
lastChange = "2017-04-22 21:00:22 +0000";
layers = (
{
layerId = "9722DBBA-DA2B-4164-95B3-8AF620E947BE";
paths = (
{
closed = 1;
nodes = (
"210 418 OFFCURVE",
"307 355 OFFCURVE",
"307 248 CURVE SMOOTH",
"307 0 LINE SMOOTH",
"307 -94 OFFCURVE",
"323 -164 OFFCURVE",
"356 -210 CURVE SMOOTH",
"420 -303 OFFCURVE",
"558 -344 OFFCURVE",
"821 -344 CURVE",
"821 -66 LINE",
"769 -64 OFFCURVE",
"731 -59 OFFCURVE",
"708 -52 CURVE SMOOTH",
"661 -38 OFFCURVE",
"631 -11 OFFCURVE",
"631 41 CURVE SMOOTH",
"631 317 LINE SMOOTH",
"631 461 OFFCURVE",
"562 536 OFFCURVE",
"391 563 CURVE",
"391 575 LINE",
"560 599 OFFCURVE",
"631 676 OFFCURVE",
"631 827 CURVE SMOOTH",
"631 1098 LINE SMOOTH",
"631 1149 OFFCURVE",
"659 1177 OFFCURVE",
"701 1191 CURVE SMOOTH",
"722 1198 OFFCURVE",
"762 1202 OFFCURVE",
"821 1204 CURVE",
"821 1483 LINE",
"691 1483 OFFCURVE",
"589 1473 OFFCURVE",
"516 1452 CURVE SMOOTH",
"368 1410 OFFCURVE",
"307 1328 OFFCURVE",
"307 1143 CURVE SMOOTH",
"307 889 LINE SMOOTH",
"307 781 OFFCURVE",
"214 719 OFFCURVE",
"61 719 CURVE",
"61 418 LINE"
);
}
);
width = 887;
}
);
note = braceleft;
unicode = 007B;
},
{
glyphname = bar;
lastChange = "2017-04-22 21:00:22 +0000";
layers = (
{
layerId = "9722DBBA-DA2B-4164-95B3-8AF620E947BE";
paths = (
{
closed = 1;
nodes = (
"655 -446 LINE",
"655 1556 LINE",
"387 1556 LINE",
"387 -446 LINE"
);
}
);
width = 1042;
}
);
note = bar;
unicode = 007C;
},
{
glyphname = braceright;
lastChange = "2017-04-22 21:00:22 +0000";
layers = (
{
layerId = "9722DBBA-DA2B-4164-95B3-8AF620E947BE";
paths = (
{
closed = 1;
nodes = (
"672 719 OFFCURVE",
"580 781 OFFCURVE",
"580 889 CURVE SMOOTH",
"580 1143 LINE SMOOTH",
"580 1236 OFFCURVE",
"564 1305 OFFCURVE",
"531 1351 CURVE SMOOTH",
"466 1443 OFFCURVE",
"327 1483 OFFCURVE",
"66 1483 CURVE",
"66 1204 LINE",
"126 1202 OFFCURVE",
"166 1198 OFFCURVE",
"187 1191 CURVE SMOOTH",
"227 1177 OFFCURVE",
"256 1150 OFFCURVE",
"256 1098 CURVE SMOOTH",
"256 827 LINE SMOOTH",
"256 676 OFFCURVE",
"327 599 OFFCURVE",
"496 575 CURVE",
"496 563 LINE",
"325 536 OFFCURVE",
"256 461 OFFCURVE",
"256 317 CURVE SMOOTH",
"256 41 LINE SMOOTH",
"256 6 OFFCURVE",
"242 -19 OFFCURVE",
"215 -36 CURVE SMOOTH",
"188 -53 OFFCURVE",
"138 -63 OFFCURVE",
"66 -66 CURVE",
"66 -344 LINE",
"197 -344 OFFCURVE",
"299 -333 OFFCURVE",
"372 -312 CURVE SMOOTH",
"519 -269 OFFCURVE",
"580 -187 OFFCURVE",
"580 0 CURVE SMOOTH",
"580 248 LINE SMOOTH",
"580 355 OFFCURVE",
"677 418 OFFCURVE",
"825 418 CURVE",
"825 719 LINE"
);
}
);
width = 887;
}
);
note = braceright;
unicode = 007D;
},
{
glyphname = asciitilde;
lastChange = "2017-04-22 21:00:22 +0000";
layers = (
{
layerId = "9722DBBA-DA2B-4164-95B3-8AF620E947BE";
paths = (
{
closed = 1;
nodes = (
"375 647 OFFCURVE",
"454 629 OFFCURVE",
"541 592 CURVE SMOOTH",
"653 547 OFFCURVE",
"726 528 OFFCURVE",
"821 528 CURVE SMOOTH",
"927 528 OFFCURVE",
"1015 564 OFFCURVE",
"1085 637 CURVE",
"1085 918 LINE",
"1010 842 OFFCURVE",
"921 797 OFFCURVE",
"854 797 CURVE SMOOTH",
"783 797 OFFCURVE",
"703 815 OFFCURVE",
"616 852 CURVE SMOOTH",
"497 900 OFFCURVE",
"428 915 OFFCURVE",
"336 915 CURVE SMOOTH",
"229 915 OFFCURVE",
"141 879 OFFCURVE",
"72 807 CURVE",
"72 526 LINE",
"154 607 OFFCURVE",
"232 647 OFFCURVE",
"305 647 CURVE SMOOTH"
);
}
);
width = 1159;
}
);
note = asciitilde;
unicode = 007E;
},
{
glyphname = exclamdown;
lastChange = "2017-04-22 21:00:22 +0000";
layers = (
{
layerId = "9722DBBA-DA2B-4164-95B3-8AF620E947BE";
paths = (
{
closed = 1;
nodes = (
"514 -334 LINE",
"463 612 LINE",
"133 612 LINE",
"82 -334 LINE"
);
},
{
closed = 1;
nodes = (
"510 1082 OFFCURVE",
"434 1153 OFFCURVE",
"299 1153 CURVE SMOOTH",
"167 1153 OFFCURVE",
"92 1083 OFFCURVE",
"92 963 CURVE SMOOTH",
"92 840 OFFCURVE",
"163 770 OFFCURVE",
"299 770 CURVE SMOOTH",
"438 770 OFFCURVE",
"510 842 OFFCURVE",
"510 963 CURVE SMOOTH"
);
}
);
width = 594;
}
);
note = exclamdown;
unicode = 00A1;
},
{
glyphname = cent;
lastChange = "2017-04-22 21:00:22 +0000";
layers = (
{
layerId = "9722DBBA-DA2B-4164-95B3-8AF620E947BE";
paths = (
{
closed = 1;
nodes = (
"285 1262 OFFCURVE",
"129 1059 OFFCURVE",
"129 739 CURVE SMOOTH",
"129 403 OFFCURVE",
"282 207 OFFCURVE",
"565 166 CURVE",
"565 -20 LINE",
"772 -20 LINE",
"772 160 LINE",
"877 171 OFFCURVE",
"972 203 OFFCURVE",
"1057 258 CURVE",
"1057 569 LINE",
"952 502 OFFCURVE",
"842 469 OFFCURVE",
"727 469 CURVE SMOOTH",
"593 469 OFFCURVE",
"526 560 OFFCURVE",
"526 741 CURVE SMOOTH",
"526 921 OFFCURVE",
"598 1024 OFFCURVE",
"725 1024 CURVE SMOOTH",
"812 1024 OFFCURVE",
"886 997 OFFCURVE",
"981 956 CURVE",
"1096 1245 LINE",
"994 1295 OFFCURVE",
"886 1323 OFFCURVE",
"772 1329 CURVE",
"772 1483 LINE",
"565 1483 LINE",
"565 1317 LINE"
);
}
);
width = 1200;
}
);
note = cent;
unicode = 00A2;
},
{
glyphname = sterling;
lastChange = "2017-04-22 21:00:22 +0000";
layers = (
{
layerId = "9722DBBA-DA2B-4164-95B3-8AF620E947BE";
paths = (
{
closed = 1;
nodes = (
"428 1485 OFFCURVE",
"268 1331 OFFCURVE",
"268 1044 CURVE SMOOTH",
"268 926 LINE",
"102 926 LINE",
"102 649 LINE",
"268 649 LINE",
"268 551 LINE SMOOTH",
"268 514 OFFCURVE",
"264 482 OFFCURVE",
"255 457 CURVE SMOOTH",
"238 406 OFFCURVE",
"212 376 OFFCURVE",
"104 313 CURVE",
"104 0 LINE",
"1165 0 LINE",
"1165 326 LINE",
"494 326 LINE",
"600 377 OFFCURVE",
"653 453 OFFCURVE",
"653 553 CURVE SMOOTH",
"653 649 LINE",
"997 649 LINE",
"997 926 LINE",
"653 926 LINE",
"653 1032 LINE SMOOTH",
"653 1127 OFFCURVE",
"689 1169 OFFCURVE",
"766 1169 CURVE SMOOTH",
"835 1169 OFFCURVE",
"919 1151 OFFCURVE",
"1018 1114 CURVE",
"1128 1403 LINE",
"998 1458 OFFCURVE",
"863 1485 OFFCURVE",
"723 1485 CURVE SMOOTH"
);
}
);
width = 1200;
}
);
note = sterling;
unicode = 00A3;
},
{
glyphname = currency;
lastChange = "2017-04-22 21:00:22 +0000";
layers = (
{
layerId = "9722DBBA-DA2B-4164-95B3-8AF620E947BE";
paths = (
{
closed = 1;
nodes = (
"180 662 OFFCURVE",
"194 604 OFFCURVE",
"221 549 CURVE",
"98 430 LINE",
"276 252 LINE",
"395 367 LINE",
"446 342 OFFCURVE",
"504 330 OFFCURVE",
"571 330 CURVE SMOOTH",
"630 330 OFFCURVE",
"689 343 OFFCURVE",
"748 369 CURVE",
"868 250 LINE",
"1047 428 LINE",
"926 547 LINE",
"953 602 OFFCURVE",
"967 660 OFFCURVE",
"967 723 CURVE SMOOTH",
"967 791 OFFCURVE",
"953 850 OFFCURVE",
"926 901 CURVE",
"1053 1026 LINE",
"868 1200 LINE",
"748 1073 LINE",
"691 1103 OFFCURVE",
"632 1118 OFFCURVE",
"571 1118 CURVE SMOOTH",
"512 1118 OFFCURVE",
"455 1104 OFFCURVE",
"399 1077 CURVE",
"276 1200 LINE",
"96 1018 LINE",
"221 899 LINE",
"194 841 OFFCURVE",
"180 782 OFFCURVE",
"180 723 CURVE SMOOTH"
);
},
{
closed = 1;
nodes = (
"436 798 OFFCURVE",
"496 860 OFFCURVE",
"571 860 CURVE SMOOTH",
"648 860 OFFCURVE",
"713 800 OFFCURVE",
"713 723 CURVE SMOOTH",
"713 646 OFFCURVE",
"648 588 OFFCURVE",
"571 588 CURVE SMOOTH",
"499 588 OFFCURVE",
"436 648 OFFCURVE",
"436 723 CURVE SMOOTH"
);
}
);
width = 1159;
}
);
note = currency;
unicode = 00A4;
},
{
glyphname = yen;
lastChange = "2017-04-22 21:00:22 +0000";
layers = (
{
layerId = "9722DBBA-DA2B-4164-95B3-8AF620E947BE";
paths = (
{
closed = 1;
nodes = (
"8 1462 LINE",
"362 750 LINE",
"172 750 LINE",
"172 539 LINE",
"418 539 LINE",
"418 422 LINE",
"172 422 LINE",
"172 213 LINE",
"418 213 LINE",
"418 0 LINE",
"782 0 LINE",
"782 213 LINE",
"1024 213 LINE",
"1024 422 LINE",
"782 422 LINE",
"782 539 LINE",
"1024 539 LINE",
"1024 750 LINE",
"829 750 LINE",
"1192 1462 LINE",
"793 1462 LINE",
"600 958 LINE",
"408 1462 LINE"
);
}
);
width = 1200;
}
);
note = yen;
unicode = 00A5;
},
{
glyphname = brokenbar;
lastChange = "2017-04-22 21:00:22 +0000";
layers = (
{
layerId = "9722DBBA-DA2B-4164-95B3-8AF620E947BE";
paths = (
{
closed = 1;
nodes = (
"655 717 LINE",
"655 1556 LINE",
"387 1556 LINE",
"387 717 LINE"
);
},
{
closed = 1;
nodes = (
"655 -446 LINE",
"655 393 LINE",
"387 393 LINE",
"387 -446 LINE"
);
}
);
width = 1042;
}
);
note = brokenbar;
unicode = 00A6;
},
{
glyphname = section;
lastChange = "2017-04-22 21:00:22 +0000";
layers = (
{
layerId = "9722DBBA-DA2B-4164-95B3-8AF620E947BE";
paths = (
{
closed = 1;
nodes = (
"106 750 OFFCURVE",
"117 703 OFFCURVE",
"138 664 CURVE SMOOTH",
"181 585 OFFCURVE",
"252 528 OFFCURVE",
"440 444 CURVE SMOOTH",
"512 412 OFFCURVE",
"558 386 OFFCURVE",
"579 366 CURVE SMOOTH",
"600 345 OFFCURVE",
"610 321 OFFCURVE",
"610 293 CURVE SMOOTH",
"610 229 OFFCURVE",
"564 197 OFFCURVE",
"471 197 CURVE SMOOTH",
"379 197 OFFCURVE",
"222 246 OFFCURVE",
"117 305 CURVE",
"117 61 LINE",
"216 4 OFFCURVE",
"333 -25 OFFCURVE",
"469 -25 CURVE SMOOTH",
"740 -25 OFFCURVE",
"905 102 OFFCURVE",
"905 301 CURVE SMOOTH",
"905 401 OFFCURVE",
"863 482 OFFCURVE",
"780 545 CURVE",
"892 625 OFFCURVE",
"928 700 OFFCURVE",
"928 803 CURVE SMOOTH",
"928 932 OFFCURVE",
"831 1038 OFFCURVE",
"598 1133 CURVE SMOOTH",
"487 1178 OFFCURVE",
"424 1225 OFFCURVE",
"424 1282 CURVE SMOOTH",
"424 1331 OFFCURVE",
"460 1356 OFFCURVE",
"532 1356 CURVE SMOOTH",
"605 1356 OFFCURVE",
"710 1323 OFFCURVE",
"807 1270 CURVE",
"905 1491 LINE",
"786 1548 OFFCURVE",
"662 1577 OFFCURVE",
"535 1577 CURVE SMOOTH",
"290 1577 OFFCURVE",
"129 1465 OFFCURVE",
"129 1282 CURVE SMOOTH",
"129 1186 OFFCURVE",
"176 1104 OFFCURVE",
"270 1036 CURVE",
"166 973 OFFCURVE",
"106 888 OFFCURVE",
"106 803 CURVE SMOOTH"
);
},
{
closed = 1;
nodes = (
"397 881 OFFCURVE",
"416 915 OFFCURVE",
"455 936 CURVE",
"586 881 OFFCURVE",
"637 828 OFFCURVE",
"637 752 CURVE SMOOTH",
"637 712 OFFCURVE",
"623 676 OFFCURVE",
"596 645 CURVE",
"522 684 OFFCURVE",
"470 716 OFFCURVE",
"441 743 CURVE SMOOTH",
"412 770 OFFCURVE",
"397 800 OFFCURVE",
"397 834 CURVE SMOOTH"
);
}
);
width = 1024;
}
);
note = section;
unicode = 00A7;
},
{
glyphname = dieresis;
lastChange = "2017-04-22 21:00:22 +0000";
layers = (
{
layerId = "9722DBBA-DA2B-4164-95B3-8AF620E947BE";
paths = (
{
closed = 1;
nodes = (
"223 1314 OFFCURVE",
"289 1257 OFFCURVE",
"393 1257 CURVE SMOOTH",
"498 1257 OFFCURVE",
"565 1318 OFFCURVE",
"565 1413 CURVE SMOOTH",
"565 1510 OFFCURVE",
"498 1571 OFFCURVE",
"393 1571 CURVE SMOOTH",
"289 1571 OFFCURVE",
"223 1513 OFFCURVE",
"223 1413 CURVE SMOOTH"
);
},
{
closed = 1;
nodes = (
"702 1316 OFFCURVE",
"766 1257 OFFCURVE",
"874 1257 CURVE SMOOTH",
"981 1257 OFFCURVE",
"1047 1318 OFFCURVE",
"1047 1413 CURVE SMOOTH",
"1047 1509 OFFCURVE",
"981 1571 OFFCURVE",
"874 1571 CURVE SMOOTH",
"767 1571 OFFCURVE",
"702 1513 OFFCURVE",
"702 1413 CURVE SMOOTH"
);
}
);
width = 1233;
}
);
note = dieresis;
unicode = 00A8;
},
{
glyphname = copyright;
lastChange = "2017-04-22 21:00:22 +0000";
layers = (
{
layerId = "9722DBBA-DA2B-4164-95B3-8AF620E947BE";
paths = (
{
closed = 1;
nodes = (
"957 971 OFFCURVE",
"1027 952 OFFCURVE",
"1098 915 CURVE",
"1190 1120 LINE",
"1086 1172 OFFCURVE",
"979 1198 OFFCURVE",
"868 1198 CURVE SMOOTH",
"591 1198 OFFCURVE",
"434 1024 OFFCURVE",
"434 735 CURVE SMOOTH",
"434 435 OFFCURVE",
"596 262 OFFCURVE",
"879 262 CURVE SMOOTH",
"976 262 OFFCURVE",
"1067 283 OFFCURVE",
"1151 326 CURVE",
"1151 557 LINE",
"1071 512 OFFCURVE",
"985 489 OFFCURVE",
"893 489 CURVE SMOOTH",
"772 489 OFFCURVE",
"715 560 OFFCURVE",
"715 731 CURVE SMOOTH",
"715 888 OFFCURVE",
"779 971 OFFCURVE",
"887 971 CURVE SMOOTH"
);
},
{
closed = 1;
nodes = (
"92 599 OFFCURVE",
"125 475 OFFCURVE",
"190 360 CURVE SMOOTH",
"320 129 OFFCURVE",
"568 -20 OFFCURVE",
"844 -20 CURVE SMOOTH",
"981 -20 OFFCURVE",
"1107 14 OFFCURVE",
"1222 81 CURVE SMOOTH",
"1452 216 OFFCURVE",
"1595 459 OFFCURVE",
"1595 731 CURVE SMOOTH",
"1595 870 OFFCURVE",
"1560 997 OFFCURVE",
"1491 1114 CURVE SMOOTH",
"1352 1347 OFFCURVE",
"1107 1483 OFFCURVE",
"844 1483 CURVE SMOOTH",
"709 1483 OFFCURVE",
"584 1449 OFFCURVE",
"467 1382 CURVE SMOOTH",
"234 1247 OFFCURVE",
"92 998 OFFCURVE",
"92 731 CURVE SMOOTH"
);
},
{
closed = 1;
nodes = (
"256 836 OFFCURVE",
"282 935 OFFCURVE",
"335 1026 CURVE SMOOTH",
"439 1208 OFFCURVE",
"633 1319 OFFCURVE",
"844 1319 CURVE SMOOTH",
"951 1319 OFFCURVE",
"1050 1293 OFFCURVE",
"1141 1240 CURVE SMOOTH",
"1323 1134 OFFCURVE",
"1432 940 OFFCURVE",
"1432 731 CURVE SMOOTH",
"1432 626 OFFCURVE",
"1406 528 OFFCURVE",
"1353 437 CURVE SMOOTH",
"1248 255 OFFCURVE",
"1055 143 OFFCURVE",
"844 143 CURVE SMOOTH",
"739 143 OFFCURVE",
"642 169 OFFCURVE",
"551 221 CURVE SMOOTH",
"370 324 OFFCURVE",
"256 520 OFFCURVE",
"256 731 CURVE SMOOTH"
);
}
);
width = 1688;
}
);
note = copyright;
unicode = 00A9;
},
{
glyphname = ordfeminine;
lastChange = "2017-04-22 21:00:22 +0000";
layers = (
{
layerId = "9722DBBA-DA2B-4164-95B3-8AF620E947BE";
paths = (
{
closed = 1;
nodes = (
"733 1190 LINE SMOOTH",
"733 1374 OFFCURVE",
"621 1479 OFFCURVE",
"436 1479 CURVE SMOOTH",
"315 1479 OFFCURVE",
"236 1467 OFFCURVE",
"92 1399 CURVE",
"168 1233 LINE",
"239 1266 OFFCURVE",
"303 1288 OFFCURVE",
"379 1288 CURVE SMOOTH",
"447 1288 OFFCURVE",
"481 1267 OFFCURVE",
"481 1212 CURVE SMOOTH",
"481 1206 LINE",
"393 1202 LINE SMOOTH",
"140 1190 OFFCURVE",
"49 1122 OFFCURVE",
"49 967 CURVE SMOOTH",
"49 819 OFFCURVE",
"138 729 OFFCURVE",
"283 729 CURVE SMOOTH",
"392 729 OFFCURVE",
"462 767 OFFCURVE",
"526 868 CURVE",
"571 741 LINE",
"733 741 LINE"
);
},
{
closed = 1;
nodes = (
"301 1031 OFFCURVE",
"333 1059 OFFCURVE",
"397 1063 CURVE SMOOTH",
"481 1069 LINE",
"481 1047 LINE SMOOTH",
"481 968 OFFCURVE",
"438 911 OFFCURVE",
"371 911 CURVE SMOOTH",
"326 911 OFFCURVE",
"301 936 OFFCURVE",
"301 979 CURVE SMOOTH"
);
}
);
width = 813;
}
);
note = ordfeminine;
unicode = 00AA;
},
{
glyphname = guillemotleft;
lastChange = "2017-04-22 21:00:22 +0000";
layers = (
{
layerId = "9722DBBA-DA2B-4164-95B3-8AF620E947BE";
paths = (
{
closed = 1;
nodes = (
"463 80 LINE",
"743 227 LINE",
"471 575 LINE",
"743 922 LINE",
"463 1071 LINE",
"74 588 LINE",
"74 561 LINE"
);
},
{
closed = 1;
nodes = (
"1036 80 LINE",
"1319 227 LINE",
"1044 575 LINE",
"1319 922 LINE",
"1036 1071 LINE",
"649 588 LINE",
"649 561 LINE"
);
}
);
width = 1395;
}
);
note = guillemotleft;
unicode = 00AB;
},
{
glyphname = logicalnot;
lastChange = "2017-04-22 21:00:22 +0000";
layers = (
{
layerId = "9722DBBA-DA2B-4164-95B3-8AF620E947BE";
paths = (
{
closed = 1;
nodes = (
"72 856 LINE",
"72 588 LINE",
"815 588 LINE",
"815 238 LINE",
"1085 238 LINE",
"1085 856 LINE"
);
}
);
width = 1159;
}
);
note = logicalnot;
unicode = 00AC;
},
{
glyphname = registered;
lastChange = "2017-04-22 21:00:22 +0000";
layers = (
{
layerId = "9722DBBA-DA2B-4164-95B3-8AF620E947BE";
paths = (
{
closed = 1;
nodes = (
"1204 1098 OFFCURVE",
"1068 1188 OFFCURVE",
"797 1188 CURVE SMOOTH",
"506 1188 LINE",
"506 313 LINE",
"786 313 LINE",
"786 633 LINE",
"821 633 LINE",
"967 313 LINE",
"1257 313 LINE",
"1063 676 LINE",
"1163 724 OFFCURVE",
"1204 802 OFFCURVE",
"1204 918 CURVE SMOOTH"
);
},
{
closed = 1;
nodes = (
"799 993 LINE SMOOTH",
"890 993 OFFCURVE",
"922 970 OFFCURVE",
"922 907 CURVE SMOOTH",
"922 834 OFFCURVE",
"874 809 OFFCURVE",
"797 809 CURVE SMOOTH",
"786 809 LINE",
"786 993 LINE"
);
},
{
closed = 1;
nodes = (
"92 599 OFFCURVE",
"125 475 OFFCURVE",
"190 360 CURVE SMOOTH",
"320 129 OFFCURVE",
"568 -20 OFFCURVE",
"844 -20 CURVE SMOOTH",
"981 -20 OFFCURVE",
"1107 14 OFFCURVE",
"1222 81 CURVE SMOOTH",
"1452 216 OFFCURVE",
"1595 459 OFFCURVE",
"1595 731 CURVE SMOOTH",
"1595 870 OFFCURVE",
"1560 997 OFFCURVE",
"1491 1114 CURVE SMOOTH",
"1352 1347 OFFCURVE",
"1107 1483 OFFCURVE",
"844 1483 CURVE SMOOTH",
"709 1483 OFFCURVE",
"584 1449 OFFCURVE",
"467 1382 CURVE SMOOTH",
"234 1247 OFFCURVE",
"92 998 OFFCURVE",
"92 731 CURVE SMOOTH"
);
},
{
closed = 1;
nodes = (
"256 836 OFFCURVE",
"282 935 OFFCURVE",
"335 1026 CURVE SMOOTH",
"439 1208 OFFCURVE",
"633 1319 OFFCURVE",
"844 1319 CURVE SMOOTH",
"951 1319 OFFCURVE",
"1050 1293 OFFCURVE",
"1141 1240 CURVE SMOOTH",
"1323 1134 OFFCURVE",
"1432 940 OFFCURVE",
"1432 731 CURVE SMOOTH",
"1432 626 OFFCURVE",
"1406 528 OFFCURVE",
"1353 437 CURVE SMOOTH",
"1248 255 OFFCURVE",
"1055 143 OFFCURVE",
"844 143 CURVE SMOOTH",
"739 143 OFFCURVE",
"642 169 OFFCURVE",
"551 221 CURVE SMOOTH",
"370 324 OFFCURVE",
"256 520 OFFCURVE",
"256 731 CURVE SMOOTH"
);
}
);
width = 1688;
}
);
note = registered;
unicode = 00AE;
},
{
glyphname = overscore;
lastChange = "2017-04-22 21:00:22 +0000";
layers = (
{
layerId = "9722DBBA-DA2B-4164-95B3-8AF620E947BE";
paths = (
{
closed = 1;
nodes = (
"-6 1802 LINE",
"-6 1556 LINE",
"1030 1556 LINE",
"1030 1802 LINE"
);
}
);
width = 1024;
}
);
note = overscore;
unicode = 00AF;
},
{
glyphname = degree;
lastChange = "2017-04-22 21:00:22 +0000";
layers = (
{
layerId = "9722DBBA-DA2B-4164-95B3-8AF620E947BE";
paths = (
{
closed = 1;
nodes = (
"63 1049 OFFCURVE",
"79 988 OFFCURVE",
"112 932 CURVE SMOOTH",
"177 820 OFFCURVE",
"300 750 OFFCURVE",
"432 750 CURVE SMOOTH",
"499 750 OFFCURVE",
"562 767 OFFCURVE",
"619 800 CURVE SMOOTH",
"733 866 OFFCURVE",
"801 985 OFFCURVE",
"801 1114 CURVE SMOOTH",
"801 1179 OFFCURVE",
"785 1240 OFFCURVE",
"752 1297 CURVE SMOOTH",
"687 1410 OFFCURVE",
"564 1483 OFFCURVE",
"432 1483 CURVE SMOOTH",
"366 1483 OFFCURVE",
"304 1466 OFFCURVE",
"247 1433 CURVE SMOOTH",
"132 1365 OFFCURVE",
"63 1243 OFFCURVE",
"63 1114 CURVE SMOOTH"
);
},
{
closed = 1;
nodes = (
"301 1183 OFFCURVE",
"357 1247 OFFCURVE",
"432 1247 CURVE SMOOTH",
"507 1247 OFFCURVE",
"563 1183 OFFCURVE",
"563 1114 CURVE SMOOTH",
"563 1049 OFFCURVE",
"504 987 OFFCURVE",
"432 987 CURVE SMOOTH",
"360 987 OFFCURVE",
"301 1047 OFFCURVE",
"301 1114 CURVE SMOOTH"
);
}
);
width = 864;
}
);
note = degree;
unicode = 00B0;
},
{
glyphname = plusminus;
lastChange = "2017-04-22 21:00:22 +0000";
layers = (
{
layerId = "9722DBBA-DA2B-4164-95B3-8AF620E947BE";
paths = (
{
closed = 1;
nodes = (
"713 324 LINE",
"713 684 LINE",
"1085 684 LINE",
"1085 952 LINE",
"713 952 LINE",
"713 1319 LINE",
"444 1319 LINE",
"444 952 LINE",
"72 952 LINE",
"72 684 LINE",
"444 684 LINE",
"444 324 LINE"
);
},
{
closed = 1;
nodes = (
"1085 268 LINE",
"72 268 LINE",
"72 0 LINE",
"1085 0 LINE"
);
}
);
width = 1159;
}
);
note = plusminus;
unicode = 00B1;
},
{
glyphname = twosuperior;
lastChange = "2017-04-22 21:00:22 +0000";
layers = (
{
layerId = "9722DBBA-DA2B-4164-95B3-8AF620E947BE";
paths = (
{
closed = 1;
nodes = (
"403 811 LINE",
"504 895 OFFCURVE",
"570 953 OFFCURVE",
"601 985 CURVE SMOOTH",
"632 1016 OFFCURVE",
"657 1047 OFFCURVE",
"676 1076 CURVE SMOOTH",
"712 1134 OFFCURVE",
"729 1186 OFFCURVE",
"729 1247 CURVE SMOOTH",
"729 1396 OFFCURVE",
"621 1485 OFFCURVE",
"432 1485 CURVE SMOOTH",
"277 1485 OFFCURVE",
"168 1447 OFFCURVE",
"61 1350 CURVE",
"203 1184 LINE",
"264 1243 OFFCURVE",
"321 1272 OFFCURVE",
"375 1272 CURVE SMOOTH",
"418 1272 OFFCURVE",
"440 1253 OFFCURVE",
"440 1214 CURVE SMOOTH",
"440 1191 OFFCURVE",
"429 1165 OFFCURVE",
"408 1135 CURVE SMOOTH",
"386 1105 OFFCURVE",
"347 1062 OFFCURVE",
"291 1006 CURVE SMOOTH",
"76 793 LINE",
"76 586 LINE",
"750 586 LINE",
"750 811 LINE"
);
}
);
width = 817;
}
);
note = twosuperior;
unicode = 00B2;
},
{
glyphname = threesuperior;
lastChange = "2017-04-22 21:00:22 +0000";
layers = (
{
layerId = "9722DBBA-DA2B-4164-95B3-8AF620E947BE";
paths = (
{
closed = 1;
nodes = (
"725 1399 OFFCURVE",
"601 1481 OFFCURVE",
"406 1481 CURVE SMOOTH",
"277 1481 OFFCURVE",
"162 1443 OFFCURVE",
"63 1366 CURVE",
"180 1196 LINE",
"251 1249 OFFCURVE",
"304 1270 OFFCURVE",
"371 1270 CURVE SMOOTH",
"438 1270 OFFCURVE",
"463 1235 OFFCURVE",
"463 1202 CURVE SMOOTH",
"463 1147 OFFCURVE",
"419 1124 OFFCURVE",
"324 1124 CURVE SMOOTH",
"244 1124 LINE",
"244 930 LINE",
"348 930 LINE SMOOTH",
"441 930 OFFCURVE",
"483 913 OFFCURVE",
"483 858 CURVE SMOOTH",
"483 813 OFFCURVE",
"444 791 OFFCURVE",
"367 791 CURVE SMOOTH",
"247 791 OFFCURVE",
"148 818 OFFCURVE",
"70 872 CURVE",
"70 639 LINE",
"153 592 OFFCURVE",
"256 569 OFFCURVE",
"379 569 CURVE SMOOTH",
"618 569 OFFCURVE",
"754 663 OFFCURVE",
"754 823 CURVE SMOOTH",
"754 939 OFFCURVE",
"692 1006 OFFCURVE",
"563 1038 CURVE",
"563 1047 LINE",
"680 1090 OFFCURVE",
"725 1162 OFFCURVE",
"725 1266 CURVE SMOOTH"
);
}
);
width = 817;
}
);
note = threesuperior;
unicode = 00B3;
},
{
glyphname = acute;
lastChange = "2017-04-22 21:00:22 +0000";
layers = (
{
layerId = "9722DBBA-DA2B-4164-95B3-8AF620E947BE";
paths = (
{
closed = 1;
nodes = (
"620 1301 OFFCURVE",
"849 1463 OFFCURVE",
"956 1548 CURVE",
"956 1569 LINE",
"528 1569 LINE",
"510 1544 OFFCURVE",
"487 1515 OFFCURVE",
"460 1483 CURVE SMOOTH",
"432 1451 OFFCURVE",
"367 1380 OFFCURVE",
"264 1270 CURVE",
"264 1241 LINE",
"524 1241 LINE"
);
}
);
width = 1225;
}
);
note = acute;
unicode = 00B4;
},
{
glyphname = mu;
lastChange = "2017-04-22 21:00:22 +0000";
layers = (
{
layerId = "9722DBBA-DA2B-4164-95B3-8AF620E947BE";
paths = (
{
closed = 1;
nodes = (
"135 1133 LINE",
"135 -492 LINE",
"526 -492 LINE",
"526 -172 LINE SMOOTH",
"526 -75 OFFCURVE",
"522 3 OFFCURVE",
"514 63 CURVE",
"551 6 OFFCURVE",
"591 -20 OFFCURVE",
"666 -20 CURVE SMOOTH",
"754 -20 OFFCURVE",
"834 35 OFFCURVE",
"879 152 CURVE",
"895 152 LINE",
"948 0 LINE",
"1241 0 LINE",
"1241 1133 LINE",
"848 1133 LINE",
"848 637 LINE SMOOTH",
"848 394 OFFCURVE",
"796 289 OFFCURVE",
"672 289 CURVE SMOOTH",
"567 289 OFFCURVE",
"526 365 OFFCURVE",
"526 518 CURVE SMOOTH",
"526 1133 LINE"
);
}
);
width = 1376;
}
);
note = mu;
unicode = 00B5;
},
{
glyphname = paragraph;
lastChange = "2017-04-22 21:00:22 +0000";
layers = (
{
layerId = "9722DBBA-DA2B-4164-95B3-8AF620E947BE";
paths = (
{
closed = 1;
nodes = (
"553 1556 LINE SMOOTH",
"238 1556 OFFCURVE",
"102 1383 OFFCURVE",
"102 1042 CURVE SMOOTH",
"102 707 OFFCURVE",
"234 541 OFFCURVE",
"522 541 CURVE SMOOTH",
"569 541 OFFCURVE",
"611 547 OFFCURVE",
"647 559 CURVE",
"647 -260 LINE",
"838 -260 LINE",
"838 1327 LINE",
"995 1327 LINE",
"995 -260 LINE",
"1186 -260 LINE",
"1186 1556 LINE"
);
}
);
width = 1317;
}
);
note = paragraph;
unicode = 00B6;
},
{
glyphname = periodcentered;
lastChange = "2017-04-22 21:00:22 +0000";
layers = (
{
layerId = "9722DBBA-DA2B-4164-95B3-8AF620E947BE";
paths = (
{
closed = 1;
nodes = (
"86 602 OFFCURVE",
"166 530 OFFCURVE",
"299 530 CURVE SMOOTH",
"427 530 OFFCURVE",
"504 603 OFFCURVE",
"504 723 CURVE SMOOTH",
"504 846 OFFCURVE",
"431 915 OFFCURVE",
"299 915 CURVE SMOOTH",
"160 915 OFFCURVE",
"86 846 OFFCURVE",
"86 723 CURVE SMOOTH"
);
}
);
width = 592;
}
);
note = periodcentered;
unicode = 00B7;
},
{
glyphname = cedilla;
lastChange = "2017-04-22 21:00:22 +0000";
layers = (
{
layerId = "9722DBBA-DA2B-4164-95B3-8AF620E947BE";
paths = (
{
closed = 1;
nodes = (
"397 -149 OFFCURVE",
"355 -81 OFFCURVE",
"227 -29 CURVE",
"236 0 LINE",
"33 0 LINE",
"-39 -139 LINE",
"49 -159 OFFCURVE",
"109 -194 OFFCURVE",
"109 -238 CURVE SMOOTH",
"109 -269 OFFCURVE",
"92 -285 OFFCURVE",
"57 -285 CURVE SMOOTH",
"14 -285 OFFCURVE",
"-35 -276 OFFCURVE",
"-90 -258 CURVE",
"-90 -463 LINE",
"-39 -482 OFFCURVE",
"32 -492 OFFCURVE",
"123 -492 CURVE SMOOTH",
"288 -492 OFFCURVE",
"397 -397 OFFCURVE",
"397 -252 CURVE SMOOTH"
);
}
);
width = 383;
}
);
note = cedilla;
unicode = 00B8;
},
{
glyphname = onesuperior;
lastChange = "2017-04-22 21:00:22 +0000";
layers = (
{
layerId = "9722DBBA-DA2B-4164-95B3-8AF620E947BE";
paths = (
{
closed = 1;
nodes = (
"397 1462 LINE",
"57 1188 LINE",
"203 1018 LINE",
"261 1067 OFFCURVE",
"298 1100 OFFCURVE",
"313 1116 CURVE SMOOTH",
"328 1132 OFFCURVE",
"338 1146 OFFCURVE",
"344 1159 CURVE",
"340 1138 OFFCURVE",
"334 989 OFFCURVE",
"334 942 CURVE SMOOTH",
"334 586 LINE",
"616 586 LINE",
"616 1462 LINE"
);
}
);
width = 817;
}
);
note = onesuperior;
unicode = 00B9;
},
{
glyphname = ordmasculine;
lastChange = "2017-04-22 21:00:22 +0000";
layers = (
{
layerId = "9722DBBA-DA2B-4164-95B3-8AF620E947BE";
paths = (
{
closed = 1;
nodes = (
"756 1329 OFFCURVE",
"612 1479 OFFCURVE",
"403 1479 CURVE SMOOTH",
"183 1479 OFFCURVE",
"49 1340 OFFCURVE",
"49 1104 CURVE SMOOTH",
"49 877 OFFCURVE",
"187 729 OFFCURVE",
"399 729 CURVE SMOOTH",
"620 729 OFFCURVE",
"756 872 OFFCURVE",
"756 1104 CURVE SMOOTH"
);
},
{
closed = 1;
nodes = (
"301 1220 OFFCURVE",
"334 1278 OFFCURVE",
"401 1278 CURVE SMOOTH",
"467 1278 OFFCURVE",
"500 1220 OFFCURVE",
"500 1104 CURVE SMOOTH",
"500 989 OFFCURVE",
"467 932 OFFCURVE",
"401 932 CURVE SMOOTH",
"332 932 OFFCURVE",
"301 988 OFFCURVE",
"301 1104 CURVE SMOOTH"
);
}
);
width = 803;
}
);
note = ordmasculine;
unicode = 00BA;
},
{
glyphname = guillemotright;
lastChange = "2017-04-22 21:00:22 +0000";
layers = (
{
layerId = "9722DBBA-DA2B-4164-95B3-8AF620E947BE";
paths = (
{
closed = 1;
nodes = (
"934 1071 LINE",
"649 922 LINE",
"924 575 LINE",
"649 227 LINE",
"934 80 LINE",
"1321 561 LINE",
"1321 588 LINE"
);
},
{
closed = 1;
nodes = (
"358 1071 LINE",
"76 922 LINE",
"348 575 LINE",
"76 227 LINE",
"358 80 LINE",
"745 561 LINE",
"745 588 LINE"
);
}
);
width = 1395;
}
);
note = guillemotright;
unicode = 00BB;
},
{
glyphname = onequarter;
lastChange = "2017-04-23 04:42:05 +0000";
layers = (
{
layerId = "9722DBBA-DA2B-4164-95B3-8AF620E947BE";
paths = (
{
closed = 1;
nodes = (
"1655 340 LINE",
"1655 882 LINE",
"1360 882 LINE",
"1010 327 LINE",
"1010 139 LINE",
"1380 139 LINE",
"1380 0 LINE",
"1655 0 LINE",
"1655 139 LINE",
"1780 139 LINE",
"1780 340 LINE"
);
},
{
closed = 1;
nodes = (
"1325 508 LINE",
"1340 530 OFFCURVE",
"1360 574 OFFCURVE",
"1387 641 CURVE",
"1382 597 OFFCURVE",
"1380 552 OFFCURVE",
"1380 506 CURVE SMOOTH",
"1380 340 LINE",
"1223 340 LINE"
);
},
{
closed = 1;
nodes = (
"383 0 LINE",
"684 0 LINE",
"1438 1462 LINE",
"1136 1462 LINE"
);
},
{
closed = 1;
nodes = (
"384 1462 LINE",
"44 1188 LINE",
"190 1018 LINE",
"248 1067 OFFCURVE",
"285 1100 OFFCURVE",
"300 1116 CURVE SMOOTH",
"315 1132 OFFCURVE",
"325 1146 OFFCURVE",
"331 1159 CURVE",
"327 1138 OFFCURVE",
"321 989 OFFCURVE",
"321 942 CURVE SMOOTH",
"321 586 LINE",
"603 586 LINE",
"603 1462 LINE"
);
}
);
width = 1822;
}
);
note = onequarter;
unicode = 00BC;
},
{
glyphname = onehalf;
lastChange = "2017-04-23 04:42:47 +0000";
layers = (
{
layerId = "9722DBBA-DA2B-4164-95B3-8AF620E947BE";
paths = (
{
closed = 1;
nodes = (
"1507 225 LINE",
"1608 309 OFFCURVE",
"1673 367 OFFCURVE",
"1705 399 CURVE SMOOTH",
"1736 430 OFFCURVE",
"1761 461 OFFCURVE",
"1780 490 CURVE SMOOTH",
"1817 547 OFFCURVE",
"1833 600 OFFCURVE",
"1833 661 CURVE SMOOTH",
"1833 810 OFFCURVE",
"1725 899 OFFCURVE",
"1536 899 CURVE SMOOTH",
"1381 899 OFFCURVE",
"1272 861 OFFCURVE",
"1165 764 CURVE",
"1307 598 LINE",
"1368 657 OFFCURVE",
"1425 686 OFFCURVE",
"1479 686 CURVE SMOOTH",
"1522 686 OFFCURVE",
"1544 667 OFFCURVE",
"1544 628 CURVE SMOOTH",
"1544 605 OFFCURVE",
"1533 579 OFFCURVE",
"1512 549 CURVE SMOOTH",
"1491 519 OFFCURVE",
"1451 476 OFFCURVE",
"1395 420 CURVE SMOOTH",
"1180 207 LINE",
"1180 0 LINE",
"1854 0 LINE",
"1854 225 LINE"
);
},
{
closed = 1;
nodes = (
"383 0 LINE",
"684 0 LINE",
"1438 1462 LINE",
"1136 1462 LINE"
);
},
{
closed = 1;
nodes = (
"350 1462 LINE",
"10 1188 LINE",
"156 1018 LINE",
"214 1067 OFFCURVE",
"251 1100 OFFCURVE",
"266 1116 CURVE SMOOTH",
"281 1132 OFFCURVE",
"291 1146 OFFCURVE",
"297 1159 CURVE",
"293 1138 OFFCURVE",
"287 989 OFFCURVE",
"287 942 CURVE SMOOTH",
"287 586 LINE",
"569 586 LINE",
"569 1462 LINE"
);
}
);
width = 1864;
}
);
note = onehalf;
unicode = 00BD;
},
{
glyphname = threequarters;
lastChange = "2017-04-23 04:43:32 +0000";
layers = (
{
layerId = "9722DBBA-DA2B-4164-95B3-8AF620E947BE";
paths = (
{
closed = 1;
nodes = (
"1623 340 LINE",
"1623 882 LINE",
"1328 882 LINE",
"978 327 LINE",
"978 139 LINE",
"1348 139 LINE",
"1348 0 LINE",
"1623 0 LINE",
"1623 139 LINE",
"1748 139 LINE",
"1748 340 LINE"
);
},
{
closed = 1;
nodes = (
"1293 508 LINE",
"1308 530 OFFCURVE",
"1328 574 OFFCURVE",
"1355 641 CURVE",
"1350 597 OFFCURVE",
"1348 552 OFFCURVE",
"1348 506 CURVE SMOOTH",
"1348 340 LINE",
"1191 340 LINE"
);
},
{
closed = 1;
nodes = (
"672 1399 OFFCURVE",
"548 1481 OFFCURVE",
"353 1481 CURVE SMOOTH",
"224 1481 OFFCURVE",
"109 1443 OFFCURVE",
"10 1366 CURVE",
"127 1196 LINE",
"198 1249 OFFCURVE",
"251 1270 OFFCURVE",
"318 1270 CURVE SMOOTH",
"385 1270 OFFCURVE",
"410 1235 OFFCURVE",
"410 1202 CURVE SMOOTH",
"410 1147 OFFCURVE",
"366 1124 OFFCURVE",
"271 1124 CURVE SMOOTH",
"191 1124 LINE",
"191 930 LINE",
"295 930 LINE SMOOTH",
"388 930 OFFCURVE",
"430 913 OFFCURVE",
"430 858 CURVE SMOOTH",
"430 813 OFFCURVE",
"391 791 OFFCURVE",
"314 791 CURVE SMOOTH",
"194 791 OFFCURVE",
"95 818 OFFCURVE",
"17 872 CURVE",
"17 639 LINE",
"100 592 OFFCURVE",
"203 569 OFFCURVE",
"326 569 CURVE SMOOTH",
"565 569 OFFCURVE",
"701 663 OFFCURVE",
"701 823 CURVE SMOOTH",
"701 939 OFFCURVE",
"639 1006 OFFCURVE",
"510 1038 CURVE",
"510 1047 LINE",
"627 1090 OFFCURVE",
"672 1162 OFFCURVE",
"672 1266 CURVE SMOOTH"
);
},
{
closed = 1;
nodes = (
"416 0 LINE",
"717 0 LINE",
"1471 1462 LINE",
"1169 1462 LINE"
);
}
);
width = 1758;
}
);
note = threequarters;
unicode = 00BE;
},
{
glyphname = questiondown;
lastChange = "2017-04-22 21:00:22 +0000";
layers = (
{
layerId = "9722DBBA-DA2B-4164-95B3-8AF620E947BE";
paths = (
{
closed = 1;
nodes = (
"432 561 LINE SMOOTH",
"432 532 OFFCURVE",
"422 506 OFFCURVE",
"403 484 CURVE SMOOTH",
"384 462 OFFCURVE",
"341 430 OFFCURVE",
"274 387 CURVE SMOOTH",
"105 279 OFFCURVE",
"37 170 OFFCURVE",
"37 10 CURVE SMOOTH",
"37 -214 OFFCURVE",
"217 -354 OFFCURVE",
"514 -354 CURVE SMOOTH",
"699 -354 OFFCURVE",
"872 -307 OFFCURVE",
"1034 -213 CURVE",
"895 59 LINE",
"759 -12 OFFCURVE",
"642 -47 OFFCURVE",
"543 -47 CURVE SMOOTH",
"460 -47 OFFCURVE",
"406 -13 OFFCURVE",
"406 43 CURVE SMOOTH",
"406 69 OFFCURVE",
"411 91 OFFCURVE",
"420 108 CURVE SMOOTH",
"439 142 OFFCURVE",
"481 181 OFFCURVE",
"557 229 CURVE SMOOTH",
"693 314 OFFCURVE",
"739 395 OFFCURVE",
"739 526 CURVE SMOOTH",
"739 612 LINE",
"432 612 LINE"
);
},
{
closed = 1;
nodes = (
"782 1084 OFFCURVE",
"706 1153 OFFCURVE",
"571 1153 CURVE SMOOTH",
"440 1153 OFFCURVE",
"365 1083 OFFCURVE",
"365 963 CURVE SMOOTH",
"365 839 OFFCURVE",
"436 770 OFFCURVE",
"571 770 CURVE SMOOTH",
"711 770 OFFCURVE",
"782 839 OFFCURVE",
"782 963 CURVE SMOOTH"
);
}
);
width = 1034;
}
);
note = questiondown;
unicode = 00BF;
},
{
glyphname = AE;
lastChange = "2017-06-04 18:43:55 +0000";
layers = (
{
anchors = (
{
name = bottom;
position = "{969, 0}";
},
{
name = top;
position = "{969, 1462}";
}
);
layerId = "9722DBBA-DA2B-4164-95B3-8AF620E947BE";
paths = (
{
closed = 1;
nodes = (
"1366 322 LINE",
"1366 598 LINE",
"1804 598 LINE",
"1804 915 LINE",
"1366 915 LINE",
"1366 1145 LINE",
"1839 1145 LINE",
"1839 1462 LINE",
"618 1462 LINE",
"-10 0 LINE",
"432 0 LINE",
"532 274 LINE",
"969 274 LINE",
"969 0 LINE",
"1839 0 LINE",
"1839 322 LINE"
);
},
{
closed = 1;
nodes = (
"969 1128 LINE",
"969 602 LINE",
"653 602 LINE",
"858 1128 LINE"
);
}
);
width = 1937;
}
);
note = AE;
unicode = 00C6;
},
{
glyphname = Eth;
lastChange = "2017-04-22 21:00:22 +0000";
layers = (
{
layerId = "9722DBBA-DA2B-4164-95B3-8AF620E947BE";
paths = (
{
closed = 1;
nodes = (
"1399 1215 OFFCURVE",
"1133 1462 OFFCURVE",
"664 1462 CURVE SMOOTH",
"158 1462 LINE",
"158 883 LINE",
"31 883 LINE",
"31 563 LINE",
"158 563 LINE",
"158 0 LINE",
"631 0 LINE SMOOTH",
"1118 0 OFFCURVE",
"1399 274 OFFCURVE",
"1399 762 CURVE SMOOTH"
);
},
{
closed = 1;
nodes = (
"989 461 OFFCURVE",
"881 324 OFFCURVE",
"641 324 CURVE SMOOTH",
"553 324 LINE",
"553 563 LINE",
"764 563 LINE",
"764 883 LINE",
"553 883 LINE",
"553 1143 LINE",
"668 1143 LINE SMOOTH",
"884 1143 OFFCURVE",
"989 1016 OFFCURVE",
"989 748 CURVE SMOOTH"
);
}
);
width = 1503;
}
);
note = Eth;
unicode = 00D0;
},
{
glyphname = multiply;
lastChange = "2017-04-22 21:00:22 +0000";
layers = (
{
layerId = "9722DBBA-DA2B-4164-95B3-8AF620E947BE";
paths = (
{
closed = 1;
nodes = (
"303 268 LINE",
"573 537 LINE",
"848 266 LINE",
"1032 451 LINE",
"762 723 LINE",
"1036 997 LINE",
"848 1180 LINE",
"573 913 LINE",
"303 1180 LINE",
"121 991 LINE",
"387 723 LINE",
"123 455 LINE"
);
}
);
width = 1159;
}
);
note = multiply;
unicode = 00D7;
},
{
glyphname = Oslash;
lastChange = "2017-06-04 18:43:55 +0000";
layers = (
{
anchors = (
{
name = bottom;
position = "{816, 0}";
},
{
name = top;
position = "{816, 1462}";
}
);
layerId = "9722DBBA-DA2B-4164-95B3-8AF620E947BE";
paths = (
{
closed = 1;
nodes = (
"1526 991 OFFCURVE",
"1461 1183 OFFCURVE",
"1331 1309 CURVE",
"1413 1434 LINE",
"1223 1548 LINE",
"1147 1430 LINE",
"1054 1467 OFFCURVE",
"944 1485 OFFCURVE",
"817 1485 CURVE SMOOTH",
"353 1485 OFFCURVE",
"104 1222 OFFCURVE",
"104 735 CURVE SMOOTH",
"104 468 OFFCURVE",
"174 270 OFFCURVE",
"315 141 CURVE",
"231 16 LINE",
"424 -109 LINE",
"508 23 LINE",
"595 -6 OFFCURVE",
"697 -20 OFFCURVE",
"815 -20 CURVE SMOOTH",
"1280 -20 OFFCURVE",
"1526 241 OFFCURVE",
"1526 733 CURVE SMOOTH"
);
},
{
closed = 1;
nodes = (
"1110 442 OFFCURVE",
"1015 309 OFFCURVE",
"815 309 CURVE SMOOTH",
"773 309 OFFCURVE",
"734 314 OFFCURVE",
"698 324 CURVE",
"1092 944 LINE",
"1104 887 OFFCURVE",
"1110 816 OFFCURVE",
"1110 733 CURVE SMOOTH"
);
},
{
closed = 1;
nodes = (
"520 1018 OFFCURVE",
"619 1161 OFFCURVE",
"817 1161 CURVE SMOOTH",
"862 1161 OFFCURVE",
"907 1152 OFFCURVE",
"952 1133 CURVE",
"549 494 LINE",
"530 550 OFFCURVE",
"520 630 OFFCURVE",
"520 733 CURVE SMOOTH"
);
}
);
width = 1632;
}
);
note = Oslash;
unicode = 00D8;
},
{
glyphname = Thorn;
lastChange = "2017-06-04 18:43:55 +0000";
layers = (
{
anchors = (
{
name = bottom;
position = "{642, 0}";
},
{
name = top;
position = "{642, 1462}";
}
);
layerId = "9722DBBA-DA2B-4164-95B3-8AF620E947BE";
paths = (
{
closed = 1;
nodes = (
"1219 1081 OFFCURVE",
"1033 1249 OFFCURVE",
"664 1249 CURVE SMOOTH",
"553 1249 LINE",
"553 1462 LINE",
"158 1462 LINE",
"158 0 LINE",
"553 0 LINE",
"553 272 LINE",
"664 272 LINE SMOOTH",
"1019 272 OFFCURVE",
"1219 457 OFFCURVE",
"1219 784 CURVE SMOOTH"
);
},
{
closed = 1;
nodes = (
"655 930 LINE SMOOTH",
"764 930 OFFCURVE",
"819 881 OFFCURVE",
"819 782 CURVE SMOOTH",
"819 665 OFFCURVE",
"744 594 OFFCURVE",
"625 594 CURVE SMOOTH",
"553 594 LINE",
"553 930 LINE"
);
}
);
width = 1284;
}
);
note = Thorn;
unicode = 00DE;
},
{
glyphname = germandbls;
lastChange = "2017-06-04 18:43:55 +0000";
layers = (
{
anchors = (
{
name = bottom;
position = "{768, 0}";
},
{
name = top;
position = "{768, 1133}";
}
);
layerId = "9722DBBA-DA2B-4164-95B3-8AF620E947BE";
paths = (
{
closed = 1;
nodes = (
"1339 1427 OFFCURVE",
"1116 1567 OFFCURVE",
"748 1567 CURVE SMOOTH",
"376 1567 OFFCURVE",
"135 1387 OFFCURVE",
"135 1100 CURVE SMOOTH",
"135 0 LINE",
"526 0 LINE",
"526 1059 LINE SMOOTH",
"526 1198 OFFCURVE",
"600 1268 OFFCURVE",
"748 1268 CURVE SMOOTH",
"869 1268 OFFCURVE",
"938 1217 OFFCURVE",
"938 1149 CURVE SMOOTH",
"938 1090 OFFCURVE",
"899 1043 OFFCURVE",
"799 974 CURVE SMOOTH",
"706 910 OFFCURVE",
"659 837 OFFCURVE",
"659 756 CURVE SMOOTH",
"659 649 OFFCURVE",
"715 583 OFFCURVE",
"883 494 CURVE SMOOTH",
"940 464 OFFCURVE",
"980 441 OFFCURVE",
"1004 426 CURVE SMOOTH",
"1052 394 OFFCURVE",
"1069 373 OFFCURVE",
"1069 336 CURVE SMOOTH",
"1069 284 OFFCURVE",
"1013 250 OFFCURVE",
"932 250 CURVE SMOOTH",
"845 250 OFFCURVE",
"718 290 OFFCURVE",
"653 330 CURVE",
"653 39 LINE",
"738 -6 OFFCURVE",
"843 -20 OFFCURVE",
"1024 -20 CURVE SMOOTH",
"1321 -20 OFFCURVE",
"1477 102 OFFCURVE",
"1477 334 CURVE SMOOTH",
"1477 499 OFFCURVE",
"1414 582 OFFCURVE",
"1189 709 CURVE SMOOTH",
"1143 734 OFFCURVE",
"1112 753 OFFCURVE",
"1096 767 CURVE SMOOTH",
"1079 781 OFFCURVE",
"1071 796 OFFCURVE",
"1071 811 CURVE SMOOTH",
"1071 830 OFFCURVE",
"1101 853 OFFCURVE",
"1141 884 CURVE SMOOTH",
"1180 915 OFFCURVE",
"1230 953 OFFCURVE",
"1270 1003 CURVE SMOOTH",
"1309 1053 OFFCURVE",
"1339 1114 OFFCURVE",
"1339 1190 CURVE SMOOTH"
);
}
);
width = 1536;
}
);
note = germandbls;
unicode = 00DF;
},
{
glyphname = ae;
lastChange = "2017-06-04 18:43:55 +0000";
layers = (
{
anchors = (
{
name = bottom;
position = "{958, 0}";
},
{
name = top;
position = "{958, 1133}";
}
);
layerId = "9722DBBA-DA2B-4164-95B3-8AF620E947BE";
paths = (
{
closed = 1;
nodes = (
"1512 -20 OFFCURVE",
"1632 -1 OFFCURVE",
"1757 63 CURVE",
"1757 344 LINE",
"1644 287 OFFCURVE",
"1522 258 OFFCURVE",
"1393 258 CURVE SMOOTH",
"1238 258 OFFCURVE",
"1138 341 OFFCURVE",
"1133 461 CURVE",
"1829 461 LINE",
"1829 633 LINE SMOOTH",
"1829 962 OFFCURVE",
"1642 1153 OFFCURVE",
"1337 1153 CURVE SMOOTH",
"1182 1153 OFFCURVE",
"1078 1124 OFFCURVE",
"985 1059 CURVE",
"895 1122 OFFCURVE",
"783 1153 OFFCURVE",
"649 1153 CURVE SMOOTH",
"473 1153 OFFCURVE",
"322 1120 OFFCURVE",
"195 1053 CURVE",
"305 797 LINE",
"422 850 OFFCURVE",
"526 877 OFFCURVE",
"618 877 CURVE SMOOTH",
"709 877 OFFCURVE",
"754 831 OFFCURVE",
"754 739 CURVE SMOOTH",
"754 721 LINE",
"571 715 LINE SMOOTH",
"240 703 OFFCURVE",
"74 582 OFFCURVE",
"74 352 CURVE SMOOTH",
"74 127 OFFCURVE",
"218 -20 OFFCURVE",
"434 -20 CURVE SMOOTH",
"514 -20 OFFCURVE",
"580 -15 OFFCURVE",
"631 -4 CURVE SMOOTH",
"734 17 OFFCURVE",
"804 59 OFFCURVE",
"911 170 CURVE",
"1011 43 OFFCURVE",
"1154 -20 OFFCURVE",
"1341 -20 CURVE SMOOTH"
);
},
{
closed = 1;
nodes = (
"756 322 OFFCURVE",
"678 256 OFFCURVE",
"586 256 CURVE SMOOTH",
"511 256 OFFCURVE",
"473 289 OFFCURVE",
"473 356 CURVE SMOOTH",
"473 453 OFFCURVE",
"531 497 OFFCURVE",
"672 502 CURVE SMOOTH",
"756 506 LINE",
"756 418 LINE SMOOTH"
);
},
{
closed = 1;
nodes = (
"1408 887 OFFCURVE",
"1476 816 OFFCURVE",
"1479 707 CURVE",
"1139 707 LINE",
"1148 827 OFFCURVE",
"1207 887 OFFCURVE",
"1315 887 CURVE SMOOTH"
);
}
);
width = 1915;
}
);
note = ae;
unicode = 00E6;
},
{
glyphname = eth;
lastChange = "2017-04-22 21:00:22 +0000";
layers = (
{
layerId = "9722DBBA-DA2B-4164-95B3-8AF620E947BE";
paths = (
{
closed = 1;
nodes = (
"1217 871 OFFCURVE",
"1136 1087 OFFCURVE",
"924 1296 CURVE",
"1069 1393 LINE",
"954 1575 LINE",
"745 1438 LINE",
"684 1479 OFFCURVE",
"595 1524 OFFCURVE",
"479 1573 CURVE",
"371 1391 LINE",
"520 1298 LINE",
"377 1206 LINE",
"494 1022 LINE",
"676 1141 LINE",
"727 1090 OFFCURVE",
"774 1021 OFFCURVE",
"819 934 CURVE",
"811 930 LINE",
"776 986 OFFCURVE",
"695 1014 OFFCURVE",
"567 1014 CURVE SMOOTH",
"276 1014 OFFCURVE",
"88 817 OFFCURVE",
"88 498 CURVE SMOOTH",
"88 178 OFFCURVE",
"304 -20 OFFCURVE",
"649 -20 CURVE SMOOTH",
"1000 -20 OFFCURVE",
"1217 213 OFFCURVE",
"1217 580 CURVE SMOOTH"
);
},
{
closed = 1;
nodes = (
"817 352 OFFCURVE",
"774 258 OFFCURVE",
"653 258 CURVE SMOOTH",
"544 258 OFFCURVE",
"489 339 OFFCURVE",
"489 500 CURVE SMOOTH",
"489 661 OFFCURVE",
"530 733 OFFCURVE",
"653 733 CURVE SMOOTH",
"752 733 OFFCURVE",
"817 657 OFFCURVE",
"817 545 CURVE SMOOTH"
);
}
);
width = 1313;
}
);
note = eth;
unicode = 00F0;
},
{
glyphname = divide;
lastChange = "2017-04-22 21:00:22 +0000";
layers = (
{
layerId = "9722DBBA-DA2B-4164-95B3-8AF620E947BE";
paths = (
{
closed = 1;
nodes = (
"1085 856 LINE",
"72 856 LINE",
"72 588 LINE",
"1085 588 LINE"
);
},
{
closed = 1;
nodes = (
"422 223 OFFCURVE",
"483 162 OFFCURVE",
"578 162 CURVE SMOOTH",
"671 162 OFFCURVE",
"735 225 OFFCURVE",
"735 332 CURVE SMOOTH",
"735 443 OFFCURVE",
"678 502 OFFCURVE",
"578 502 CURVE SMOOTH",
"475 502 OFFCURVE",
"422 441 OFFCURVE",
"422 332 CURVE SMOOTH"
);
},
{
closed = 1;
nodes = (
"422 1003 OFFCURVE",
"483 942 OFFCURVE",
"578 942 CURVE SMOOTH",
"671 942 OFFCURVE",
"735 1005 OFFCURVE",
"735 1112 CURVE SMOOTH",
"735 1223 OFFCURVE",
"678 1282 OFFCURVE",
"578 1282 CURVE SMOOTH",
"475 1282 OFFCURVE",
"422 1221 OFFCURVE",
"422 1112 CURVE SMOOTH"
);
}
);
width = 1159;
}
);
note = divide;
unicode = 00F7;
},
{
glyphname = oslash;
lastChange = "2017-06-04 18:43:55 +0000";
layers = (
{
anchors = (
{
name = top;
position = "{681, 1133}";
}
);
layerId = "9722DBBA-DA2B-4164-95B3-8AF620E947BE";
paths = (
{
closed = 1;
nodes = (
"365 -117 LINE",
"449 14 LINE",
"518 -9 OFFCURVE",
"595 -20 OFFCURVE",
"678 -20 CURVE SMOOTH",
"1055 -20 OFFCURVE",
"1274 196 OFFCURVE",
"1274 569 CURVE SMOOTH",
"1274 762 OFFCURVE",
"1213 911 OFFCURVE",
"1090 1016 CURVE",
"1157 1120 LINE",
"989 1225 LINE",
"918 1114 LINE",
"845 1140 OFFCURVE",
"767 1153 OFFCURVE",
"684 1153 CURVE SMOOTH",
"305 1153 OFFCURVE",
"86 938 OFFCURVE",
"86 569 CURVE SMOOTH",
"86 370 OFFCURVE",
"149 218 OFFCURVE",
"274 113 CURVE",
"195 -10 LINE"
);
},
{
closed = 1;
nodes = (
"461 790 OFFCURVE",
"528 883 OFFCURVE",
"680 883 CURVE SMOOTH",
"711 883 OFFCURVE",
"738 879 OFFCURVE",
"762 870 CURVE",
"473 422 LINE",
"465 454 OFFCURVE",
"461 503 OFFCURVE",
"461 569 CURVE SMOOTH"
);
},
{
closed = 1;
nodes = (
"899 338 OFFCURVE",
"834 250 OFFCURVE",
"682 250 CURVE SMOOTH",
"649 250 OFFCURVE",
"624 253 OFFCURVE",
"606 258 CURVE",
"889 700 LINE",
"896 670 OFFCURVE",
"899 626 OFFCURVE",
"899 569 CURVE SMOOTH"
);
}
);
width = 1362;
}
);
note = oslash;
unicode = 00F8;
},
{
glyphname = thorn;
lastChange = "2017-06-04 18:43:55 +0000";
layers = (
{
anchors = (
{
name = bottom;
position = "{659, 0}";
},
{
name = top;
position = "{659, 1133}";
}
);
layerId = "9722DBBA-DA2B-4164-95B3-8AF620E947BE";
paths = (
{
closed = 1;
nodes = (
"520 1066 OFFCURVE",
"526 1141 OFFCURVE",
"526 1212 CURVE SMOOTH",
"526 1556 LINE",
"135 1556 LINE",
"135 -492 LINE",
"526 -492 LINE",
"526 -43 LINE",
"519 49 LINE",
"512 109 LINE",
"526 109 LINE",
"602 23 OFFCURVE",
"698 -20 OFFCURVE",
"813 -20 CURVE SMOOTH",
"1070 -20 OFFCURVE",
"1229 208 OFFCURVE",
"1229 569 CURVE SMOOTH",
"1229 937 OFFCURVE",
"1074 1153 OFFCURVE",
"827 1153 CURVE SMOOTH",
"694 1153 OFFCURVE",
"583 1091 OFFCURVE",
"526 987 CURVE",
"508 987 LINE"
);
},
{
closed = 1;
nodes = (
"793 846 OFFCURVE",
"831 752 OFFCURVE",
"831 573 CURVE SMOOTH",
"831 390 OFFCURVE",
"795 295 OFFCURVE",
"688 295 CURVE SMOOTH",
"576 295 OFFCURVE",
"526 376 OFFCURVE",
"526 571 CURVE SMOOTH",
"526 600 LINE SMOOTH",
"530 764 OFFCURVE",
"569 846 OFFCURVE",
"682 846 CURVE SMOOTH"
);
}
);
width = 1317;
}
);
note = thorn;
unicode = 00FE;
},
{
glyphname = dcroat;
lastChange = "2017-04-22 21:00:22 +0000";
layers = (
{
layerId = "9722DBBA-DA2B-4164-95B3-8AF620E947BE";
paths = (
{
closed = 1;
nodes = (
"594 -20 OFFCURVE",
"690 34 OFFCURVE",
"760 143 CURVE",
"774 143 LINE",
"862 0 LINE",
"1182 0 LINE",
"1182 1167 LINE",
"1337 1167 LINE",
"1337 1409 LINE",
"1182 1409 LINE",
"1182 1556 LINE",
"788 1556 LINE",
"788 1409 LINE",
"557 1409 LINE",
"557 1167 LINE",
"788 1167 LINE",
"788 1157 LINE SMOOTH",
"788 1060 OFFCURVE",
"803 952 OFFCURVE",
"819 889 CURVE",
"811 889 LINE",
"740 998 OFFCURVE",
"639 1053 OFFCURVE",
"508 1053 CURVE SMOOTH",
"241 1053 OFFCURVE",
"86 855 OFFCURVE",
"86 514 CURVE SMOOTH",
"86 187 OFFCURVE",
"234 -20 OFFCURVE",
"471 -20 CURVE SMOOTH"
);
},
{
closed = 1;
nodes = (
"577 289 OFFCURVE",
"518 373 OFFCURVE",
"518 510 CURVE SMOOTH",
"518 661 OFFCURVE",
"566 737 OFFCURVE",
"662 737 CURVE SMOOTH",
"758 737 OFFCURVE",
"821 657 OFFCURVE",
"821 512 CURVE SMOOTH",
"821 487 LINE SMOOTH",
"817 354 OFFCURVE",
"780 289 OFFCURVE",
"668 289 CURVE SMOOTH"
);
}
);
width = 1358;
}
);
note = dcroat;
unicode = 0111;
},
{
glyphname = Hbar;
lastChange = "2017-04-22 21:00:22 +0000";
layers = (
{
layerId = "9722DBBA-DA2B-4164-95B3-8AF620E947BE";
paths = (
{
closed = 1;
nodes = (
"0 1067 LINE",
"174 1067 LINE",
"174 0 LINE",
"569 0 LINE",
"569 596 LINE",
"1030 596 LINE",
"1030 0 LINE",
"1427 0 LINE",
"1427 1067 LINE",
"1602 1067 LINE",
"1602 1300 LINE",
"1427 1300 LINE",
"1427 1462 LINE",
"1030 1462 LINE",
"1030 1300 LINE",
"569 1300 LINE",
"569 1462 LINE",
"174 1462 LINE",
"174 1300 LINE",
"0 1300 LINE"
);
},
{
closed = 1;
nodes = (
"569 1067 LINE",
"1030 1067 LINE",
"1030 920 LINE",
"569 920 LINE"
);
}
);
width = 1602;
}
);
note = Hbar;
unicode = 0126;
},
{
glyphname = hbar;
lastChange = "2017-04-22 21:00:22 +0000";
layers = (
{
layerId = "9722DBBA-DA2B-4164-95B3-8AF620E947BE";
paths = (
{
closed = 1;
nodes = (
"547 0 LINE",
"547 395 LINE SMOOTH",
"547 646 OFFCURVE",
"605 745 OFFCURVE",
"733 745 CURVE SMOOTH",
"823 745 OFFCURVE",
"868 669 OFFCURVE",
"868 518 CURVE SMOOTH",
"868 0 LINE",
"1262 0 LINE",
"1262 639 LINE SMOOTH",
"1262 900 OFFCURVE",
"1114 1053 OFFCURVE",
"862 1053 CURVE SMOOTH",
"725 1053 OFFCURVE",
"626 1008 OFFCURVE",
"553 893 CURVE",
"530 893 LINE",
"537 949 OFFCURVE",
"545 1077 OFFCURVE",
"545 1126 CURVE SMOOTH",
"545 1167 LINE",
"780 1167 LINE",
"780 1409 LINE",
"547 1409 LINE",
"547 1556 LINE",
"156 1556 LINE",
"156 1409 LINE",
"0 1409 LINE",
"0 1167 LINE",
"156 1167 LINE",
"156 0 LINE"
);
}
);
width = 1393;
}
);
note = hbar;
unicode = 0127;
},
{
glyphname = dotlessi;
lastChange = "2017-06-04 18:43:55 +0000";
layers = (
{
anchors = (
{
name = bottom;
position = "{333, 0}";
},
{
name = ogonek;
position = "{599, 10}";
},
{
name = top;
position = "{333, 1133}";
}
);
layerId = "9722DBBA-DA2B-4164-95B3-8AF620E947BE";
paths = (
{
closed = 1;
nodes = (
"137 1133 LINE",
"137 0 LINE",
"528 0 LINE",
"528 1133 LINE"
);
}
);
width = 666;
}
);
note = dotlessi;
unicode = 0131;
},
{
glyphname = kgreenlandic;
lastChange = "2017-06-04 18:43:55 +0000";
layers = (
{
anchors = (
{
name = bottom;
position = "{675, 0}";
},
{
name = top;
position = "{675, 1133}";
}
);
layerId = "9722DBBA-DA2B-4164-95B3-8AF620E947BE";
paths = (
{
closed = 1;
nodes = (
"893 1133 LINE",
"647 817 LINE SMOOTH",
"619 781 OFFCURVE",
"595 747 OFFCURVE",
"575 716 CURVE SMOOTH",
"555 685 OFFCURVE",
"539 660 OFFCURVE",
"526 643 CURVE",
"518 643 LINE",
"525 728 OFFCURVE",
"528 809 OFFCURVE",
"528 887 CURVE SMOOTH",
"528 1133 LINE",
"135 1133 LINE",
"135 0 LINE",
"528 0 LINE",
"528 301 LINE",
"657 399 LINE",
"909 0 LINE",
"1350 0 LINE",
"926 637 LINE",
"1331 1133 LINE"
);
}
);
width = 1350;
}
);
note = kgreenlandic;
unicode = 0138;
},
{
glyphname = Lslash;
lastChange = "2017-04-22 21:00:22 +0000";
layers = (
{
layerId = "9722DBBA-DA2B-4164-95B3-8AF620E947BE";
paths = (
{
closed = 1;
nodes = (
"1171 319 LINE",
"608 319 LINE",
"608 725 LINE",
"967 948 LINE",
"819 1192 LINE",
"608 1061 LINE",
"608 1462 LINE",
"213 1462 LINE",
"213 817 LINE",
"-31 672 LINE",
"111 424 LINE",
"213 481 LINE",
"213 0 LINE",
"1171 0 LINE"
);
}
);
width = 1247;
}
);
note = Lslash;
unicode = 0141;
},
{
glyphname = lslash;
lastChange = "2017-04-22 21:00:22 +0000";
layers = (
{
layerId = "9722DBBA-DA2B-4164-95B3-8AF620E947BE";
paths = (
{
closed = 1;
nodes = (
"233 1556 LINE",
"233 735 LINE",
"-31 584 LINE",
"109 336 LINE",
"233 403 LINE",
"233 0 LINE",
"625 0 LINE",
"625 639 LINE",
"885 793 LINE",
"739 1040 LINE",
"625 971 LINE",
"625 1556 LINE"
);
}
);
width = 854;
}
);
note = lslash;
unicode = 0142;
},
{
glyphname = Eng;
lastChange = "2017-04-22 21:00:22 +0000";
layers = (
{
layerId = "9722DBBA-DA2B-4164-95B3-8AF620E947BE";
paths = (
{
closed = 1;
nodes = (
"1351 -489 OFFCURVE",
"1550 -308 OFFCURVE",
"1550 -8 CURVE SMOOTH",
"1550 1462 LINE",
"1198 1462 LINE",
"1198 1075 LINE SMOOTH",
"1198 948 OFFCURVE",
"1203 808 OFFCURVE",
"1214 653 CURVE",
"1206 653 LINE",
"633 1462 LINE",
"158 1462 LINE",
"158 0 LINE",
"508 0 LINE",
"508 614 LINE SMOOTH",
"508 765 OFFCURVE",
"502 903 OFFCURVE",
"489 1030 CURVE",
"498 1030 LINE",
"1219 0 LINE",
"1208 -121 OFFCURVE",
"1136 -182 OFFCURVE",
"977 -182 CURVE SMOOTH",
"943 -182 OFFCURVE",
"912 -180 OFFCURVE",
"885 -175 CURVE SMOOTH",
"857 -170 OFFCURVE",
"830 -166 OFFCURVE",
"805 -162 CURVE",
"805 -469 LINE",
"868 -482 OFFCURVE",
"943 -489 OFFCURVE",
"1028 -489 CURVE SMOOTH"
);
}
);
width = 1708;
}
);
note = Eng;
unicode = 014A;
},
{
glyphname = eng;
lastChange = "2017-04-22 21:00:22 +0000";
layers = (
{
layerId = "9722DBBA-DA2B-4164-95B3-8AF620E947BE";
paths = (
{
closed = 1;
nodes = (
"1090 -492 OFFCURVE",
"1241 -343 OFFCURVE",
"1241 -92 CURVE SMOOTH",
"1241 737 LINE SMOOTH",
"1241 998 OFFCURVE",
"1094 1153 OFFCURVE",
"846 1153 CURVE SMOOTH",
"695 1153 OFFCURVE",
"571 1098 OFFCURVE",
"504 993 CURVE",
"479 993 LINE",
"430 1133 LINE",
"135 1133 LINE",
"135 0 LINE",
"526 0 LINE",
"526 496 LINE SMOOTH",
"526 752 OFFCURVE",
"581 846 OFFCURVE",
"713 846 CURVE SMOOTH",
"800 846 OFFCURVE",
"848 780 OFFCURVE",
"848 655 CURVE SMOOTH",
"848 -10 LINE SMOOTH",
"848 -123 OFFCURVE",
"810 -180 OFFCURVE",
"735 -180 CURVE SMOOTH",
"702 -180 OFFCURVE",
"663 -174 OFFCURVE",
"618 -162 CURVE",
"618 -467 LINE",
"677 -480 OFFCURVE",
"769 -492 OFFCURVE",
"829 -492 CURVE SMOOTH"
);
}
);
width = 1372;
}
);
note = eng;
unicode = 014B;
},
{
glyphname = OE;
lastChange = "2017-06-04 18:43:55 +0000";
layers = (
{
anchors = (
{
name = bottom;
position = "{980, 0}";
},
{
name = top;
position = "{980, 1462}";
}
);
layerId = "9722DBBA-DA2B-4164-95B3-8AF620E947BE";
paths = (
{
closed = 1;
nodes = (
"1389 322 LINE",
"1389 598 LINE",
"1825 598 LINE",
"1825 915 LINE",
"1389 915 LINE",
"1389 1145 LINE",
"1862 1145 LINE",
"1862 1462 LINE",
"1026 1462 LINE",
"986 1474 OFFCURVE",
"865 1485 OFFCURVE",
"776 1485 CURVE SMOOTH",
"347 1485 OFFCURVE",
"104 1214 OFFCURVE",
"104 735 CURVE SMOOTH",
"104 262 OFFCURVE",
"349 -20 OFFCURVE",
"774 -20 CURVE SMOOTH",
"850 -20 OFFCURVE",
"973 -11 OFFCURVE",
"1018 0 CURVE",
"1862 0 LINE",
"1862 322 LINE"
);
},
{
closed = 1;
nodes = (
"862 1161 OFFCURVE",
"948 1143 OFFCURVE",
"993 1112 CURVE",
"993 352 LINE",
"942 323 OFFCURVE",
"870 309 OFFCURVE",
"776 309 CURVE SMOOTH",
"607 309 OFFCURVE",
"520 460 OFFCURVE",
"520 733 CURVE SMOOTH",
"520 1012 OFFCURVE",
"611 1161 OFFCURVE",
"778 1161 CURVE SMOOTH"
);
}
);
width = 1960;
}
);
note = OE;
unicode = 0152;
},
{
glyphname = oe;
lastChange = "2017-06-04 18:43:55 +0000";
layers = (
{
anchors = (
{
name = bottom;
position = "{1004, 0}";
},
{
name = top;
position = "{1004, 1133}";
}
);
layerId = "9722DBBA-DA2B-4164-95B3-8AF620E947BE";
paths = (
{
closed = 1;
nodes = (
"1611 -20 OFFCURVE",
"1726 0 OFFCURVE",
"1849 63 CURVE",
"1849 344 LINE",
"1736 287 OFFCURVE",
"1614 258 OFFCURVE",
"1485 258 CURVE SMOOTH",
"1330 258 OFFCURVE",
"1230 341 OFFCURVE",
"1225 461 CURVE",
"1921 461 LINE",
"1921 633 LINE SMOOTH",
"1921 964 OFFCURVE",
"1733 1153 OFFCURVE",
"1430 1153 CURVE SMOOTH",
"1267 1153 OFFCURVE",
"1133 1111 OFFCURVE",
"1030 1026 CURVE",
"931 1111 OFFCURVE",
"806 1153 OFFCURVE",
"655 1153 CURVE SMOOTH",
"295 1153 OFFCURVE",
"86 938 OFFCURVE",
"86 569 CURVE SMOOTH",
"86 208 OFFCURVE",
"305 -20 OFFCURVE",
"649 -20 CURVE SMOOTH",
"816 -20 OFFCURVE",
"950 26 OFFCURVE",
"1051 117 CURVE",
"1148 26 OFFCURVE",
"1275 -20 OFFCURVE",
"1434 -20 CURVE SMOOTH"
);
},
{
closed = 1;
nodes = (
"485 762 OFFCURVE",
"532 862 OFFCURVE",
"651 862 CURVE SMOOTH",
"774 862 OFFCURVE",
"819 762 OFFCURVE",
"819 569 CURVE SMOOTH",
"819 374 OFFCURVE",
"774 270 OFFCURVE",
"653 270 CURVE SMOOTH",
"530 270 OFFCURVE",
"485 374 OFFCURVE",
"485 569 CURVE SMOOTH"
);
},
{
closed = 1;
nodes = (
"1500 887 OFFCURVE",
"1568 816 OFFCURVE",
"1571 707 CURVE",
"1231 707 LINE",
"1240 827 OFFCURVE",
"1299 887 OFFCURVE",
"1407 887 CURVE SMOOTH"
);
}
);
width = 2007;
}
);
note = oe;
unicode = 0153;
},
{
glyphname = Tbar;
lastChange = "2017-04-22 21:00:22 +0000";
layers = (
{
layerId = "9722DBBA-DA2B-4164-95B3-8AF620E947BE";
paths = (
{
closed = 1;
nodes = (
"201 547 LINE",
"408 547 LINE",
"408 0 LINE",
"803 0 LINE",
"803 547 LINE",
"1014 547 LINE",
"1014 872 LINE",
"803 872 LINE",
"803 1139 LINE",
"1159 1139 LINE",
"1159 1462 LINE",
"51 1462 LINE",
"51 1139 LINE",
"408 1139 LINE",
"408 872 LINE",
"201 872 LINE"
);
}
);
width = 1210;
}
);
note = Tbar;
unicode = 0166;
},
{
glyphname = tbar;
lastChange = "2017-04-22 21:00:22 +0000";
layers = (
{
layerId = "9722DBBA-DA2B-4164-95B3-8AF620E947BE";
paths = (
{
closed = 1;
nodes = (
"622 289 OFFCURVE",
"584 315 OFFCURVE",
"584 399 CURVE SMOOTH",
"584 444 LINE",
"848 444 LINE",
"848 688 LINE",
"584 688 LINE",
"584 840 LINE",
"893 840 LINE",
"893 1133 LINE",
"584 1133 LINE",
"584 1360 LINE",
"328 1360 LINE",
"227 1122 LINE",
"53 999 LINE",
"53 840 LINE",
"190 840 LINE",
"190 688 LINE",
"74 688 LINE",
"74 444 LINE",
"190 444 LINE",
"190 373 LINE SMOOTH",
"190 106 OFFCURVE",
"298 -20 OFFCURVE",
"561 -20 CURVE SMOOTH",
"696 -20 OFFCURVE",
"812 1 OFFCURVE",
"909 43 CURVE",
"909 334 LINE",
"839 312 OFFCURVE",
"792 299 OFFCURVE",
"767 295 CURVE SMOOTH",
"742 291 OFFCURVE",
"717 289 OFFCURVE",
"690 289 CURVE SMOOTH"
);
}
);
width = 983;
}
);
note = tbar;
unicode = 0167;
},
{
glyphname = longs;
lastChange = "2017-06-04 18:43:55 +0000";
layers = (
{
anchors = (
{
name = bottom;
position = "{413, 0}";
},
{
name = top;
position = "{413, 1133}";
}
);
layerId = "9722DBBA-DA2B-4164-95B3-8AF620E947BE";
paths = (
{
closed = 1;
nodes = (
"526 1249 OFFCURVE",
"555 1286 OFFCURVE",
"635 1286 CURVE SMOOTH",
"666 1286 OFFCURVE",
"693 1282 OFFCURVE",
"717 1275 CURVE SMOOTH",
"741 1268 OFFCURVE",
"766 1260 OFFCURVE",
"791 1253 CURVE",
"866 1513 LINE",
"781 1549 OFFCURVE",
"676 1567 OFFCURVE",
"551 1567 CURVE SMOOTH",
"442 1567 OFFCURVE",
"360 1553 OFFCURVE",
"304 1526 CURVE SMOOTH",
"191 1470 OFFCURVE",
"135 1350 OFFCURVE",
"135 1145 CURVE SMOOTH",
"135 0 LINE",
"526 0 LINE",
"526 1137 LINE SMOOTH"
);
}
);
width = 825;
}
);
note = longs;
unicode = 017F;
},
{
glyphname = florin;
lastChange = "2017-04-22 21:00:22 +0000";
layers = (
{
layerId = "9722DBBA-DA2B-4164-95B3-8AF620E947BE";
paths = (
{
closed = 1;
nodes = (
"735 1133 LINE",
"735 1137 LINE SMOOTH",
"735 1240 OFFCURVE",
"765 1280 OFFCURVE",
"836 1280 CURVE SMOOTH",
"875 1280 OFFCURVE",
"922 1272 OFFCURVE",
"975 1255 CURVE",
"1051 1513 LINE",
"944 1549 OFFCURVE",
"836 1567 OFFCURVE",
"725 1567 CURVE SMOOTH",
"460 1567 OFFCURVE",
"352 1449 OFFCURVE",
"352 1165 CURVE SMOOTH",
"352 1128 LINE",
"195 1032 LINE",
"195 840 LINE",
"344 840 LINE",
"344 -37 LINE SMOOTH",
"344 -132 OFFCURVE",
"313 -180 OFFCURVE",
"250 -180 CURVE SMOOTH",
"217 -180 OFFCURVE",
"180 -174 OFFCURVE",
"139 -162 CURVE",
"139 -463 LINE",
"198 -482 OFFCURVE",
"298 -492 OFFCURVE",
"354 -492 CURVE SMOOTH",
"597 -492 OFFCURVE",
"735 -347 OFFCURVE",
"735 -84 CURVE SMOOTH",
"735 840 LINE",
"991 840 LINE",
"991 1133 LINE"
);
}
);
width = 1137;
}
);
note = florin;
unicode = 0192;
},
{
glyphname = Aringacute;
lastChange = "2017-04-22 21:00:22 +0000";
layers = (
{
layerId = "9722DBBA-DA2B-4164-95B3-8AF620E947BE";
paths = (
{
closed = 1;
nodes = (
"1012 1630 OFFCURVE",
"898 1735 OFFCURVE",
"739 1735 CURVE SMOOTH",
"579 1735 OFFCURVE",
"475 1636 OFFCURVE",
"475 1481 CURVE SMOOTH",
"475 1445 OFFCURVE",
"480 1413 OFFCURVE",
"489 1386 CURVE",
"477 1386 LINE",
"0 0 LINE",
"434 0 LINE",
"508 274 LINE",
"977 274 LINE",
"1055 0 LINE",
"1487 0 LINE",
"1004 1386 LINE",
"993 1386 LINE",
"1006 1414 OFFCURVE",
"1012 1446 OFFCURVE",
"1012 1483 CURVE SMOOTH"
);
},
{
closed = 1;
nodes = (
"665 841 OFFCURVE",
"706 983 OFFCURVE",
"717 1026 CURVE SMOOTH",
"728 1069 OFFCURVE",
"736 1110 OFFCURVE",
"743 1147 CURVE",
"756 1075 OFFCURVE",
"802 906 OFFCURVE",
"831 811 CURVE SMOOTH",
"895 602 LINE",
"596 602 LINE"
);
},
{
closed = 1;
nodes = (
"831 1790 LINE",
"936 1822 OFFCURVE",
"1137 1906 OFFCURVE",
"1176 1942 CURVE",
"1176 1962 LINE",
"745 1962 LINE",
"700 1911 OFFCURVE",
"619 1846 OFFCURVE",
"571 1815 CURVE",
"571 1790 LINE"
);
},
{
closed = 1;
nodes = (
"823 1432 OFFCURVE",
"786 1397 OFFCURVE",
"739 1397 CURVE SMOOTH",
"683 1397 OFFCURVE",
"655 1432 OFFCURVE",
"655 1481 CURVE SMOOTH",
"655 1532 OFFCURVE",
"692 1565 OFFCURVE",
"739 1565 CURVE SMOOTH",
"786 1565 OFFCURVE",
"823 1532 OFFCURVE",
"823 1481 CURVE SMOOTH"
);
}
);
width = 1483;
}
);
note = Aringacute;
unicode = 01FA;
},
{
glyphname = aringacute;
lastChange = "2017-04-22 21:00:22 +0000";
layers = (
{
layerId = "9722DBBA-DA2B-4164-95B3-8AF620E947BE";
paths = (
{
closed = 1;
nodes = (
"1145 743 LINE SMOOTH",
"1145 1002 OFFCURVE",
"979 1153 OFFCURVE",
"688 1153 CURVE SMOOTH",
"487 1153 OFFCURVE",
"320 1119 OFFCURVE",
"188 1051 CURVE",
"301 793 LINE",
"428 849 OFFCURVE",
"533 877 OFFCURVE",
"616 877 CURVE SMOOTH",
"708 877 OFFCURVE",
"754 830 OFFCURVE",
"754 737 CURVE SMOOTH",
"754 721 LINE",
"565 715 LINE SMOOTH",
"217 704 OFFCURVE",
"74 592 OFFCURVE",
"74 352 CURVE SMOOTH",
"74 116 OFFCURVE",
"203 -20 OFFCURVE",
"418 -20 CURVE SMOOTH",
"591 -20 OFFCURVE",
"686 19 OFFCURVE",
"791 150 CURVE",
"799 150 LINE",
"874 0 LINE",
"1145 0 LINE"
);
},
{
closed = 1;
nodes = (
"510 256 OFFCURVE",
"473 291 OFFCURVE",
"473 360 CURVE SMOOTH",
"473 450 OFFCURVE",
"537 497 OFFCURVE",
"666 502 CURVE SMOOTH",
"756 506 LINE",
"756 418 LINE SMOOTH",
"756 322 OFFCURVE",
"679 256 OFFCURVE",
"584 256 CURVE SMOOTH"
);
},
{
closed = 1;
nodes = (
"802 1810 OFFCURVE",
"872 1851 OFFCURVE",
"927 1886 CURVE SMOOTH",
"982 1921 OFFCURVE",
"1016 1946 OFFCURVE",
"1030 1962 CURVE",
"1030 1974 LINE",
"637 1974 LINE",
"601 1925 OFFCURVE",
"530 1842 OFFCURVE",
"463 1782 CURVE",
"463 1765 LINE",
"717 1765 LINE"
);
},
{
closed = 1;
nodes = (
"926 1611 OFFCURVE",
"810 1712 OFFCURVE",
"653 1712 CURVE SMOOTH",
"493 1712 OFFCURVE",
"389 1613 OFFCURVE",
"389 1458 CURVE SMOOTH",
"389 1306 OFFCURVE",
"493 1206 OFFCURVE",
"653 1206 CURVE SMOOTH",
"814 1206 OFFCURVE",
"926 1312 OFFCURVE",
"926 1460 CURVE SMOOTH"
);
},
{
closed = 1;
nodes = (
"737 1409 OFFCURVE",
"700 1374 OFFCURVE",
"653 1374 CURVE SMOOTH",
"597 1374 OFFCURVE",
"569 1409 OFFCURVE",
"569 1458 CURVE SMOOTH",
"569 1509 OFFCURVE",
"606 1542 OFFCURVE",
"653 1542 CURVE SMOOTH",
"700 1542 OFFCURVE",
"737 1509 OFFCURVE",
"737 1458 CURVE SMOOTH"
);
}
);
width = 1276;
}
);
note = aringacute;
unicode = 01FB;
},
{
glyphname = circumflex;
lastChange = "2017-04-22 21:00:22 +0000";
layers = (
{
layerId = "9722DBBA-DA2B-4164-95B3-8AF620E947BE";
paths = (
{
closed = 1;
nodes = (
"1071 1270 LINE",
"963 1378 OFFCURVE",
"878 1478 OFFCURVE",
"815 1569 CURVE",
"422 1569 LINE",
"371 1492 OFFCURVE",
"256 1357 OFFCURVE",
"164 1270 CURVE",
"164 1241 LINE",
"422 1241 LINE",
"468 1270 OFFCURVE",
"533 1320 OFFCURVE",
"616 1391 CURVE",
"694 1323 OFFCURVE",
"761 1273 OFFCURVE",
"817 1241 CURVE",
"1071 1241 LINE"
);
}
);
width = 1237;
}
);
note = circumflex;
unicode = 02C6;
},
{
glyphname = caron;
lastChange = "2017-04-22 21:00:22 +0000";
layers = (
{
layerId = "9722DBBA-DA2B-4164-95B3-8AF620E947BE";
paths = (
{
closed = 1;
nodes = (
"761 1537 OFFCURVE",
"694 1487 OFFCURVE",
"616 1419 CURVE",
"533 1490 OFFCURVE",
"468 1540 OFFCURVE",
"422 1569 CURVE",
"164 1569 LINE",
"164 1540 LINE",
"265 1441 OFFCURVE",
"370 1321 OFFCURVE",
"422 1241 CURVE",
"815 1241 LINE",
"874 1328 OFFCURVE",
"983 1452 OFFCURVE",
"1071 1540 CURVE",
"1071 1569 LINE",
"817 1569 LINE"
);
}
);
width = 1237;
}
);
note = caron;
unicode = 02C7;
},
{
glyphname = macron;
lastChange = "2017-04-22 21:00:22 +0000";
layers = (
{
layerId = "9722DBBA-DA2B-4164-95B3-8AF620E947BE";
paths = (
{
closed = 1;
nodes = (
"971 1241 LINE",
"971 1477 LINE",
"244 1477 LINE",
"244 1241 LINE"
);
}
);
width = 1214;
}
);
note = macron;
unicode = 02C9;
},
{
glyphname = breve;
lastChange = "2017-04-22 21:00:22 +0000";
layers = (
{
layerId = "9722DBBA-DA2B-4164-95B3-8AF620E947BE";
paths = (
{
closed = 1;
nodes = (
"774 1521 OFFCURVE",
"718 1481 OFFCURVE",
"610 1481 CURVE SMOOTH",
"483 1481 OFFCURVE",
"447 1508 OFFCURVE",
"420 1612 CURVE",
"209 1612 LINE",
"221 1371 OFFCURVE",
"361 1241 OFFCURVE",
"610 1241 CURVE SMOOTH",
"853 1241 OFFCURVE",
"1005 1384 OFFCURVE",
"1018 1612 CURVE",
"799 1612 LINE"
);
}
);
width = 1225;
}
);
note = breve;
unicode = 02D8;
},
{
glyphname = dotaccent;
lastChange = "2017-04-22 21:00:22 +0000";
layers = (
{
layerId = "9722DBBA-DA2B-4164-95B3-8AF620E947BE";
paths = (
{
closed = 1;
nodes = (
"127 1300 OFFCURVE",
"196 1243 OFFCURVE",
"334 1243 CURVE SMOOTH",
"473 1243 OFFCURVE",
"543 1300 OFFCURVE",
"543 1415 CURVE SMOOTH",
"543 1530 OFFCURVE",
"479 1589 OFFCURVE",
"334 1589 CURVE SMOOTH",
"189 1589 OFFCURVE",
"127 1532 OFFCURVE",
"127 1415 CURVE SMOOTH"
);
}
);
width = 666;
}
);
note = dotaccent;
unicode = 02D9;
},
{
glyphname = ring;
lastChange = "2017-04-22 21:00:22 +0000";
layers = (
{
layerId = "9722DBBA-DA2B-4164-95B3-8AF620E947BE";
paths = (
{
closed = 1;
nodes = (
"829 1640 OFFCURVE",
"714 1743 OFFCURVE",
"557 1743 CURVE SMOOTH",
"396 1743 OFFCURVE",
"293 1644 OFFCURVE",
"293 1489 CURVE SMOOTH",
"293 1336 OFFCURVE",
"396 1237 OFFCURVE",
"557 1237 CURVE SMOOTH",
"717 1237 OFFCURVE",
"829 1340 OFFCURVE",
"829 1491 CURVE SMOOTH"
);
},
{
closed = 1;
nodes = (
"641 1440 OFFCURVE",
"604 1405 OFFCURVE",
"557 1405 CURVE SMOOTH",
"501 1405 OFFCURVE",
"473 1440 OFFCURVE",
"473 1489 CURVE SMOOTH",
"473 1540 OFFCURVE",
"510 1573 OFFCURVE",
"557 1573 CURVE SMOOTH",
"604 1573 OFFCURVE",
"641 1540 OFFCURVE",
"641 1489 CURVE SMOOTH"
);
}
);
width = 1120;
}
);
note = ring;
unicode = 02DA;
},
{
glyphname = ogonek;
lastChange = "2017-04-22 21:00:22 +0000";
layers = (
{
layerId = "9722DBBA-DA2B-4164-95B3-8AF620E947BE";
paths = (
{
closed = 1;
nodes = (
"248 -173 OFFCURVE",
"257 -146 OFFCURVE",
"275 -117 CURVE SMOOTH",
"293 -88 OFFCURVE",
"328 -49 OFFCURVE",
"381 0 CURVE",
"168 0 LINE",
"43 -88 OFFCURVE",
"-6 -168 OFFCURVE",
"-6 -260 CURVE SMOOTH",
"-6 -397 OFFCURVE",
"107 -492 OFFCURVE",
"270 -492 CURVE SMOOTH",
"331 -492 OFFCURVE",
"389 -483 OFFCURVE",
"444 -465 CURVE",
"444 -244 LINE",
"412 -259 OFFCURVE",
"373 -266 OFFCURVE",
"326 -266 CURVE SMOOTH",
"274 -266 OFFCURVE",
"248 -244 OFFCURVE",
"248 -199 CURVE SMOOTH"
);
}
);
width = 434;
}
);
note = ogonek;
unicode = 02DB;
},
{
glyphname = tilde;
lastChange = "2017-04-22 21:00:22 +0000";
layers = (
{
layerId = "9722DBBA-DA2B-4164-95B3-8AF620E947BE";
paths = (
{
closed = 1;
nodes = (
"917 1239 OFFCURVE",
"1003 1358 OFFCURVE",
"1018 1581 CURVE",
"836 1581 LINE",
"824 1517 OFFCURVE",
"803 1483 OFFCURVE",
"764 1483 CURVE SMOOTH",
"713 1483 OFFCURVE",
"655 1507 OFFCURVE",
"596 1531 CURVE SMOOTH",
"537 1555 OFFCURVE",
"479 1579 OFFCURVE",
"428 1579 CURVE SMOOTH",
"269 1579 OFFCURVE",
"191 1470 OFFCURVE",
"176 1237 CURVE",
"356 1237 LINE",
"368 1302 OFFCURVE",
"392 1335 OFFCURVE",
"428 1335 CURVE SMOOTH",
"477 1335 OFFCURVE",
"533 1311 OFFCURVE",
"592 1287 CURVE SMOOTH",
"651 1263 OFFCURVE",
"712 1239 OFFCURVE",
"772 1239 CURVE SMOOTH"
);
}
);
width = 1225;
}
);
note = tilde;
unicode = 02DC;
},
{
glyphname = hungarumlaut;
lastChange = "2017-04-22 21:00:22 +0000";
layers = (
{
layerId = "9722DBBA-DA2B-4164-95B3-8AF620E947BE";
paths = (
{
closed = 1;
nodes = (
"472 1373 OFFCURVE",
"623 1496 OFFCURVE",
"655 1548 CURVE",
"655 1569 LINE",
"285 1569 LINE",
"257 1520 OFFCURVE",
"204 1442 OFFCURVE",
"127 1337 CURVE SMOOTH",
"78 1270 LINE",
"78 1241 LINE",
"281 1241 LINE"
);
},
{
closed = 1;
nodes = (
"906 1350 OFFCURVE",
"1085 1491 OFFCURVE",
"1120 1548 CURVE",
"1120 1569 LINE",
"748 1569 LINE",
"720 1518 OFFCURVE",
"667 1440 OFFCURVE",
"590 1337 CURVE SMOOTH",
"541 1270 LINE",
"541 1241 LINE",
"743 1241 LINE"
);
}
);
width = 1198;
}
);
note = hungarumlaut;
unicode = 02DD;
},
{
glyphname = tonos;
lastChange = "2017-06-04 18:43:55 +0000";
layers = (
{
anchors = (
{
name = _top;
position = "{616, 1133}";
}
);
layerId = "9722DBBA-DA2B-4164-95B3-8AF620E947BE";
paths = (
{
closed = 1;
nodes = (
"631 1241 LINE",
"706 1362 OFFCURVE",
"770 1482 OFFCURVE",
"825 1602 CURVE",
"825 1628 LINE",
"481 1628 LINE",
"469 1544 OFFCURVE",
"433 1365 OFFCURVE",
"406 1274 CURVE",
"406 1241 LINE"
);
}
);
width = 1108;
}
);
note = tonos;
unicode = 0384;
},
{
glyphname = dieresistonos;
lastChange = "2017-06-04 18:43:55 +0000";
layers = (
{
anchors = (
{
name = _top;
position = "{579, 1133}";
}
);
layerId = "9722DBBA-DA2B-4164-95B3-8AF620E947BE";
paths = (
{
closed = 1;
nodes = (
"633 1389 LINE",
"716 1515 OFFCURVE",
"774 1617 OFFCURVE",
"807 1696 CURVE",
"807 1716 LINE",
"500 1716 LINE",
"498 1657 OFFCURVE",
"485 1557 OFFCURVE",
"461 1417 CURVE",
"461 1389 LINE"
);
},
{
closed = 1;
nodes = (
"115 1309 OFFCURVE",
"166 1257 OFFCURVE",
"268 1257 CURVE SMOOTH",
"360 1257 OFFCURVE",
"424 1306 OFFCURVE",
"424 1413 CURVE SMOOTH",
"424 1522 OFFCURVE",
"360 1571 OFFCURVE",
"268 1571 CURVE SMOOTH",
"166 1571 OFFCURVE",
"115 1518 OFFCURVE",
"115 1413 CURVE SMOOTH"
);
},
{
closed = 1;
nodes = (
"729 1309 OFFCURVE",
"782 1257 OFFCURVE",
"887 1257 CURVE SMOOTH",
"982 1257 OFFCURVE",
"1042 1306 OFFCURVE",
"1042 1413 CURVE SMOOTH",
"1042 1522 OFFCURVE",
"982 1571 OFFCURVE",
"887 1571 CURVE SMOOTH",
"782 1571 OFFCURVE",
"729 1518 OFFCURVE",
"729 1413 CURVE SMOOTH"
);
}
);
width = 1157;
}
);
note = dieresistonos;
unicode = 0385;
},
{
glyphname = Gamma;
lastChange = "2017-04-22 21:00:22 +0000";
layers = (
{
layerId = "9722DBBA-DA2B-4164-95B3-8AF620E947BE";
paths = (
{
closed = 1;
nodes = (
"158 0 LINE",
"555 0 LINE",
"555 1143 LINE",
"1133 1143 LINE",
"1133 1462 LINE",
"158 1462 LINE"
);
}
);
width = 1184;
}
);
note = Gamma;
unicode = 0393;
},
{
glyphname = Theta;
lastChange = "2017-04-22 21:00:22 +0000";
layers = (
{
layerId = "9722DBBA-DA2B-4164-95B3-8AF620E947BE";
paths = (
{
closed = 1;
nodes = (
"1526 1226 OFFCURVE",
"1282 1485 OFFCURVE",
"817 1485 CURVE SMOOTH",
"353 1485 OFFCURVE",
"104 1222 OFFCURVE",
"104 735 CURVE SMOOTH",
"104 243 OFFCURVE",
"356 -20 OFFCURVE",
"815 -20 CURVE SMOOTH",
"1280 -20 OFFCURVE",
"1526 241 OFFCURVE",
"1526 733 CURVE SMOOTH"
);
},
{
closed = 1;
nodes = (
"496 1029 OFFCURVE",
"600 1174 OFFCURVE",
"817 1174 CURVE SMOOTH",
"1033 1174 OFFCURVE",
"1135 1032 OFFCURVE",
"1135 733 CURVE SMOOTH",
"1135 434 OFFCURVE",
"1032 297 OFFCURVE",
"815 297 CURVE SMOOTH",
"603 297 OFFCURVE",
"496 437 OFFCURVE",
"496 733 CURVE SMOOTH"
);
},
{
closed = 1;
nodes = (
"1022 594 LINE",
"1022 893 LINE",
"610 893 LINE",
"610 594 LINE"
);
}
);
width = 1632;
}
);
note = Theta;
unicode = 0398;
},
{
glyphname = Lambda;
lastChange = "2017-04-22 21:00:22 +0000";
layers = (
{
layerId = "9722DBBA-DA2B-4164-95B3-8AF620E947BE";
paths = (
{
closed = 1;
nodes = (
"672 838 OFFCURVE",
"704 1017 OFFCURVE",
"711 1085 CURVE",
"715 1021 OFFCURVE",
"753 842 OFFCURVE",
"778 741 CURVE SMOOTH",
"977 0 LINE",
"1421 0 LINE",
"944 1462 LINE",
"479 1462 LINE",
"0 0 LINE",
"442 0 LINE",
"645 745 LINE SMOOTH"
);
}
);
width = 1421;
}
);
note = Lambda;
unicode = 039B;
},
{
glyphname = Xi;
lastChange = "2017-04-22 21:00:22 +0000";
layers = (
{
layerId = "9722DBBA-DA2B-4164-95B3-8AF620E947BE";
paths = (
{
closed = 1;
nodes = (
"973 598 LINE",
"973 915 LINE",
"203 915 LINE",
"203 598 LINE"
);
},
{
closed = 1;
nodes = (
"1055 1145 LINE",
"1055 1462 LINE",
"121 1462 LINE",
"121 1145 LINE"
);
},
{
closed = 1;
nodes = (
"80 0 LINE",
"1096 0 LINE",
"1096 322 LINE",
"80 322 LINE"
);
}
);
width = 1176;
}
);
note = Xi;
unicode = 039E;
},
{
glyphname = Pi;
lastChange = "2017-04-22 21:00:22 +0000";
layers = (
{
layerId = "9722DBBA-DA2B-4164-95B3-8AF620E947BE";
paths = (
{
closed = 1;
nodes = (
"158 1462 LINE",
"158 0 LINE",
"555 0 LINE",
"555 1139 LINE",
"958 1139 LINE",
"958 0 LINE",
"1356 0 LINE",
"1356 1462 LINE"
);
}
);
width = 1513;
}
);
note = Pi;
unicode = 03A0;
},
{
glyphname = Sigma;
lastChange = "2017-04-22 21:00:22 +0000";
layers = (
{
layerId = "9722DBBA-DA2B-4164-95B3-8AF620E947BE";
paths = (
{
closed = 1;
nodes = (
"1157 322 LINE",
"756 322 LINE SMOOTH",
"683 322 OFFCURVE",
"599 318 OFFCURVE",
"504 309 CURVE",
"948 770 LINE",
"526 1155 LINE",
"578 1148 OFFCURVE",
"657 1145 OFFCURVE",
"762 1145 CURVE SMOOTH",
"1098 1145 LINE",
"1098 1462 LINE",
"86 1462 LINE",
"86 1165 LINE",
"518 768 LINE",
"74 307 LINE",
"74 0 LINE",
"1157 0 LINE"
);
}
);
width = 1233;
}
);
note = Sigma;
unicode = 03A3;
},
{
glyphname = Phi;
lastChange = "2017-04-22 21:00:22 +0000";
layers = (
{
layerId = "9722DBBA-DA2B-4164-95B3-8AF620E947BE";
paths = (
{
closed = 1;
nodes = (
"688 1303 LINE SMOOTH",
"565 1303 OFFCURVE",
"458 1282 OFFCURVE",
"367 1239 CURVE SMOOTH",
"183 1153 OFFCURVE",
"76 975 OFFCURVE",
"76 758 CURVE SMOOTH",
"76 643 OFFCURVE",
"100 544 OFFCURVE",
"148 462 CURVE SMOOTH",
"244 297 OFFCURVE",
"436 205 OFFCURVE",
"705 205 CURVE SMOOTH",
"725 205 LINE",
"725 -20 LINE",
"1106 -20 LINE",
"1106 205 LINE",
"1118 205 LINE SMOOTH",
"1253 205 OFFCURVE",
"1369 228 OFFCURVE",
"1464 273 CURVE SMOOTH",
"1655 364 OFFCURVE",
"1755 535 OFFCURVE",
"1755 756 CURVE SMOOTH",
"1755 862 OFFCURVE",
"1730 957 OFFCURVE",
"1680 1040 CURVE SMOOTH",
"1579 1207 OFFCURVE",
"1386 1303 OFFCURVE",
"1135 1303 CURVE SMOOTH",
"1106 1303 LINE",
"1106 1483 LINE",
"725 1483 LINE",
"725 1303 LINE"
);
},
{
closed = 1;
nodes = (
"1122 1001 LINE SMOOTH",
"1279 1001 OFFCURVE",
"1370 910 OFFCURVE",
"1370 758 CURVE SMOOTH",
"1370 585 OFFCURVE",
"1286 504 OFFCURVE",
"1118 504 CURVE SMOOTH",
"1106 504 LINE",
"1106 1001 LINE"
);
},
{
closed = 1;
nodes = (
"705 504 LINE SMOOTH",
"541 504 OFFCURVE",
"461 578 OFFCURVE",
"461 758 CURVE SMOOTH",
"461 917 OFFCURVE",
"546 1001 OFFCURVE",
"702 1001 CURVE SMOOTH",
"725 1001 LINE",
"725 504 LINE"
);
}
);
width = 1831;
}
);
note = Phi;
unicode = 03A6;
},
{
glyphname = Psi;
lastChange = "2017-04-22 21:00:22 +0000";
layers = (
{
layerId = "9722DBBA-DA2B-4164-95B3-8AF620E947BE";
paths = (
{
closed = 1;
nodes = (
"1182 397 LINE SMOOTH",
"1609 397 OFFCURVE",
"1792 578 OFFCURVE",
"1792 985 CURVE SMOOTH",
"1792 1462 LINE",
"1403 1462 LINE",
"1403 958 LINE SMOOTH",
"1403 809 OFFCURVE",
"1315 723 OFFCURVE",
"1163 723 CURVE SMOOTH",
"1143 723 LINE",
"1143 1462 LINE",
"762 1462 LINE",
"762 723 LINE",
"745 723 LINE SMOOTH",
"570 723 OFFCURVE",
"502 795 OFFCURVE",
"502 963 CURVE SMOOTH",
"502 1462 LINE",
"113 1462 LINE",
"113 958 LINE SMOOTH",
"113 561 OFFCURVE",
"290 397 OFFCURVE",
"725 397 CURVE SMOOTH",
"762 397 LINE",
"762 0 LINE",
"1143 0 LINE",
"1143 397 LINE"
);
}
);
width = 1905;
}
);
note = Psi;
unicode = 03A8;
},
{
glyphname = uni03A9;
lastChange = "2017-06-04 18:43:55 +0000";
layers = (
{
anchors = (
{
name = bottom;
position = "{815, 0}";
},
{
name = topleft;
position = "{20, 1462}";
}
);
layerId = "9722DBBA-DA2B-4164-95B3-8AF620E947BE";
paths = (
{
closed = 1;
nodes = (
"1006 1161 OFFCURVE",
"1122 1022 OFFCURVE",
"1122 801 CURVE SMOOTH",
"1122 584 OFFCURVE",
"1063 465 OFFCURVE",
"903 365 CURVE",
"903 0 LINE",
"1581 0 LINE",
"1581 324 LINE",
"1200 324 LINE",
"1411 429 OFFCURVE",
"1528 629 OFFCURVE",
"1528 866 CURVE SMOOTH",
"1528 989 OFFCURVE",
"1499 1098 OFFCURVE",
"1440 1193 CURVE SMOOTH",
"1323 1381 OFFCURVE",
"1098 1485 OFFCURVE",
"815 1485 CURVE SMOOTH",
"382 1485 OFFCURVE",
"102 1247 OFFCURVE",
"102 864 CURVE SMOOTH",
"102 631 OFFCURVE",
"223 420 OFFCURVE",
"422 324 CURVE",
"49 324 LINE",
"49 0 LINE",
"721 0 LINE",
"721 365 LINE",
"569 461 OFFCURVE",
"508 578 OFFCURVE",
"508 797 CURVE SMOOTH",
"508 1020 OFFCURVE",
"623 1161 OFFCURVE",
"815 1161 CURVE SMOOTH"
);
}
);
width = 1630;
}
);
note = uni03A9;
unicode = 03A9;
},
{
glyphname = alpha;
lastChange = "2017-06-04 18:43:55 +0000";
layers = (
{
anchors = (
{
name = top;
position = "{688, 1133}";
}
);
layerId = "9722DBBA-DA2B-4164-95B3-8AF620E947BE";
paths = (
{
closed = 1;
nodes = (
"655 -20 OFFCURVE",
"761 36 OFFCURVE",
"834 147 CURVE",
"858 147 LINE",
"915 28 OFFCURVE",
"997 -20 OFFCURVE",
"1169 -20 CURVE SMOOTH",
"1208 -20 OFFCURVE",
"1304 -7 OFFCURVE",
"1325 6 CURVE",
"1325 297 LINE",
"1307 290 OFFCURVE",
"1287 287 OFFCURVE",
"1266 287 CURVE SMOOTH",
"1211 287 OFFCURVE",
"1184 327 OFFCURVE",
"1184 408 CURVE SMOOTH",
"1184 664 LINE SMOOTH",
"1184 813 OFFCURVE",
"1216 993 OFFCURVE",
"1268 1133 CURVE",
"940 1133 LINE",
"913 1102 OFFCURVE",
"889 1051 OFFCURVE",
"870 981 CURVE",
"854 981 LINE",
"791 1096 OFFCURVE",
"698 1149 OFFCURVE",
"543 1149 CURVE SMOOTH",
"255 1149 OFFCURVE",
"86 934 OFFCURVE",
"86 561 CURVE SMOOTH",
"86 198 OFFCURVE",
"247 -20 OFFCURVE",
"516 -20 CURVE SMOOTH"
);
},
{
closed = 1;
nodes = (
"538 283 OFFCURVE",
"483 375 OFFCURVE",
"483 559 CURVE SMOOTH",
"483 744 OFFCURVE",
"538 846 OFFCURVE",
"645 846 CURVE SMOOTH",
"768 846 OFFCURVE",
"823 762 OFFCURVE",
"823 563 CURVE SMOOTH",
"823 553 LINE SMOOTH",
"820 352 OFFCURVE",
"768 283 OFFCURVE",
"649 283 CURVE SMOOTH"
);
}
);
width = 1376;
}
);
note = alpha;
unicode = 03B1;
},
{
glyphname = beta;
lastChange = "2017-04-22 21:00:22 +0000";
layers = (
{
layerId = "9722DBBA-DA2B-4164-95B3-8AF620E947BE";
paths = (
{
closed = 1;
nodes = (
"345 1567 OFFCURVE",
"135 1395 OFFCURVE",
"135 1096 CURVE SMOOTH",
"135 -492 LINE",
"526 -492 LINE",
"526 39 LINE",
"595 4 OFFCURVE",
"712 -20 OFFCURVE",
"840 -20 CURVE SMOOTH",
"1132 -20 OFFCURVE",
"1321 160 OFFCURVE",
"1321 444 CURVE SMOOTH",
"1321 664 OFFCURVE",
"1206 790 OFFCURVE",
"950 823 CURVE",
"950 831 LINE",
"1129 860 OFFCURVE",
"1231 974 OFFCURVE",
"1231 1171 CURVE SMOOTH",
"1231 1419 OFFCURVE",
"1033 1567 OFFCURVE",
"702 1567 CURVE SMOOTH"
);
},
{
closed = 1;
nodes = (
"781 1276 OFFCURVE",
"842 1218 OFFCURVE",
"842 1114 CURVE SMOOTH",
"842 1010 OFFCURVE",
"791 944 OFFCURVE",
"700 944 CURVE SMOOTH",
"662 944 LINE",
"662 653 LINE",
"719 653 LINE SMOOTH",
"848 653 OFFCURVE",
"924 586 OFFCURVE",
"924 481 CURVE SMOOTH",
"924 352 OFFCURVE",
"845 287 OFFCURVE",
"717 287 CURVE SMOOTH",
"656 287 OFFCURVE",
"566 311 OFFCURVE",
"526 340 CURVE",
"526 1061 LINE SMOOTH",
"526 1205 OFFCURVE",
"577 1276 OFFCURVE",
"690 1276 CURVE SMOOTH"
);
}
);
width = 1403;
}
);
note = beta;
unicode = 03B2;
},
{
glyphname = gamma;
lastChange = "2017-04-22 21:00:22 +0000";
layers = (
{
layerId = "9722DBBA-DA2B-4164-95B3-8AF620E947BE";
paths = (
{
closed = 1;
nodes = (
"725 -345 OFFCURVE",
"766 -134 OFFCURVE",
"823 14 CURVE SMOOTH",
"1241 1133 LINE",
"834 1133 LINE",
"709 748 LINE SMOOTH",
"662 610 OFFCURVE",
"632 493 OFFCURVE",
"618 397 CURVE",
"610 397 LINE",
"605 437 OFFCURVE",
"598 482 OFFCURVE",
"587 533 CURVE SMOOTH",
"576 583 OFFCURVE",
"554 661 OFFCURVE",
"522 766 CURVE SMOOTH",
"406 1133 LINE",
"-2 1133 LINE",
"410 12 LINE",
"350 -177 OFFCURVE",
"313 -384 OFFCURVE",
"313 -492 CURVE",
"725 -492 LINE"
);
}
);
width = 1235;
}
);
note = gamma;
unicode = 03B3;
},
{
glyphname = delta;
lastChange = "2017-04-22 21:00:22 +0000";
layers = (
{
layerId = "9722DBBA-DA2B-4164-95B3-8AF620E947BE";
paths = (
{
closed = 1;
nodes = (
"206 820 OFFCURVE",
"86 666 OFFCURVE",
"86 438 CURVE SMOOTH",
"86 158 OFFCURVE",
"308 -20 OFFCURVE",
"645 -20 CURVE SMOOTH",
"1006 -20 OFFCURVE",
"1217 159 OFFCURVE",
"1217 479 CURVE SMOOTH",
"1217 722 OFFCURVE",
"1105 887 OFFCURVE",
"864 1020 CURVE SMOOTH",
"741 1089 OFFCURVE",
"666 1134 OFFCURVE",
"641 1155 CURVE SMOOTH",
"615 1176 OFFCURVE",
"602 1198 OFFCURVE",
"602 1219 CURVE SMOOTH",
"602 1262 OFFCURVE",
"642 1284 OFFCURVE",
"723 1284 CURVE SMOOTH",
"815 1284 OFFCURVE",
"932 1249 OFFCURVE",
"1073 1178 CURVE",
"1219 1460 LINE",
"1060 1537 OFFCURVE",
"893 1575 OFFCURVE",
"717 1575 CURVE SMOOTH",
"401 1575 OFFCURVE",
"229 1459 OFFCURVE",
"229 1251 CURVE SMOOTH",
"229 1110 OFFCURVE",
"301 993 OFFCURVE",
"446 899 CURVE"
);
},
{
closed = 1;
nodes = (
"819 348 OFFCURVE",
"754 270 OFFCURVE",
"649 270 CURVE SMOOTH",
"548 270 OFFCURVE",
"483 345 OFFCURVE",
"483 461 CURVE SMOOTH",
"483 598 OFFCURVE",
"555 717 OFFCURVE",
"655 750 CURVE",
"764 672 OFFCURVE",
"819 582 OFFCURVE",
"819 481 CURVE SMOOTH"
);
}
);
width = 1303;
}
);
note = delta;
unicode = 03B4;
},
{
glyphname = epsilon;
lastChange = "2017-06-04 18:43:55 +0000";
layers = (
{
anchors = (
{
name = top;
position = "{568, 1133}";
}
);
layerId = "9722DBBA-DA2B-4164-95B3-8AF620E947BE";
paths = (
{
closed = 1;
nodes = (
"641 715 OFFCURVE",
"585 722 OFFCURVE",
"551 735 CURVE SMOOTH",
"517 748 OFFCURVE",
"500 769 OFFCURVE",
"500 799 CURVE SMOOTH",
"500 849 OFFCURVE",
"550 874 OFFCURVE",
"649 874 CURVE SMOOTH",
"746 874 OFFCURVE",
"847 850 OFFCURVE",
"952 803 CURVE",
"1063 1067 LINE",
"898 1134 OFFCURVE",
"781 1153 OFFCURVE",
"633 1153 CURVE SMOOTH",
"308 1153 OFFCURVE",
"131 1043 OFFCURVE",
"131 846 CURVE SMOOTH",
"131 725 OFFCURVE",
"211 631 OFFCURVE",
"336 598 CURVE",
"336 588 LINE",
"168 567 OFFCURVE",
"63 461 OFFCURVE",
"63 322 CURVE SMOOTH",
"63 87 OFFCURVE",
"235 -20 OFFCURVE",
"604 -20 CURVE SMOOTH",
"783 -20 OFFCURVE",
"918 -2 OFFCURVE",
"1063 59 CURVE",
"1063 358 LINE",
"935 299 OFFCURVE",
"801 270 OFFCURVE",
"662 270 CURVE SMOOTH",
"524 270 OFFCURVE",
"455 302 OFFCURVE",
"455 367 CURVE SMOOTH",
"455 419 OFFCURVE",
"485 440 OFFCURVE",
"553 452 CURVE SMOOTH",
"587 458 OFFCURVE",
"634 461 OFFCURVE",
"694 461 CURVE SMOOTH",
"842 461 LINE",
"842 715 LINE",
"719 715 LINE SMOOTH"
);
}
);
width = 1135;
}
);
note = epsilon;
unicode = 03B5;
},
{
glyphname = zeta;
lastChange = "2017-04-22 21:00:22 +0000";
layers = (
{
layerId = "9722DBBA-DA2B-4164-95B3-8AF620E947BE";
paths = (
{
closed = 1;
nodes = (
"86 376 OFFCURVE",
"98 301 OFFCURVE",
"121 246 CURVE SMOOTH",
"167 137 OFFCURVE",
"265 66 OFFCURVE",
"440 25 CURVE SMOOTH",
"509 8 OFFCURVE",
"559 -7 OFFCURVE",
"590 -18 CURVE SMOOTH",
"651 -41 OFFCURVE",
"674 -61 OFFCURVE",
"674 -102 CURVE SMOOTH",
"674 -150 OFFCURVE",
"609 -270 OFFCURVE",
"522 -365 CURVE",
"922 -365 LINE",
"1015 -242 OFFCURVE",
"1061 -127 OFFCURVE",
"1061 -18 CURVE SMOOTH",
"1061 149 OFFCURVE",
"962 244 OFFCURVE",
"762 285 CURVE SMOOTH",
"649 310 OFFCURVE",
"574 337 OFFCURVE",
"538 364 CURVE SMOOTH",
"501 391 OFFCURVE",
"483 432 OFFCURVE",
"483 489 CURVE SMOOTH",
"483 764 OFFCURVE",
"654 1012 OFFCURVE",
"1038 1325 CURVE",
"1038 1556 LINE",
"141 1556 LINE",
"141 1266 LINE",
"442 1266 LINE SMOOTH",
"503 1266 OFFCURVE",
"558 1273 OFFCURVE",
"608 1288 CURVE",
"255 1020 OFFCURVE",
"86 754 OFFCURVE",
"86 471 CURVE SMOOTH"
);
}
);
width = 1044;
}
);
note = zeta;
unicode = 03B6;
},
{
glyphname = eta;
lastChange = "2017-06-04 18:43:55 +0000";
layers = (
{
anchors = (
{
name = top;
position = "{686, 1133}";
}
);
layerId = "9722DBBA-DA2B-4164-95B3-8AF620E947BE";
paths = (
{
closed = 1;
nodes = (
"1241 737 LINE SMOOTH",
"1241 1001 OFFCURVE",
"1095 1153 OFFCURVE",
"844 1153 CURVE SMOOTH",
"691 1153 OFFCURVE",
"569 1100 OFFCURVE",
"502 993 CURVE",
"479 993 LINE",
"430 1133 LINE",
"135 1133 LINE",
"135 0 LINE",
"526 0 LINE",
"526 496 LINE SMOOTH",
"526 752 OFFCURVE",
"581 846 OFFCURVE",
"713 846 CURVE SMOOTH",
"804 846 OFFCURVE",
"850 779 OFFCURVE",
"850 645 CURVE SMOOTH",
"850 -492 LINE",
"1241 -492 LINE"
);
}
);
width = 1372;
}
);
note = eta;
unicode = 03B7;
},
{
glyphname = theta;
lastChange = "2017-04-22 21:00:22 +0000";
layers = (
{
layerId = "9722DBBA-DA2B-4164-95B3-8AF620E947BE";
paths = (
{
closed = 1;
nodes = (
"1229 1297 OFFCURVE",
"1030 1579 OFFCURVE",
"655 1579 CURVE SMOOTH",
"272 1579 OFFCURVE",
"86 1324 OFFCURVE",
"86 780 CURVE SMOOTH",
"86 259 OFFCURVE",
"286 -20 OFFCURVE",
"655 -20 CURVE SMOOTH",
"1040 -20 OFFCURVE",
"1229 239 OFFCURVE",
"1229 780 CURVE SMOOTH"
);
},
{
closed = 1;
nodes = (
"596 254 OFFCURVE",
"553 287 OFFCURVE",
"526 353 CURVE SMOOTH",
"499 418 OFFCURVE",
"484 514 OFFCURVE",
"483 641 CURVE",
"831 641 LINE",
"829 512 OFFCURVE",
"814 416 OFFCURVE",
"786 351 CURVE SMOOTH",
"757 286 OFFCURVE",
"714 254 OFFCURVE",
"655 254 CURVE SMOOTH"
);
},
{
closed = 1;
nodes = (
"716 1305 OFFCURVE",
"758 1273 OFFCURVE",
"786 1209 CURVE SMOOTH",
"813 1145 OFFCURVE",
"829 1047 OFFCURVE",
"834 915 CURVE",
"487 915 LINE",
"490 1047 OFFCURVE",
"506 1145 OFFCURVE",
"533 1209 CURVE SMOOTH",
"560 1273 OFFCURVE",
"602 1305 OFFCURVE",
"659 1305 CURVE SMOOTH"
);
}
);
width = 1315;
}
);
note = theta;
unicode = 03B8;
},
{
glyphname = iota;
lastChange = "2017-06-04 18:43:55 +0000";
layers = (
{
anchors = (
{
name = top;
position = "{446, 1133}";
}
);
layerId = "9722DBBA-DA2B-4164-95B3-8AF620E947BE";
paths = (
{
closed = 1;
nodes = (
"133 371 LINE SMOOTH",
"133 112 OFFCURVE",
"261 -20 OFFCURVE",
"541 -20 CURVE SMOOTH",
"658 -20 OFFCURVE",
"761 1 OFFCURVE",
"850 43 CURVE",
"850 330 LINE",
"770 301 OFFCURVE",
"714 287 OFFCURVE",
"641 287 CURVE SMOOTH",
"563 287 OFFCURVE",
"524 321 OFFCURVE",
"524 389 CURVE SMOOTH",
"524 1133 LINE",
"133 1133 LINE"
);
}
);
width = 891;
}
);
note = iota;
unicode = 03B9;
},
{
glyphname = lambda;
lastChange = "2017-04-22 21:00:22 +0000";
layers = (
{
layerId = "9722DBBA-DA2B-4164-95B3-8AF620E947BE";
paths = (
{
closed = 1;
nodes = (
"592 463 LINE SMOOTH",
"611 510 OFFCURVE",
"628 574 OFFCURVE",
"641 653 CURVE",
"649 653 LINE",
"659 596 OFFCURVE",
"676 532 OFFCURVE",
"700 461 CURVE SMOOTH",
"770 270 LINE SMOOTH",
"849 62 OFFCURVE",
"961 -20 OFFCURVE",
"1126 -20 CURVE SMOOTH",
"1186 -20 OFFCURVE",
"1312 -2 OFFCURVE",
"1343 14 CURVE",
"1343 297 LINE",
"1318 290 OFFCURVE",
"1293 287 OFFCURVE",
"1268 287 CURVE SMOOTH",
"1233 287 OFFCURVE",
"1205 294 OFFCURVE",
"1186 307 CURVE SMOOTH",
"1147 334 OFFCURVE",
"1115 392 OFFCURVE",
"1071 512 CURVE SMOOTH",
"825 1200 LINE SMOOTH",
"728 1469 OFFCURVE",
"595 1569 OFFCURVE",
"326 1569 CURVE SMOOTH",
"282 1569 OFFCURVE",
"190 1564 OFFCURVE",
"137 1552 CURVE",
"137 1245 LINE",
"182 1256 OFFCURVE",
"227 1262 OFFCURVE",
"272 1262 CURVE SMOOTH",
"379 1262 OFFCURVE",
"436 1207 OFFCURVE",
"473 1098 CURVE SMOOTH",
"487 1057 LINE",
"0 0 LINE",
"406 0 LINE"
);
}
);
width = 1362;
}
);
note = lambda;
unicode = 03BB;
},
{
glyphname = nu;
lastChange = "2017-04-22 21:00:22 +0000";
layers = (
{
layerId = "9722DBBA-DA2B-4164-95B3-8AF620E947BE";
paths = (
{
closed = 1;
nodes = (
"756 0 LINE",
"1069 347 OFFCURVE",
"1198 680 OFFCURVE",
"1198 1133 CURVE",
"807 1133 LINE",
"807 781 OFFCURVE",
"764 564 OFFCURVE",
"651 352 CURVE",
"641 352 LINE",
"633 399 OFFCURVE",
"621 447 OFFCURVE",
"606 494 CURVE SMOOTH",
"401 1133 LINE",
"0 1133 LINE",
"428 0 LINE"
);
}
);
width = 1270;
}
);
note = nu;
unicode = 03BD;
},
{
glyphname = xi;
lastChange = "2017-04-22 21:00:22 +0000";
layers = (
{
layerId = "9722DBBA-DA2B-4164-95B3-8AF620E947BE";
paths = (
{
closed = 1;
nodes = (
"86 215 OFFCURVE",
"207 77 OFFCURVE",
"483 16 CURVE SMOOTH",
"560 -1 OFFCURVE",
"612 -18 OFFCURVE",
"637 -34 CURVE SMOOTH",
"662 -50 OFFCURVE",
"674 -73 OFFCURVE",
"674 -102 CURVE SMOOTH",
"674 -150 OFFCURVE",
"609 -270 OFFCURVE",
"522 -365 CURVE",
"922 -365 LINE",
"1015 -242 OFFCURVE",
"1061 -127 OFFCURVE",
"1061 -18 CURVE SMOOTH",
"1061 143 OFFCURVE",
"957 244 OFFCURVE",
"750 287 CURVE SMOOTH",
"681 301 OFFCURVE",
"628 316 OFFCURVE",
"589 332 CURVE SMOOTH",
"512 364 OFFCURVE",
"483 397 OFFCURVE",
"483 473 CURVE SMOOTH",
"483 608 OFFCURVE",
"584 662 OFFCURVE",
"776 662 CURVE SMOOTH",
"936 662 LINE",
"936 948 LINE",
"774 948 LINE SMOOTH",
"613 948 OFFCURVE",
"539 986 OFFCURVE",
"539 1083 CURVE SMOOTH",
"539 1205 OFFCURVE",
"641 1266 OFFCURVE",
"846 1266 CURVE SMOOTH",
"1010 1266 LINE",
"1010 1556 LINE",
"119 1556 LINE",
"119 1266 LINE",
"174 1266 LINE SMOOTH",
"233 1266 OFFCURVE",
"283 1269 OFFCURVE",
"322 1274 CURVE SMOOTH",
"362 1278 LINE",
"230 1250 OFFCURVE",
"150 1167 OFFCURVE",
"150 1055 CURVE SMOOTH",
"150 927 OFFCURVE",
"222 848 OFFCURVE",
"367 817 CURVE",
"367 809 LINE",
"180 733 OFFCURVE",
"86 614 OFFCURVE",
"86 426 CURVE SMOOTH"
);
}
);
width = 1057;
}
);
note = xi;
unicode = 03BE;
},
{
glyphname = pi;
lastChange = "2017-04-22 21:00:22 +0000";
layers = (
{
layerId = "9722DBBA-DA2B-4164-95B3-8AF620E947BE";
paths = (
{
closed = 1;
nodes = (
"1333 287 OFFCURVE",
"1298 327 OFFCURVE",
"1298 395 CURVE SMOOTH",
"1298 842 LINE",
"1548 842 LINE",
"1548 1133 LINE",
"223 1133 LINE",
"23 1008 LINE",
"23 842 LINE",
"264 842 LINE",
"264 0 LINE",
"655 0 LINE",
"655 842 LINE",
"907 842 LINE",
"907 352 LINE SMOOTH",
"907 100 OFFCURVE",
"1014 -20 OFFCURVE",
"1245 -20 CURVE SMOOTH",
"1356 -20 OFFCURVE",
"1480 10 OFFCURVE",
"1548 53 CURVE",
"1548 322 LINE",
"1503 301 OFFCURVE",
"1438 287 OFFCURVE",
"1393 287 CURVE SMOOTH"
);
}
);
width = 1628;
}
);
note = pi;
unicode = 03C0;
},
{
glyphname = rho;
lastChange = "2017-04-22 21:00:22 +0000";
layers = (
{
layerId = "9722DBBA-DA2B-4164-95B3-8AF620E947BE";
paths = (
{
closed = 1;
nodes = (
"1245 681 OFFCURVE",
"1222 784 OFFCURVE",
"1177 873 CURVE SMOOTH",
"1085 1052 OFFCURVE",
"909 1153 OFFCURVE",
"694 1153 CURVE SMOOTH",
"338 1153 OFFCURVE",
"131 932 OFFCURVE",
"131 559 CURVE SMOOTH",
"131 -492 LINE",
"522 -492 LINE",
"522 -219 LINE SMOOTH",
"522 -147 OFFCURVE",
"515 -58 OFFCURVE",
"500 47 CURVE",
"526 47 LINE",
"594 6 OFFCURVE",
"698 -20 OFFCURVE",
"799 -20 CURVE SMOOTH",
"1076 -20 OFFCURVE",
"1245 198 OFFCURVE",
"1245 565 CURVE SMOOTH"
);
},
{
closed = 1;
nodes = (
"799 862 OFFCURVE",
"848 774 OFFCURVE",
"848 565 CURVE SMOOTH",
"848 365 OFFCURVE",
"803 283 OFFCURVE",
"690 283 CURVE SMOOTH",
"633 283 OFFCURVE",
"563 309 OFFCURVE",
"522 358 CURVE",
"522 612 LINE SMOOTH",
"522 779 OFFCURVE",
"577 862 OFFCURVE",
"688 862 CURVE SMOOTH"
);
}
);
width = 1331;
}
);
note = rho;
unicode = 03C1;
},
{
glyphname = sigma1;
lastChange = "2017-04-22 21:00:22 +0000";
layers = (
{
layerId = "9722DBBA-DA2B-4164-95B3-8AF620E947BE";
paths = (
{
closed = 1;
nodes = (
"86 450 OFFCURVE",
"98 362 OFFCURVE",
"123 291 CURVE SMOOTH",
"172 149 OFFCURVE",
"263 66 OFFCURVE",
"440 25 CURVE SMOOTH",
"497 12 OFFCURVE",
"543 -1 OFFCURVE",
"578 -13 CURVE SMOOTH",
"649 -38 OFFCURVE",
"674 -58 OFFCURVE",
"674 -102 CURVE SMOOTH",
"674 -150 OFFCURVE",
"609 -270 OFFCURVE",
"522 -365 CURVE",
"922 -365 LINE",
"1015 -242 OFFCURVE",
"1061 -127 OFFCURVE",
"1061 -18 CURVE SMOOTH",
"1061 149 OFFCURVE",
"962 244 OFFCURVE",
"762 285 CURVE SMOOTH",
"691 300 OFFCURVE",
"636 319 OFFCURVE",
"596 340 CURVE SMOOTH",
"516 382 OFFCURVE",
"483 434 OFFCURVE",
"483 551 CURVE SMOOTH",
"483 746 OFFCURVE",
"548 846 OFFCURVE",
"668 846 CURVE SMOOTH",
"745 846 OFFCURVE",
"859 812 OFFCURVE",
"954 772 CURVE",
"1065 1059 LINE",
"936 1122 OFFCURVE",
"803 1153 OFFCURVE",
"668 1153 CURVE SMOOTH",
"293 1153 OFFCURVE",
"86 940 OFFCURVE",
"86 557 CURVE SMOOTH"
);
}
);
width = 1092;
}
);
note = sigma1;
unicode = 03C2;
},
{
glyphname = sigma;
lastChange = "2017-04-22 21:00:22 +0000";
layers = (
{
layerId = "9722DBBA-DA2B-4164-95B3-8AF620E947BE";
paths = (
{
closed = 1;
nodes = (
"783 -20 OFFCURVE",
"887 0 OFFCURVE",
"974 41 CURVE SMOOTH",
"1149 121 OFFCURVE",
"1245 278 OFFCURVE",
"1245 477 CURVE SMOOTH",
"1245 632 OFFCURVE",
"1184 754 OFFCURVE",
"1063 842 CURVE",
"1341 842 LINE",
"1341 1133 LINE",
"766 1133 LINE SMOOTH",
"301 1133 OFFCURVE",
"86 941 OFFCURVE",
"86 524 CURVE SMOOTH",
"86 185 OFFCURVE",
"307 -20 OFFCURVE",
"664 -20 CURVE SMOOTH"
);
},
{
closed = 1;
nodes = (
"485 751 OFFCURVE",
"554 842 OFFCURVE",
"723 842 CURVE SMOOTH",
"745 842 LINE",
"778 796 OFFCURVE",
"801 760 OFFCURVE",
"813 733 CURVE SMOOTH",
"837 680 OFFCURVE",
"848 622 OFFCURVE",
"848 537 CURVE SMOOTH",
"848 373 OFFCURVE",
"788 291 OFFCURVE",
"668 291 CURVE SMOOTH",
"553 291 OFFCURVE",
"485 375 OFFCURVE",
"485 526 CURVE SMOOTH"
);
}
);
width = 1395;
}
);
note = sigma;
unicode = 03C3;
},
{
glyphname = tau;
lastChange = "2017-04-22 21:00:22 +0000";
layers = (
{
layerId = "9722DBBA-DA2B-4164-95B3-8AF620E947BE";
paths = (
{
closed = 1;
nodes = (
"1018 1133 LINE",
"217 1133 LINE",
"23 1008 LINE",
"23 842 LINE",
"293 842 LINE",
"293 373 LINE SMOOTH",
"293 104 OFFCURVE",
"400 -18 OFFCURVE",
"672 -18 CURVE SMOOTH",
"790 -18 OFFCURVE",
"892 3 OFFCURVE",
"977 45 CURVE",
"977 330 LINE",
"901 301 OFFCURVE",
"837 287 OFFCURVE",
"784 287 CURVE SMOOTH",
"720 287 OFFCURVE",
"684 326 OFFCURVE",
"684 395 CURVE SMOOTH",
"684 842 LINE",
"1018 842 LINE"
);
}
);
width = 1083;
}
);
note = tau;
unicode = 03C4;
},
{
glyphname = upsilon;
lastChange = "2017-06-04 18:43:55 +0000";
layers = (
{
anchors = (
{
name = top;
position = "{679, 1133}";
}
);
layerId = "9722DBBA-DA2B-4164-95B3-8AF620E947BE";
paths = (
{
closed = 1;
nodes = (
"1072 -16 OFFCURVE",
"1260 191 OFFCURVE",
"1260 610 CURVE SMOOTH",
"1260 781 OFFCURVE",
"1242 922 OFFCURVE",
"1186 1133 CURVE",
"791 1133 LINE",
"842 938 OFFCURVE",
"868 767 OFFCURVE",
"868 618 CURVE SMOOTH",
"868 383 OFFCURVE",
"816 291 OFFCURVE",
"684 291 CURVE SMOOTH",
"573 291 OFFCURVE",
"522 346 OFFCURVE",
"522 498 CURVE SMOOTH",
"522 1133 LINE",
"131 1133 LINE",
"131 518 LINE SMOOTH",
"131 151 OFFCURVE",
"313 -16 OFFCURVE",
"676 -16 CURVE SMOOTH"
);
}
);
width = 1358;
}
);
note = upsilon;
unicode = 03C5;
},
{
glyphname = phi;
lastChange = "2017-04-22 21:00:22 +0000";
layers = (
{
layerId = "9722DBBA-DA2B-4164-95B3-8AF620E947BE";
paths = (
{
closed = 1;
nodes = (
"1034 -8 LINE",
"1418 27 OFFCURVE",
"1647 251 OFFCURVE",
"1647 604 CURVE SMOOTH",
"1647 947 OFFCURVE",
"1442 1147 OFFCURVE",
"1114 1147 CURVE SMOOTH",
"807 1147 OFFCURVE",
"664 999 OFFCURVE",
"664 688 CURVE SMOOTH",
"664 283 LINE",
"536 318 OFFCURVE",
"467 398 OFFCURVE",
"467 549 CURVE SMOOTH",
"467 706 OFFCURVE",
"521 876 OFFCURVE",
"608 991 CURVE",
"317 1167 LINE",
"157 970 OFFCURVE",
"86 778 OFFCURVE",
"86 555 CURVE SMOOTH",
"86 226 OFFCURVE",
"299 17 OFFCURVE",
"664 -8 CURVE",
"664 -492 LINE",
"1034 -492 LINE"
);
},
{
closed = 1;
nodes = (
"1257 406 OFFCURVE",
"1174 294 OFFCURVE",
"1034 283 CURVE",
"1034 702 LINE SMOOTH",
"1034 815 OFFCURVE",
"1055 856 OFFCURVE",
"1120 856 CURVE SMOOTH",
"1207 856 OFFCURVE",
"1257 770 OFFCURVE",
"1257 602 CURVE SMOOTH"
);
}
);
width = 1733;
}
);
note = phi;
unicode = 03C6;
},
{
glyphname = chi;
lastChange = "2017-04-22 21:00:22 +0000";
layers = (
{
layerId = "9722DBBA-DA2B-4164-95B3-8AF620E947BE";
paths = (
{
closed = 1;
nodes = (
"205 1151 OFFCURVE",
"136 1138 OFFCURVE",
"66 1112 CURVE",
"66 819 LINE",
"114 836 OFFCURVE",
"158 844 OFFCURVE",
"199 844 CURVE SMOOTH",
"258 844 OFFCURVE",
"304 803 OFFCURVE",
"336 721 CURVE SMOOTH",
"455 408 LINE",
"-53 -492 LINE",
"385 -492 LINE",
"629 35 LINE",
"702 -188 LINE SMOOTH",
"767 -397 OFFCURVE",
"874 -492 OFFCURVE",
"1053 -492 CURVE SMOOTH",
"1142 -492 OFFCURVE",
"1222 -478 OFFCURVE",
"1294 -451 CURVE",
"1294 -170 LINE",
"1259 -179 OFFCURVE",
"1224 -184 OFFCURVE",
"1188 -184 CURVE SMOOTH",
"1132 -184 OFFCURVE",
"1090 -147 OFFCURVE",
"1061 -74 CURVE SMOOTH",
"881 381 LINE",
"1303 1133 LINE",
"895 1133 LINE",
"707 754 LINE",
"666 860 LINE SMOOTH",
"583 1076 OFFCURVE",
"485 1151 OFFCURVE",
"272 1151 CURVE SMOOTH"
);
}
);
width = 1323;
}
);
note = chi;
unicode = 03C7;
},
{
glyphname = psi;
lastChange = "2017-04-22 21:00:22 +0000";
layers = (
{
layerId = "9722DBBA-DA2B-4164-95B3-8AF620E947BE";
paths = (
{
closed = 1;
nodes = (
"737 291 LINE",
"573 303 OFFCURVE",
"512 378 OFFCURVE",
"512 547 CURVE SMOOTH",
"512 1133 LINE",
"131 1133 LINE",
"131 557 LINE SMOOTH",
"131 187 OFFCURVE",
"333 -4 OFFCURVE",
"737 -16 CURVE",
"737 -492 LINE",
"1108 -492 LINE",
"1108 -16 LINE",
"1521 5 OFFCURVE",
"1733 209 OFFCURVE",
"1733 573 CURVE SMOOTH",
"1733 742 OFFCURVE",
"1711 905 OFFCURVE",
"1638 1133 CURVE",
"1262 1133 LINE",
"1322 938 OFFCURVE",
"1352 754 OFFCURVE",
"1352 580 CURVE SMOOTH",
"1352 389 OFFCURVE",
"1293 310 OFFCURVE",
"1108 291 CURVE",
"1108 1554 LINE",
"737 1554 LINE"
);
}
);
width = 1831;
}
);
note = psi;
unicode = 03C8;
},
{
glyphname = omega;
lastChange = "2017-06-04 18:43:55 +0000";
layers = (
{
anchors = (
{
name = bottom;
position = "{936, 0}";
},
{
name = top;
position = "{936, 1133}";
}
);
layerId = "9722DBBA-DA2B-4164-95B3-8AF620E947BE";
paths = (
{
closed = 1;
nodes = (
"1588 -20 OFFCURVE",
"1774 194 OFFCURVE",
"1774 551 CURVE SMOOTH",
"1774 754 OFFCURVE",
"1746 924 OFFCURVE",
"1667 1133 CURVE",
"1268 1133 LINE",
"1355 960 OFFCURVE",
"1393 753 OFFCURVE",
"1393 561 CURVE SMOOTH",
"1393 370 OFFCURVE",
"1346 283 OFFCURVE",
"1249 283 CURVE SMOOTH",
"1177 283 OFFCURVE",
"1148 308 OFFCURVE",
"1133 375 CURVE SMOOTH",
"1126 408 OFFCURVE",
"1122 459 OFFCURVE",
"1122 526 CURVE SMOOTH",
"1122 801 LINE",
"750 801 LINE",
"750 526 LINE SMOOTH",
"750 341 OFFCURVE",
"724 283 OFFCURVE",
"623 283 CURVE SMOOTH",
"518 283 OFFCURVE",
"479 366 OFFCURVE",
"479 567 CURVE SMOOTH",
"479 778 OFFCURVE",
"521 966 OFFCURVE",
"604 1133 CURVE",
"205 1133 LINE",
"126 913 OFFCURVE",
"98 759 OFFCURVE",
"98 551 CURVE SMOOTH",
"98 196 OFFCURVE",
"282 -20 OFFCURVE",
"590 -20 CURVE SMOOTH",
"779 -20 OFFCURVE",
"879 61 OFFCURVE",
"930 209 CURVE",
"942 209 LINE",
"998 48 OFFCURVE",
"1101 -20 OFFCURVE",
"1280 -20 CURVE SMOOTH"
);
}
);
width = 1872;
}
);
note = omega;
unicode = 03C9;
},
{
glyphname = afii10051;
lastChange = "2017-04-22 21:00:22 +0000";
layers = (
{
layerId = "9722DBBA-DA2B-4164-95B3-8AF620E947BE";
paths = (
{
closed = 1;
nodes = (
"1454 -20 OFFCURVE",
"1597 128 OFFCURVE",
"1597 424 CURVE SMOOTH",
"1597 545 LINE SMOOTH",
"1597 804 OFFCURVE",
"1419 956 OFFCURVE",
"1092 956 CURVE SMOOTH",
"805 956 LINE",
"805 1139 LINE",
"1198 1139 LINE",
"1198 1462 LINE",
"51 1462 LINE",
"51 1139 LINE",
"408 1139 LINE",
"408 0 LINE",
"805 0 LINE",
"805 633 LINE",
"1081 633 LINE SMOOTH",
"1162 633 OFFCURVE",
"1202 597 OFFCURVE",
"1202 524 CURVE SMOOTH",
"1202 385 LINE SMOOTH",
"1202 317 OFFCURVE",
"1171 283 OFFCURVE",
"1108 283 CURVE SMOOTH",
"1062 283 OFFCURVE",
"1017 293 OFFCURVE",
"973 313 CURVE",
"973 8 LINE",
"1015 -11 OFFCURVE",
"1080 -20 OFFCURVE",
"1167 -20 CURVE SMOOTH"
);
}
);
width = 1696;
}
);
note = afii10051;
unicode = 0402;
},
{
glyphname = afii10053;
lastChange = "2017-04-22 21:00:22 +0000";
layers = (
{
layerId = "9722DBBA-DA2B-4164-95B3-8AF620E947BE";
paths = (
{
closed = 1;
nodes = (
"959 1157 OFFCURVE",
"1083 1122 OFFCURVE",
"1208 1051 CURVE",
"1343 1370 LINE",
"1182 1447 OFFCURVE",
"1031 1481 OFFCURVE",
"858 1481 CURVE SMOOTH",
"705 1481 OFFCURVE",
"572 1450 OFFCURVE",
"458 1388 CURVE SMOOTH",
"230 1263 OFFCURVE",
"104 1024 OFFCURVE",
"104 727 CURVE SMOOTH",
"104 246 OFFCURVE",
"362 -20 OFFCURVE",
"829 -20 CURVE SMOOTH",
"1010 -20 OFFCURVE",
"1127 3 OFFCURVE",
"1290 68 CURVE",
"1290 395 LINE",
"1078 328 OFFCURVE",
"963 303 OFFCURVE",
"844 303 CURVE SMOOTH",
"649 303 OFFCURVE",
"533 396 OFFCURVE",
"514 561 CURVE",
"1098 561 LINE",
"1098 879 LINE",
"514 879 LINE",
"545 1064 OFFCURVE",
"652 1157 OFFCURVE",
"836 1157 CURVE SMOOTH"
);
}
);
width = 1405;
}
);
note = afii10053;
unicode = 0404;
},
{
glyphname = afii10058;
lastChange = "2017-04-22 21:00:22 +0000";
layers = (
{
layerId = "9722DBBA-DA2B-4164-95B3-8AF620E947BE";
paths = (
{
closed = 1;
nodes = (
"965 0 LINE",
"1425 0 LINE SMOOTH",
"1818 0 OFFCURVE",
"2038 176 OFFCURVE",
"2038 485 CURVE SMOOTH",
"2038 786 OFFCURVE",
"1819 942 OFFCURVE",
"1411 942 CURVE SMOOTH",
"1362 942 LINE",
"1362 1462 LINE",
"393 1462 LINE",
"346 1046 OFFCURVE",
"284 618 OFFCURVE",
"253 479 CURVE SMOOTH",
"222 339 OFFCURVE",
"192 287 OFFCURVE",
"123 287 CURVE SMOOTH",
"98 287 OFFCURVE",
"65 294 OFFCURVE",
"25 307 CURVE",
"25 2 LINE",
"72 -13 OFFCURVE",
"123 -20 OFFCURVE",
"180 -20 CURVE SMOOTH",
"255 -20 OFFCURVE",
"318 -9 OFFCURVE",
"371 12 CURVE SMOOTH",
"476 54 OFFCURVE",
"545 131 OFFCURVE",
"592 270 CURVE SMOOTH",
"639 409 OFFCURVE",
"696 807 OFFCURVE",
"727 1139 CURVE",
"965 1139 LINE"
);
},
{
closed = 1;
nodes = (
"1405 643 LINE SMOOTH",
"1560 643 OFFCURVE",
"1638 588 OFFCURVE",
"1638 477 CURVE SMOOTH",
"1638 362 OFFCURVE",
"1561 305 OFFCURVE",
"1407 305 CURVE SMOOTH",
"1362 305 LINE",
"1362 643 LINE"
);
}
);
width = 2111;
}
);
note = afii10058;
unicode = 0409;
},
{
glyphname = afii10059;
lastChange = "2017-04-22 21:00:22 +0000";
layers = (
{
layerId = "9722DBBA-DA2B-4164-95B3-8AF620E947BE";
paths = (
{
closed = 1;
nodes = (
"1380 0 LINE SMOOTH",
"1773 0 OFFCURVE",
"1993 176 OFFCURVE",
"1993 485 CURVE SMOOTH",
"1993 786 OFFCURVE",
"1774 942 OFFCURVE",
"1366 942 CURVE SMOOTH",
"1317 942 LINE",
"1317 1462 LINE",
"920 1462 LINE",
"920 920 LINE",
"555 920 LINE",
"555 1462 LINE",
"158 1462 LINE",
"158 0 LINE",
"555 0 LINE",
"555 596 LINE",
"920 596 LINE",
"920 0 LINE"
);
},
{
closed = 1;
nodes = (
"1360 643 LINE SMOOTH",
"1515 643 OFFCURVE",
"1593 588 OFFCURVE",
"1593 477 CURVE SMOOTH",
"1593 362 OFFCURVE",
"1516 305 OFFCURVE",
"1362 305 CURVE SMOOTH",
"1317 305 LINE",
"1317 643 LINE"
);
}
);
width = 2066;
}
);
note = afii10059;
unicode = 040A;
},
{
glyphname = afii10060;
lastChange = "2017-04-22 21:00:22 +0000";
layers = (
{
layerId = "9722DBBA-DA2B-4164-95B3-8AF620E947BE";
paths = (
{
closed = 1;
nodes = (
"1597 0 LINE",
"1597 545 LINE SMOOTH",
"1597 804 OFFCURVE",
"1419 956 OFFCURVE",
"1092 956 CURVE SMOOTH",
"805 956 LINE",
"805 1139 LINE",
"1198 1139 LINE",
"1198 1462 LINE",
"51 1462 LINE",
"51 1139 LINE",
"408 1139 LINE",
"408 0 LINE",
"805 0 LINE",
"805 633 LINE",
"1081 633 LINE SMOOTH",
"1162 633 OFFCURVE",
"1202 597 OFFCURVE",
"1202 524 CURVE SMOOTH",
"1202 0 LINE"
);
}
);
width = 1704;
}
);
note = afii10060;
unicode = 040B;
},
{
glyphname = afii10145;
lastChange = "2017-04-22 21:00:22 +0000";
layers = (
{
layerId = "9722DBBA-DA2B-4164-95B3-8AF620E947BE";
paths = (
{
closed = 1;
nodes = (
"961 1462 LINE",
"961 324 LINE",
"555 324 LINE",
"555 1462 LINE",
"158 1462 LINE",
"158 0 LINE",
"565 0 LINE",
"565 -455 LINE",
"950 -455 LINE",
"950 0 LINE",
"1358 0 LINE",
"1358 1462 LINE"
);
}
);
width = 1516;
}
);
note = afii10145;
unicode = 040F;
},
{
glyphname = afii10018;
lastChange = "2017-04-22 21:00:22 +0000";
layers = (
{
layerId = "9722DBBA-DA2B-4164-95B3-8AF620E947BE";
paths = (
{
closed = 1;
nodes = (
"1239 774 OFFCURVE",
"1021 922 OFFCURVE",
"612 922 CURVE SMOOTH",
"555 922 LINE",
"555 1145 LINE",
"1120 1145 LINE",
"1120 1462 LINE",
"158 1462 LINE",
"158 0 LINE",
"627 0 LINE SMOOTH",
"1023 0 OFFCURVE",
"1239 168 OFFCURVE",
"1239 475 CURVE SMOOTH"
);
},
{
closed = 1;
nodes = (
"606 623 LINE SMOOTH",
"765 623 OFFCURVE",
"840 574 OFFCURVE",
"840 467 CURVE SMOOTH",
"840 360 OFFCURVE",
"773 305 OFFCURVE",
"608 305 CURVE SMOOTH",
"555 305 LINE",
"555 623 LINE"
);
}
);
width = 1325;
}
);
note = afii10018;
unicode = 0411;
},
{
glyphname = afii10021;
lastChange = "2017-04-22 21:00:22 +0000";
layers = (
{
layerId = "9722DBBA-DA2B-4164-95B3-8AF620E947BE";
paths = (
{
closed = 1;
nodes = (
"1430 324 LINE",
"1430 1462 LINE",
"455 1462 LINE",
"422 1018 OFFCURVE",
"304 620 OFFCURVE",
"129 324 CURVE",
"8 324 LINE",
"8 -455 LINE",
"393 -455 LINE",
"393 0 LINE",
"1245 0 LINE",
"1245 -455 LINE",
"1630 -455 LINE",
"1630 324 LINE"
);
},
{
closed = 1;
nodes = (
"670 582 OFFCURVE",
"745 854 OFFCURVE",
"772 1139 CURVE",
"1032 1139 LINE",
"1032 324 LINE",
"547 324 LINE"
);
}
);
width = 1667;
}
);
note = afii10021;
unicode = 0414;
},
{
glyphname = afii10024;
lastChange = "2017-06-04 18:43:55 +0000";
layers = (
{
anchors = (
{
name = bottomright;
position = "{2081, 0}";
},
{
name = top;
position = "{1051, 1462}";
}
);
layerId = "9722DBBA-DA2B-4164-95B3-8AF620E947BE";
paths = (
{
closed = 1;
nodes = (
"428 0 LINE",
"860 741 LINE",
"860 0 LINE",
"1241 0 LINE",
"1241 741 LINE",
"1673 0 LINE",
"2109 0 LINE",
"1645 764 LINE",
"2075 1462 LINE",
"1649 1462 LINE",
"1241 754 LINE",
"1241 1462 LINE",
"860 1462 LINE",
"860 754 LINE",
"455 1462 LINE",
"29 1462 LINE",
"455 764 LINE",
"-8 0 LINE"
);
}
);
width = 2101;
}
);
note = afii10024;
unicode = 0416;
},
{
glyphname = afii10025;
lastChange = "2017-06-04 18:43:55 +0000";
layers = (
{
anchors = (
{
name = bottom;
position = "{682, 0}";
},
{
name = top;
position = "{682, 1462}";
}
);
layerId = "9722DBBA-DA2B-4164-95B3-8AF620E947BE";
paths = (
{
closed = 1;
nodes = (
"1212 1337 OFFCURVE",
"1001 1483 OFFCURVE",
"680 1483 CURVE SMOOTH",
"425 1483 OFFCURVE",
"263 1441 OFFCURVE",
"88 1329 CURVE",
"254 1057 LINE",
"355 1125 OFFCURVE",
"471 1159 OFFCURVE",
"604 1159 CURVE SMOOTH",
"745 1159 OFFCURVE",
"815 1122 OFFCURVE",
"815 1049 CURVE SMOOTH",
"815 980 OFFCURVE",
"777 949 OFFCURVE",
"690 934 CURVE SMOOTH",
"646 926 OFFCURVE",
"585 922 OFFCURVE",
"508 922 CURVE SMOOTH",
"354 922 LINE",
"354 602 LINE",
"526 602 LINE SMOOTH",
"750 602 OFFCURVE",
"862 553 OFFCURVE",
"862 455 CURVE SMOOTH",
"862 400 OFFCURVE",
"838 361 OFFCURVE",
"791 338 CURVE SMOOTH",
"744 315 OFFCURVE",
"664 303 OFFCURVE",
"551 303 CURVE SMOOTH",
"408 303 OFFCURVE",
"209 342 OFFCURVE",
"96 399 CURVE",
"96 59 LINE",
"235 6 OFFCURVE",
"420 -20 OFFCURVE",
"653 -20 CURVE SMOOTH",
"780 -20 OFFCURVE",
"889 -2 OFFCURVE",
"982 34 CURVE SMOOTH",
"1167 105 OFFCURVE",
"1268 242 OFFCURVE",
"1268 418 CURVE SMOOTH",
"1268 619 OFFCURVE",
"1132 741 OFFCURVE",
"868 764 CURVE",
"868 772 LINE",
"1097 811 OFFCURVE",
"1212 927 OFFCURVE",
"1212 1120 CURVE SMOOTH"
);
}
);
width = 1364;
}
);
note = afii10025;
unicode = 0417;
},
{
glyphname = afii10026;
lastChange = "2017-06-04 18:43:55 +0000";
layers = (
{
anchors = (
{
name = bottomright;
position = "{1711, 0}";
},
{
name = top;
position = "{866, 1462}";
}
);
layerId = "9722DBBA-DA2B-4164-95B3-8AF620E947BE";
paths = (
{
closed = 1;
nodes = (
"645 0 LINE",
"1233 1028 LINE",
"1241 1028 LINE",
"1229 843 OFFCURVE",
"1223 705 OFFCURVE",
"1223 612 CURVE SMOOTH",
"1223 0 LINE",
"1573 0 LINE",
"1573 1462 LINE",
"1085 1462 LINE",
"502 434 LINE",
"494 434 LINE",
"505 634 OFFCURVE",
"510 767 OFFCURVE",
"510 834 CURVE SMOOTH",
"510 1462 LINE",
"158 1462 LINE",
"158 0 LINE"
);
}
);
width = 1731;
}
);
note = afii10026;
unicode = 0418;
},
{
glyphname = afii10028;
lastChange = "2017-06-04 18:43:55 +0000";
layers = (
{
anchors = (
{
name = bottomright;
position = "{1407, 0}";
},
{
name = top;
position = "{714, 1462}";
}
);
layerId = "9722DBBA-DA2B-4164-95B3-8AF620E947BE";
paths = (
{
closed = 1;
nodes = (
"1407 1462 LINE",
"973 1462 LINE",
"555 754 LINE",
"555 1462 LINE",
"158 1462 LINE",
"158 0 LINE",
"555 0 LINE",
"555 741 LINE",
"989 0 LINE",
"1436 0 LINE",
"956 764 LINE"
);
}
);
width = 1427;
}
);
note = afii10028;
unicode = 041A;
},
{
glyphname = afii10029;
lastChange = "2017-04-22 21:00:22 +0000";
layers = (
{
layerId = "9722DBBA-DA2B-4164-95B3-8AF620E947BE";
paths = (
{
closed = 1;
nodes = (
"393 1462 LINE",
"346 1046 OFFCURVE",
"284 618 OFFCURVE",
"253 479 CURVE SMOOTH",
"222 339 OFFCURVE",
"192 287 OFFCURVE",
"123 287 CURVE SMOOTH",
"98 287 OFFCURVE",
"65 294 OFFCURVE",
"25 307 CURVE",
"25 2 LINE",
"72 -13 OFFCURVE",
"123 -20 OFFCURVE",
"180 -20 CURVE SMOOTH",
"255 -20 OFFCURVE",
"318 -9 OFFCURVE",
"371 12 CURVE SMOOTH",
"476 54 OFFCURVE",
"545 131 OFFCURVE",
"592 270 CURVE SMOOTH",
"639 409 OFFCURVE",
"696 807 OFFCURVE",
"727 1139 CURVE",
"1006 1139 LINE",
"1006 0 LINE",
"1403 0 LINE",
"1403 1462 LINE"
);
}
);
width = 1561;
}
);
note = afii10029;
unicode = 041B;
},
{
glyphname = afii10037;
lastChange = "2017-06-04 18:43:55 +0000";
layers = (
{
anchors = (
{
name = top;
position = "{698, 1462}";
}
);
layerId = "9722DBBA-DA2B-4164-95B3-8AF620E947BE";
paths = (
{
closed = 1;
nodes = (
"455 -20 OFFCURVE",
"546 -6 OFFCURVE",
"621 22 CURVE SMOOTH",
"769 77 OFFCURVE",
"864 180 OFFCURVE",
"975 436 CURVE SMOOTH",
"1419 1462 LINE",
"993 1462 LINE",
"844 1055 LINE SMOOTH",
"799 934 OFFCURVE",
"766 828 OFFCURVE",
"743 737 CURVE",
"729 737 LINE",
"724 756 OFFCURVE",
"718 778 OFFCURVE",
"710 803 CURVE SMOOTH",
"694 854 OFFCURVE",
"675 906 OFFCURVE",
"656 954 CURVE SMOOTH",
"646 978 OFFCURVE",
"638 999 OFFCURVE",
"631 1016 CURVE SMOOTH",
"451 1462 LINE",
"25 1462 LINE",
"502 416 LINE",
"466 320 OFFCURVE",
"411 287 OFFCURVE",
"328 287 CURVE SMOOTH",
"232 287 OFFCURVE",
"153 299 OFFCURVE",
"90 324 CURVE",
"90 10 LINE",
"167 -10 OFFCURVE",
"253 -20 OFFCURVE",
"346 -20 CURVE SMOOTH"
);
}
);
width = 1395;
}
);
note = afii10037;
unicode = 0423;
},
{
glyphname = afii10040;
lastChange = "2017-04-22 21:00:22 +0000";
layers = (
{
layerId = "9722DBBA-DA2B-4164-95B3-8AF620E947BE";
paths = (
{
closed = 1;
nodes = (
"961 1462 LINE",
"961 324 LINE",
"555 324 LINE",
"555 1462 LINE",
"158 1462 LINE",
"158 0 LINE",
"1280 0 LINE",
"1280 -455 LINE",
"1665 -455 LINE",
"1665 324 LINE",
"1358 324 LINE",
"1358 1462 LINE"
);
}
);
width = 1702;
}
);
note = afii10040;
unicode = 0426;
},
{
glyphname = afii10041;
lastChange = "2017-06-04 18:43:55 +0000";
layers = (
{
anchors = (
{
name = bottomright;
position = "{1534, 0}";
},
{
name = top;
position = "{777, 1462}";
}
);
layerId = "9722DBBA-DA2B-4164-95B3-8AF620E947BE";
paths = (
{
closed = 1;
nodes = (
"999 1462 LINE",
"999 844 LINE",
"874 799 OFFCURVE",
"769 776 OFFCURVE",
"684 776 CURVE SMOOTH",
"559 776 OFFCURVE",
"504 832 OFFCURVE",
"504 975 CURVE SMOOTH",
"504 1462 LINE",
"106 1462 LINE",
"106 844 LINE SMOOTH",
"106 596 OFFCURVE",
"270 453 OFFCURVE",
"547 453 CURVE SMOOTH",
"680 453 OFFCURVE",
"830 482 OFFCURVE",
"999 541 CURVE",
"999 0 LINE",
"1397 0 LINE",
"1397 1462 LINE"
);
}
);
width = 1554;
}
);
note = afii10041;
unicode = 0427;
},
{
glyphname = afii10042;
lastChange = "2017-04-22 21:00:22 +0000";
layers = (
{
layerId = "9722DBBA-DA2B-4164-95B3-8AF620E947BE";
paths = (
{
closed = 1;
nodes = (
"1673 1462 LINE",
"1673 324 LINE",
"1309 324 LINE",
"1309 1462 LINE",
"920 1462 LINE",
"920 324 LINE",
"555 324 LINE",
"555 1462 LINE",
"158 1462 LINE",
"158 0 LINE",
"2071 0 LINE",
"2071 1462 LINE"
);
}
);
width = 2228;
}
);
note = afii10042;
unicode = 0428;
},
{
glyphname = afii10043;
lastChange = "2017-04-22 21:00:22 +0000";
layers = (
{
layerId = "9722DBBA-DA2B-4164-95B3-8AF620E947BE";
paths = (
{
closed = 1;
nodes = (
"1993 -455 LINE",
"2378 -455 LINE",
"2378 324 LINE",
"2071 324 LINE",
"2071 1462 LINE",
"1673 1462 LINE",
"1673 324 LINE",
"1309 324 LINE",
"1309 1462 LINE",
"920 1462 LINE",
"920 324 LINE",
"555 324 LINE",
"555 1462 LINE",
"158 1462 LINE",
"158 0 LINE",
"1993 0 LINE"
);
}
);
width = 2415;
}
);
note = afii10043;
unicode = 0429;
},
{
glyphname = afii10044;
lastChange = "2017-06-04 18:43:55 +0000";
layers = (
{
anchors = (
{
name = top;
position = "{782, 1462}";
}
);
layerId = "9722DBBA-DA2B-4164-95B3-8AF620E947BE";
paths = (
{
closed = 1;
nodes = (
"1489 786 OFFCURVE",
"1270 942 OFFCURVE",
"862 942 CURVE SMOOTH",
"805 942 LINE",
"805 1462 LINE",
"51 1462 LINE",
"51 1139 LINE",
"408 1139 LINE",
"408 0 LINE",
"877 0 LINE SMOOTH",
"1268 0 OFFCURVE",
"1489 173 OFFCURVE",
"1489 485 CURVE SMOOTH"
);
},
{
closed = 1;
nodes = (
"856 643 LINE SMOOTH",
"1012 643 OFFCURVE",
"1090 588 OFFCURVE",
"1090 477 CURVE SMOOTH",
"1090 362 OFFCURVE",
"1013 305 OFFCURVE",
"858 305 CURVE SMOOTH",
"805 305 LINE",
"805 643 LINE"
);
}
);
width = 1563;
}
);
note = afii10044;
unicode = 042A;
},
{
glyphname = afii10045;
lastChange = "2017-06-04 18:43:55 +0000";
layers = (
{
anchors = (
{
name = top;
position = "{945, 1462}";
}
);
layerId = "9722DBBA-DA2B-4164-95B3-8AF620E947BE";
paths = (
{
closed = 1;
nodes = (
"1202 786 OFFCURVE",
"983 942 OFFCURVE",
"575 942 CURVE SMOOTH",
"555 942 LINE",
"555 1462 LINE",
"158 1462 LINE",
"158 0 LINE",
"590 0 LINE SMOOTH",
"981 0 OFFCURVE",
"1202 173 OFFCURVE",
"1202 485 CURVE SMOOTH"
);
},
{
closed = 1;
nodes = (
"569 643 LINE SMOOTH",
"725 643 OFFCURVE",
"803 588 OFFCURVE",
"803 477 CURVE SMOOTH",
"803 362 OFFCURVE",
"726 305 OFFCURVE",
"571 305 CURVE SMOOTH",
"555 305 LINE",
"555 643 LINE"
);
},
{
closed = 1;
nodes = (
"1335 1462 LINE",
"1335 0 LINE",
"1733 0 LINE",
"1733 1462 LINE"
);
}
);
width = 1890;
}
);
note = afii10045;
unicode = 042B;
},
{
glyphname = afii10046;
lastChange = "2017-04-22 21:00:22 +0000";
layers = (
{
layerId = "9722DBBA-DA2B-4164-95B3-8AF620E947BE";
paths = (
{
closed = 1;
nodes = (
"1202 786 OFFCURVE",
"983 942 OFFCURVE",
"575 942 CURVE SMOOTH",
"555 942 LINE",
"555 1462 LINE",
"158 1462 LINE",
"158 0 LINE",
"590 0 LINE SMOOTH",
"981 0 OFFCURVE",
"1202 173 OFFCURVE",
"1202 485 CURVE SMOOTH"
);
},
{
closed = 1;
nodes = (
"571 639 LINE SMOOTH",
"727 639 OFFCURVE",
"805 584 OFFCURVE",
"805 475 CURVE SMOOTH",
"805 360 OFFCURVE",
"728 303 OFFCURVE",
"573 303 CURVE SMOOTH",
"555 303 LINE",
"555 639 LINE"
);
}
);
width = 1276;
}
);
note = afii10046;
unicode = 042C;
},
{
glyphname = afii10047;
lastChange = "2017-06-04 18:43:55 +0000";
layers = (
{
anchors = (
{
name = top;
position = "{686, 1462}";
}
);
layerId = "9722DBBA-DA2B-4164-95B3-8AF620E947BE";
paths = (
{
closed = 1;
nodes = (
"728 1157 OFFCURVE",
"836 1058 OFFCURVE",
"848 879 CURVE",
"264 879 LINE",
"264 561 LINE",
"848 561 LINE",
"836 393 OFFCURVE",
"734 303 OFFCURVE",
"555 303 CURVE SMOOTH",
"405 303 OFFCURVE",
"251 334 OFFCURVE",
"92 395 CURVE",
"92 63 LINE",
"228 8 OFFCURVE",
"382 -20 OFFCURVE",
"555 -20 CURVE SMOOTH",
"1019 -20 OFFCURVE",
"1266 243 OFFCURVE",
"1266 735 CURVE SMOOTH",
"1266 1211 OFFCURVE",
"1012 1481 OFFCURVE",
"567 1481 CURVE SMOOTH",
"408 1481 OFFCURVE",
"263 1455 OFFCURVE",
"82 1376 CURVE",
"197 1067 LINE",
"306 1120 OFFCURVE",
"457 1157 OFFCURVE",
"553 1157 CURVE SMOOTH"
);
}
);
width = 1372;
}
);
note = afii10047;
unicode = 042D;
},
{
glyphname = afii10048;
lastChange = "2017-06-04 18:43:55 +0000";
layers = (
{
anchors = (
{
name = top;
position = "{1102, 1462}";
}
);
layerId = "9722DBBA-DA2B-4164-95B3-8AF620E947BE";
paths = (
{
closed = 1;
nodes = (
"2097 1226 OFFCURVE",
"1870 1485 OFFCURVE",
"1438 1485 CURVE SMOOTH",
"1068 1485 OFFCURVE",
"857 1297 OFFCURVE",
"805 920 CURVE",
"555 920 LINE",
"555 1462 LINE",
"158 1462 LINE",
"158 0 LINE",
"555 0 LINE",
"555 596 LINE",
"799 596 LINE",
"840 185 OFFCURVE",
"1052 -20 OFFCURVE",
"1436 -20 CURVE SMOOTH",
"1867 -20 OFFCURVE",
"2097 238 OFFCURVE",
"2097 733 CURVE SMOOTH"
);
},
{
closed = 1;
nodes = (
"1190 1018 OFFCURVE",
"1273 1161 OFFCURVE",
"1438 1161 CURVE SMOOTH",
"1600 1161 OFFCURVE",
"1681 1018 OFFCURVE",
"1681 733 CURVE SMOOTH",
"1681 442 OFFCURVE",
"1601 309 OFFCURVE",
"1436 309 CURVE SMOOTH",
"1272 309 OFFCURVE",
"1190 450 OFFCURVE",
"1190 733 CURVE SMOOTH"
);
}
);
width = 2204;
}
);
note = afii10048;
unicode = 042E;
},
{
glyphname = afii10049;
lastChange = "2017-06-04 18:43:55 +0000";
layers = (
{
anchors = (
{
name = top;
position = "{696, 1462}";
}
);
layerId = "9722DBBA-DA2B-4164-95B3-8AF620E947BE";
paths = (
{
closed = 1;
nodes = (
"838 0 LINE",
"1233 0 LINE",
"1233 1462 LINE",
"748 1462 LINE SMOOTH",
"351 1462 OFFCURVE",
"152 1318 OFFCURVE",
"152 1030 CURVE SMOOTH",
"152 862 OFFCURVE",
"233 722 OFFCURVE",
"381 639 CURVE",
"-20 0 LINE",
"428 0 LINE",
"717 532 LINE",
"838 532 LINE"
);
},
{
closed = 1;
nodes = (
"764 829 LINE SMOOTH",
"617 829 OFFCURVE",
"551 891 OFFCURVE",
"551 1012 CURVE SMOOTH",
"551 1112 OFFCURVE",
"627 1163 OFFCURVE",
"754 1163 CURVE SMOOTH",
"838 1163 LINE",
"838 829 LINE"
);
}
);
width = 1391;
}
);
note = afii10049;
unicode = 042F;
},
{
glyphname = afii10066;
lastChange = "2017-04-22 21:00:22 +0000";
layers = (
{
layerId = "9722DBBA-DA2B-4164-95B3-8AF620E947BE";
paths = (
{
closed = 1;
nodes = (
"88 238 OFFCURVE",
"305 -20 OFFCURVE",
"662 -20 CURVE SMOOTH",
"1025 -20 OFFCURVE",
"1241 200 OFFCURVE",
"1241 569 CURVE SMOOTH",
"1241 885 OFFCURVE",
"1082 1057 OFFCURVE",
"799 1057 CURVE SMOOTH",
"660 1057 OFFCURVE",
"539 986 OFFCURVE",
"492 893 CURVE",
"475 893 LINE",
"478 950 OFFCURVE",
"487 997 OFFCURVE",
"500 1033 CURVE SMOOTH",
"526 1104 OFFCURVE",
"578 1150 OFFCURVE",
"666 1178 CURVE SMOOTH",
"753 1206 OFFCURVE",
"1092 1239 OFFCURVE",
"1247 1251 CURVE",
"1210 1575 LINE",
"953 1554 OFFCURVE",
"773 1531 OFFCURVE",
"668 1507 CURVE SMOOTH",
"459 1458 OFFCURVE",
"311 1366 OFFCURVE",
"219 1230 CURVE SMOOTH",
"126 1093 OFFCURVE",
"88 907 OFFCURVE",
"88 678 CURVE SMOOTH"
);
},
{
closed = 1;
nodes = (
"561 270 OFFCURVE",
"485 418 OFFCURVE",
"485 637 CURVE",
"513 701 OFFCURVE",
"619 778 OFFCURVE",
"696 778 CURVE SMOOTH",
"795 778 OFFCURVE",
"844 694 OFFCURVE",
"844 526 CURVE SMOOTH",
"844 355 OFFCURVE",
"790 270 OFFCURVE",
"682 270 CURVE SMOOTH"
);
}
);
width = 1335;
}
);
note = afii10066;
unicode = 0431;
},
{
glyphname = afii10067;
lastChange = "2017-04-22 21:00:22 +0000";
layers = (
{
layerId = "9722DBBA-DA2B-4164-95B3-8AF620E947BE";
paths = (
{
closed = 1;
nodes = (
"1245 1039 OFFCURVE",
"1083 1133 OFFCURVE",
"754 1133 CURVE SMOOTH",
"135 1133 LINE",
"135 0 LINE",
"752 0 LINE SMOOTH",
"1104 0 OFFCURVE",
"1280 108 OFFCURVE",
"1280 324 CURVE SMOOTH",
"1280 469 OFFCURVE",
"1191 567 OFFCURVE",
"1028 586 CURVE",
"1028 594 LINE",
"1163 617 OFFCURVE",
"1245 708 OFFCURVE",
"1245 840 CURVE SMOOTH"
);
},
{
closed = 1;
nodes = (
"883 291 OFFCURVE",
"835 256 OFFCURVE",
"739 256 CURVE SMOOTH",
"526 256 LINE",
"526 461 LINE",
"743 461 LINE SMOOTH",
"834 461 OFFCURVE",
"883 433 OFFCURVE",
"883 362 CURVE SMOOTH"
);
},
{
closed = 1;
nodes = (
"856 741 OFFCURVE",
"816 707 OFFCURVE",
"733 707 CURVE SMOOTH",
"526 707 LINE",
"526 877 LINE",
"748 877 LINE SMOOTH",
"820 877 OFFCURVE",
"856 847 OFFCURVE",
"856 788 CURVE SMOOTH"
);
}
);
width = 1372;
}
);
note = afii10067;
unicode = 0432;
},
{
glyphname = afii10068;
lastChange = "2017-06-04 18:43:55 +0000";
layers = (
{
anchors = (
{
name = bottomright;
position = "{1006, 0}";
},
{
name = top;
position = "{513, 1133}";
}
);
layerId = "9722DBBA-DA2B-4164-95B3-8AF620E947BE";
paths = (
{
closed = 1;
nodes = (
"135 0 LINE",
"526 0 LINE",
"526 842 LINE",
"977 842 LINE",
"977 1133 LINE",
"135 1133 LINE"
);
}
);
width = 1026;
}
);
note = afii10068;
unicode = 0433;
},
{
glyphname = afii10069;
lastChange = "2017-04-22 21:00:22 +0000";
layers = (
{
layerId = "9722DBBA-DA2B-4164-95B3-8AF620E947BE";
paths = (
{
closed = 1;
nodes = (
"1290 291 LINE",
"1290 1133 LINE",
"354 1133 LINE",
"323 798 OFFCURVE",
"241 488 OFFCURVE",
"125 291 CURVE",
"25 291 LINE",
"25 -416 LINE",
"367 -416 LINE",
"367 0 LINE",
"1116 0 LINE",
"1116 -416 LINE",
"1458 -416 LINE",
"1458 291 LINE"
);
},
{
closed = 1;
nodes = (
"616 504 OFFCURVE",
"652 662 OFFCURVE",
"676 842 CURVE",
"899 842 LINE",
"899 291 LINE",
"537 291 LINE"
);
}
);
width = 1483;
}
);
note = afii10069;
unicode = 0434;
},
{
glyphname = afii10072;
lastChange = "2017-06-04 18:43:55 +0000";
layers = (
{
anchors = (
{
name = bottomright;
position = "{1967, 0}";
},
{
name = top;
position = "{994, 1133}";
}
);
layerId = "9722DBBA-DA2B-4164-95B3-8AF620E947BE";
paths = (
{
closed = 1;
nodes = (
"31 1133 LINE",
"414 594 LINE",
"-8 0 LINE",
"418 0 LINE",
"803 575 LINE",
"803 0 LINE",
"1184 0 LINE",
"1184 575 LINE",
"1569 0 LINE",
"1995 0 LINE",
"1573 594 LINE",
"1956 1133 LINE",
"1536 1133 LINE",
"1184 584 LINE",
"1184 1133 LINE",
"803 1133 LINE",
"803 584 LINE",
"451 1133 LINE"
);
}
);
width = 1987;
}
);
note = afii10072;
unicode = 0436;
},
{
glyphname = afii10073;
lastChange = "2017-06-04 18:43:55 +0000";
layers = (
{
anchors = (
{
name = bottom;
position = "{568, 0}";
},
{
name = top;
position = "{568, 1133}";
}
);
layerId = "9722DBBA-DA2B-4164-95B3-8AF620E947BE";
paths = (
{
closed = 1;
nodes = (
"313 461 LINE",
"461 461 LINE SMOOTH",
"544 461 OFFCURVE",
"601 454 OFFCURVE",
"633 441 CURVE SMOOTH",
"664 428 OFFCURVE",
"680 403 OFFCURVE",
"680 367 CURVE SMOOTH",
"680 302 OFFCURVE",
"605 270 OFFCURVE",
"481 270 CURVE SMOOTH",
"337 270 OFFCURVE",
"201 299 OFFCURVE",
"72 358 CURVE",
"72 59 LINE",
"221 -4 OFFCURVE",
"337 -20 OFFCURVE",
"504 -20 CURVE SMOOTH",
"882 -20 OFFCURVE",
"1071 94 OFFCURVE",
"1071 322 CURVE SMOOTH",
"1071 471 OFFCURVE",
"979 567 OFFCURVE",
"819 588 CURVE",
"819 598 LINE",
"944 630 OFFCURVE",
"1024 725 OFFCURVE",
"1024 846 CURVE SMOOTH",
"1024 1043 OFFCURVE",
"846 1153 OFFCURVE",
"522 1153 CURVE SMOOTH",
"373 1153 OFFCURVE",
"253 1134 OFFCURVE",
"92 1067 CURVE",
"203 803 LINE",
"308 850 OFFCURVE",
"409 874 OFFCURVE",
"506 874 CURVE SMOOTH",
"605 874 OFFCURVE",
"655 849 OFFCURVE",
"655 799 CURVE SMOOTH",
"655 770 OFFCURVE",
"638 748 OFFCURVE",
"604 735 CURVE SMOOTH",
"570 722 OFFCURVE",
"514 715 OFFCURVE",
"436 715 CURVE SMOOTH",
"313 715 LINE"
);
}
);
width = 1135;
}
);
note = afii10073;
unicode = 0437;
},
{
glyphname = afii10074;
lastChange = "2017-06-04 18:43:55 +0000";
layers = (
{
anchors = (
{
name = bottomright;
position = "{1469, 0}";
},
{
name = top;
position = "{745, 1133}";
}
);
layerId = "9722DBBA-DA2B-4164-95B3-8AF620E947BE";
paths = (
{
closed = 1;
nodes = (
"135 0 LINE",
"569 0 LINE",
"1020 688 LINE",
"1011 541 OFFCURVE",
"1006 414 OFFCURVE",
"1006 307 CURVE SMOOTH",
"1006 0 LINE",
"1354 0 LINE",
"1354 1133 LINE",
"922 1133 LINE",
"469 440 LINE",
"478 659 OFFCURVE",
"482 777 OFFCURVE",
"483 796 CURVE",
"483 815 OFFCURVE",
"483 832 OFFCURVE",
"483 848 CURVE SMOOTH",
"483 1133 LINE",
"135 1133 LINE"
);
}
);
width = 1489;
}
);
note = afii10074;
unicode = 0438;
},
{
glyphname = afii10076;
lastChange = "2017-06-04 18:43:55 +0000";
layers = (
{
anchors = (
{
name = bottomright;
position = "{1364, 0}";
},
{
name = top;
position = "{692, 1133}";
}
);
layerId = "9722DBBA-DA2B-4164-95B3-8AF620E947BE";
paths = (
{
closed = 1;
nodes = (
"526 1133 LINE",
"135 1133 LINE",
"135 0 LINE",
"526 0 LINE",
"526 575 LINE",
"946 0 LINE",
"1393 0 LINE",
"936 590 LINE",
"1360 1133 LINE",
"928 1133 LINE",
"526 584 LINE"
);
}
);
width = 1384;
}
);
note = afii10076;
unicode = 043A;
},
{
glyphname = afii10077;
lastChange = "2017-04-22 21:00:22 +0000";
layers = (
{
layerId = "9722DBBA-DA2B-4164-95B3-8AF620E947BE";
paths = (
{
closed = 1;
nodes = (
"299 1133 LINE",
"288 978 OFFCURVE",
"277 847 OFFCURVE",
"266 740 CURVE SMOOTH",
"242 527 OFFCURVE",
"214 392 OFFCURVE",
"177 330 CURVE SMOOTH",
"158 299 OFFCURVE",
"134 283 OFFCURVE",
"104 283 CURVE SMOOTH",
"67 283 OFFCURVE",
"38 289 OFFCURVE",
"16 301 CURVE",
"16 10 LINE",
"65 -10 OFFCURVE",
"124 -20 OFFCURVE",
"193 -20 CURVE SMOOTH",
"392 -20 OFFCURVE",
"501 77 OFFCURVE",
"568 306 CURVE SMOOTH",
"601 420 OFFCURVE",
"629 599 OFFCURVE",
"651 842 CURVE",
"881 842 LINE",
"881 0 LINE",
"1272 0 LINE",
"1272 1133 LINE"
);
}
);
width = 1407;
}
);
note = afii10077;
unicode = 043B;
},
{
glyphname = afii10078;
lastChange = "2017-04-22 21:00:22 +0000";
layers = (
{
layerId = "9722DBBA-DA2B-4164-95B3-8AF620E947BE";
paths = (
{
closed = 1;
nodes = (
"1100 1133 LINE",
"991 797 LINE",
"952 663 LINE SMOOTH",
"909 517 OFFCURVE",
"885 428 OFFCURVE",
"881 397 CURVE",
"868 482 OFFCURVE",
"791 767 OFFCURVE",
"758 868 CURVE SMOOTH",
"670 1133 LINE",
"135 1133 LINE",
"135 0 LINE",
"485 0 LINE",
"485 846 LINE",
"507 771 LINE SMOOTH",
"550 620 OFFCURVE",
"592 483 OFFCURVE",
"631 362 CURVE SMOOTH",
"748 0 LINE",
"1014 0 LINE",
"1112 295 OFFCURVE",
"1175 488 OFFCURVE",
"1202 580 CURVE SMOOTH",
"1229 671 OFFCURVE",
"1253 760 OFFCURVE",
"1274 846 CURVE",
"1274 0 LINE",
"1624 0 LINE",
"1624 1133 LINE"
);
}
);
width = 1759;
}
);
note = afii10078;
unicode = 043C;
},
{
glyphname = afii10079;
lastChange = "2017-06-04 18:43:55 +0000";
layers = (
{
anchors = (
{
name = bottomright;
position = "{1342, 0}";
}
);
layerId = "9722DBBA-DA2B-4164-95B3-8AF620E947BE";
paths = (
{
closed = 1;
nodes = (
"135 0 LINE",
"526 0 LINE",
"526 434 LINE",
"836 434 LINE",
"836 0 LINE",
"1227 0 LINE",
"1227 1133 LINE",
"836 1133 LINE",
"836 725 LINE",
"526 725 LINE",
"526 1133 LINE",
"135 1133 LINE"
);
}
);
width = 1362;
}
);
note = afii10079;
unicode = 043D;
},
{
glyphname = afii10081;
lastChange = "2017-06-04 18:43:55 +0000";
layers = (
{
anchors = (
{
name = bottomright;
position = "{1326, 0}";
}
);
layerId = "9722DBBA-DA2B-4164-95B3-8AF620E947BE";
paths = (
{
closed = 1;
nodes = (
"135 0 LINE",
"526 0 LINE",
"526 842 LINE",
"819 842 LINE",
"819 0 LINE",
"1210 0 LINE",
"1210 1133 LINE",
"135 1133 LINE"
);
}
);
width = 1346;
}
);
note = afii10081;
unicode = 043F;
},
{
glyphname = afii10084;
lastChange = "2017-06-04 18:43:55 +0000";
layers = (
{
anchors = (
{
name = bottomright;
position = "{1215, 0}";
}
);
layerId = "9722DBBA-DA2B-4164-95B3-8AF620E947BE";
paths = (
{
closed = 1;
nodes = (
"49 1133 LINE",
"49 842 LINE",
"422 842 LINE",
"422 0 LINE",
"813 0 LINE",
"813 842 LINE",
"1186 842 LINE",
"1186 1133 LINE"
);
}
);
width = 1235;
}
);
note = afii10084;
unicode = 0442;
},
{
glyphname = afii10086;
lastChange = "2017-04-22 21:00:22 +0000";
layers = (
{
layerId = "9722DBBA-DA2B-4164-95B3-8AF620E947BE";
paths = (
{
closed = 1;
nodes = (
"1688 888 OFFCURVE",
"1464 1098 OFFCURVE",
"1073 1133 CURVE",
"1073 1556 LINE",
"702 1556 LINE",
"702 1133 LINE",
"297 1108 OFFCURVE",
"86 909 OFFCURVE",
"86 565 CURVE SMOOTH",
"86 250 OFFCURVE",
"320 40 OFFCURVE",
"707 0 CURVE",
"707 -492 LINE",
"1073 -492 LINE",
"1073 0 LINE",
"1466 33 OFFCURVE",
"1688 237 OFFCURVE",
"1688 565 CURVE SMOOTH"
);
},
{
closed = 1;
nodes = (
"473 713 OFFCURVE",
"577 837 OFFCURVE",
"702 842 CURVE",
"702 291 LINE",
"571 294 OFFCURVE",
"473 409 OFFCURVE",
"473 565 CURVE SMOOTH"
);
},
{
closed = 1;
nodes = (
"1298 406 OFFCURVE",
"1204 294 OFFCURVE",
"1073 291 CURVE",
"1073 842 LINE",
"1201 837 OFFCURVE",
"1298 717 OFFCURVE",
"1298 565 CURVE SMOOTH"
);
}
);
width = 1774;
}
);
note = afii10086;
unicode = 0444;
},
{
glyphname = afii10088;
lastChange = "2017-04-22 21:00:22 +0000";
layers = (
{
layerId = "9722DBBA-DA2B-4164-95B3-8AF620E947BE";
paths = (
{
closed = 1;
nodes = (
"1280 291 LINE",
"1280 1133 LINE",
"889 1133 LINE",
"889 291 LINE",
"526 291 LINE",
"526 1133 LINE",
"135 1133 LINE",
"135 0 LINE",
"1192 0 LINE",
"1192 -416 LINE",
"1534 -416 LINE",
"1534 291 LINE"
);
}
);
width = 1559;
}
);
note = afii10088;
unicode = 0446;
},
{
glyphname = afii10089;
lastChange = "2017-06-04 18:43:55 +0000";
layers = (
{
anchors = (
{
name = bottomright;
position = "{1354, 0}";
},
{
name = top;
position = "{687, 1133}";
}
);
layerId = "9722DBBA-DA2B-4164-95B3-8AF620E947BE";
paths = (
{
closed = 1;
nodes = (
"86 715 LINE SMOOTH",
"86 451 OFFCURVE",
"214 328 OFFCURVE",
"489 328 CURVE SMOOTH",
"599 328 OFFCURVE",
"719 356 OFFCURVE",
"848 412 CURVE",
"848 0 LINE",
"1239 0 LINE",
"1239 1133 LINE",
"848 1133 LINE",
"848 668 LINE",
"748 635 OFFCURVE",
"660 618 OFFCURVE",
"584 618 CURVE SMOOTH",
"513 618 OFFCURVE",
"477 657 OFFCURVE",
"477 735 CURVE SMOOTH",
"477 1133 LINE",
"86 1133 LINE"
);
}
);
width = 1374;
}
);
note = afii10089;
unicode = 0447;
},
{
glyphname = afii10090;
lastChange = "2017-04-22 21:00:22 +0000";
layers = (
{
layerId = "9722DBBA-DA2B-4164-95B3-8AF620E947BE";
paths = (
{
closed = 1;
nodes = (
"1530 1133 LINE",
"1530 291 LINE",
"1221 291 LINE",
"1221 1133 LINE",
"840 1133 LINE",
"840 291 LINE",
"526 291 LINE",
"526 1133 LINE",
"135 1133 LINE",
"135 0 LINE",
"1921 0 LINE",
"1921 1133 LINE"
);
}
);
width = 2056;
}
);
note = afii10090;
unicode = 0448;
},
{
glyphname = afii10091;
lastChange = "2017-04-22 21:00:22 +0000";
layers = (
{
layerId = "9722DBBA-DA2B-4164-95B3-8AF620E947BE";
paths = (
{
closed = 1;
nodes = (
"1530 1133 LINE",
"1530 291 LINE",
"1221 291 LINE",
"1221 1133 LINE",
"840 1133 LINE",
"840 291 LINE",
"526 291 LINE",
"526 1133 LINE",
"135 1133 LINE",
"135 0 LINE",
"1833 0 LINE",
"1833 -416 LINE",
"2175 -416 LINE",
"2175 291 LINE",
"1921 291 LINE",
"1921 1133 LINE"
);
}
);
width = 2200;
}
);
note = afii10091;
unicode = 0449;
},
{
glyphname = afii10092;
lastChange = "2017-04-22 21:00:22 +0000";
layers = (
{
layerId = "9722DBBA-DA2B-4164-95B3-8AF620E947BE";
paths = (
{
closed = 1;
nodes = (
"1227 0 OFFCURVE",
"1395 115 OFFCURVE",
"1395 375 CURVE SMOOTH",
"1395 459 OFFCURVE",
"1376 526 OFFCURVE",
"1338 577 CURVE SMOOTH",
"1261 677 OFFCURVE",
"1101 725 OFFCURVE",
"836 725 CURVE SMOOTH",
"799 725 LINE",
"799 1133 LINE",
"49 1133 LINE",
"49 842 LINE",
"408 842 LINE",
"408 0 LINE",
"883 0 LINE SMOOTH"
);
},
{
closed = 1;
nodes = (
"1004 290 OFFCURVE",
"957 256 OFFCURVE",
"864 256 CURVE SMOOTH",
"799 256 LINE",
"799 469 LINE",
"860 469 LINE SMOOTH",
"964 469 OFFCURVE",
"1004 437 OFFCURVE",
"1004 358 CURVE SMOOTH"
);
}
);
width = 1460;
}
);
note = afii10092;
unicode = 044A;
},
{
glyphname = afii10093;
lastChange = "2017-06-04 18:43:55 +0000";
layers = (
{
anchors = (
{
name = top;
position = "{887, 1133}";
}
);
layerId = "9722DBBA-DA2B-4164-95B3-8AF620E947BE";
paths = (
{
closed = 1;
nodes = (
"1247 1133 LINE",
"1247 0 LINE",
"1638 0 LINE",
"1638 1133 LINE"
);
},
{
closed = 1;
nodes = (
"135 0 LINE",
"610 0 LINE SMOOTH",
"954 0 OFFCURVE",
"1122 115 OFFCURVE",
"1122 375 CURVE SMOOTH",
"1122 623 OFFCURVE",
"956 725 OFFCURVE",
"563 725 CURVE SMOOTH",
"526 725 LINE",
"526 1133 LINE",
"135 1133 LINE"
);
},
{
closed = 1;
nodes = (
"731 290 OFFCURVE",
"685 256 OFFCURVE",
"592 256 CURVE SMOOTH",
"526 256 LINE",
"526 469 LINE",
"588 469 LINE SMOOTH",
"691 469 OFFCURVE",
"731 437 OFFCURVE",
"731 358 CURVE SMOOTH"
);
}
);
width = 1774;
}
);
note = afii10093;
unicode = 044B;
},
{
glyphname = afii10094;
lastChange = "2017-04-22 21:00:22 +0000";
layers = (
{
layerId = "9722DBBA-DA2B-4164-95B3-8AF620E947BE";
paths = (
{
closed = 1;
nodes = (
"135 0 LINE",
"610 0 LINE SMOOTH",
"954 0 OFFCURVE",
"1122 115 OFFCURVE",
"1122 375 CURVE SMOOTH",
"1122 623 OFFCURVE",
"956 725 OFFCURVE",
"563 725 CURVE SMOOTH",
"526 725 LINE",
"526 1133 LINE",
"135 1133 LINE"
);
},
{
closed = 1;
nodes = (
"731 290 OFFCURVE",
"685 256 OFFCURVE",
"592 256 CURVE SMOOTH",
"526 256 LINE",
"526 469 LINE",
"588 469 LINE SMOOTH",
"691 469 OFFCURVE",
"731 437 OFFCURVE",
"731 358 CURVE SMOOTH"
);
}
);
width = 1188;
}
);
note = afii10094;
unicode = 044C;
},
{
glyphname = afii10095;
lastChange = "2017-06-04 18:43:55 +0000";
layers = (
{
anchors = (
{
name = top;
position = "{554, 1133}";
}
);
layerId = "9722DBBA-DA2B-4164-95B3-8AF620E947BE";
paths = (
{
closed = 1;
nodes = (
"818 -20 OFFCURVE",
"1022 194 OFFCURVE",
"1022 586 CURVE SMOOTH",
"1022 949 OFFCURVE",
"818 1153 OFFCURVE",
"481 1153 CURVE SMOOTH",
"340 1153 OFFCURVE",
"179 1121 OFFCURVE",
"51 1061 CURVE",
"162 809 LINE",
"246 850 OFFCURVE",
"352 874 OFFCURVE",
"432 874 CURVE SMOOTH",
"544 874 OFFCURVE",
"620 803 OFFCURVE",
"625 686 CURVE",
"238 686 LINE",
"238 440 LINE",
"625 440 LINE",
"624 328 OFFCURVE",
"540 258 OFFCURVE",
"403 258 CURVE SMOOTH",
"307 258 OFFCURVE",
"196 289 OFFCURVE",
"70 350 CURVE",
"70 57 LINE",
"178 0 OFFCURVE",
"296 -20 OFFCURVE",
"451 -20 CURVE SMOOTH"
);
}
);
width = 1108;
}
);
note = afii10095;
unicode = 044D;
},
{
glyphname = afii10096;
lastChange = "2017-06-04 18:43:55 +0000";
layers = (
{
anchors = (
{
name = top;
position = "{925, 1133}";
}
);
layerId = "9722DBBA-DA2B-4164-95B3-8AF620E947BE";
paths = (
{
closed = 1;
nodes = (
"1761 689 OFFCURVE",
"1739 793 OFFCURVE",
"1694 881 CURVE SMOOTH",
"1604 1057 OFFCURVE",
"1433 1153 OFFCURVE",
"1217 1153 CURVE SMOOTH",
"924 1153 OFFCURVE",
"731 1000 OFFCURVE",
"680 725 CURVE",
"526 725 LINE",
"526 1133 LINE",
"135 1133 LINE",
"135 0 LINE",
"526 0 LINE",
"526 434 LINE",
"678 434 LINE",
"725 146 OFFCURVE",
"925 -20 OFFCURVE",
"1210 -20 CURVE SMOOTH",
"1558 -20 OFFCURVE",
"1761 196 OFFCURVE",
"1761 569 CURVE SMOOTH"
);
},
{
closed = 1;
nodes = (
"1065 764 OFFCURVE",
"1105 862 OFFCURVE",
"1212 862 CURVE SMOOTH",
"1323 862 OFFCURVE",
"1364 762 OFFCURVE",
"1364 569 CURVE SMOOTH",
"1364 374 OFFCURVE",
"1323 270 OFFCURVE",
"1214 270 CURVE SMOOTH",
"1110 270 OFFCURVE",
"1065 364 OFFCURVE",
"1065 569 CURVE SMOOTH"
);
}
);
width = 1849;
}
);
note = afii10096;
unicode = 044E;
},
{
glyphname = afii10097;
lastChange = "2017-06-04 18:43:55 +0000";
layers = (
{
anchors = (
{
name = top;
position = "{624, 1133}";
}
);
layerId = "9722DBBA-DA2B-4164-95B3-8AF620E947BE";
paths = (
{
closed = 1;
nodes = (
"721 393 LINE",
"721 0 LINE",
"1112 0 LINE",
"1112 1133 LINE",
"571 1133 LINE SMOOTH",
"256 1133 OFFCURVE",
"76 1002 OFFCURVE",
"76 770 CURVE SMOOTH",
"76 615 OFFCURVE",
"149 494 OFFCURVE",
"266 430 CURVE",
"-25 0 LINE",
"389 0 LINE",
"606 393 LINE"
);
},
{
closed = 1;
nodes = (
"467 834 OFFCURVE",
"520 877 OFFCURVE",
"608 877 CURVE SMOOTH",
"721 877 LINE",
"721 649 LINE",
"610 649 LINE SMOOTH",
"518 649 OFFCURVE",
"467 689 OFFCURVE",
"467 758 CURVE SMOOTH"
);
}
);
width = 1247;
}
);
note = afii10097;
unicode = 044F;
},
{
glyphname = afii10099;
lastChange = "2017-04-22 21:00:22 +0000";
layers = (
{
layerId = "9722DBBA-DA2B-4164-95B3-8AF620E947BE";
paths = (
{
closed = 1;
nodes = (
"1262 900 OFFCURVE",
"1114 1053 OFFCURVE",
"862 1053 CURVE SMOOTH",
"725 1053 OFFCURVE",
"626 1008 OFFCURVE",
"553 893 CURVE",
"530 893 LINE",
"541 984 OFFCURVE",
"547 1061 OFFCURVE",
"547 1126 CURVE SMOOTH",
"547 1167 LINE",
"780 1167 LINE",
"780 1409 LINE",
"547 1409 LINE",
"547 1556 LINE",
"156 1556 LINE",
"156 1409 LINE",
"0 1409 LINE",
"0 1167 LINE",
"156 1167 LINE",
"156 0 LINE",
"547 0 LINE",
"547 395 LINE SMOOTH",
"547 646 OFFCURVE",
"605 745 OFFCURVE",
"733 745 CURVE SMOOTH",
"823 745 OFFCURVE",
"868 669 OFFCURVE",
"868 518 CURVE SMOOTH",
"868 -10 LINE SMOOTH",
"868 -123 OFFCURVE",
"829 -180 OFFCURVE",
"750 -180 CURVE SMOOTH",
"708 -180 OFFCURVE",
"667 -175 OFFCURVE",
"627 -164 CURVE",
"627 -467 LINE",
"679 -480 OFFCURVE",
"779 -492 OFFCURVE",
"844 -492 CURVE SMOOTH",
"1109 -492 OFFCURVE",
"1262 -341 OFFCURVE",
"1262 -92 CURVE SMOOTH",
"1262 639 LINE SMOOTH"
);
}
);
width = 1393;
}
);
note = afii10099;
unicode = 0452;
},
{
glyphname = afii10101;
lastChange = "2017-04-22 21:00:22 +0000";
layers = (
{
layerId = "9722DBBA-DA2B-4164-95B3-8AF620E947BE";
paths = (
{
closed = 1;
nodes = (
"796 -20 OFFCURVE",
"919 8 OFFCURVE",
"1024 63 CURVE",
"1024 350 LINE",
"900 289 OFFCURVE",
"786 258 OFFCURVE",
"682 258 CURVE SMOOTH",
"562 258 OFFCURVE",
"492 320 OFFCURVE",
"483 440 CURVE",
"852 440 LINE",
"852 686 LINE",
"481 686 LINE",
"490 803 OFFCURVE",
"554 874 OFFCURVE",
"659 874 CURVE SMOOTH",
"749 874 OFFCURVE",
"845 851 OFFCURVE",
"946 805 CURVE",
"1059 1069 LINE",
"930 1125 OFFCURVE",
"799 1153 OFFCURVE",
"666 1153 CURVE SMOOTH",
"286 1153 OFFCURVE",
"86 947 OFFCURVE",
"86 559 CURVE SMOOTH",
"86 179 OFFCURVE",
"276 -20 OFFCURVE",
"655 -20 CURVE SMOOTH"
);
}
);
width = 1110;
}
);
note = afii10101;
unicode = 0454;
},
